{
.appVersion = "1075";
copyright = "Copyright (c) 2010 by Yulya Zhdanova, Ivan Petrov. All rights reserved.";
customParameters = (
{
name = licenseURL;
value = "http://scripts.sil.org/OFL";
},
{
name = description;
value = "Copyright (c) 2010 by Yulya Zhdanova. All rights reserved.";
},
{
name = trademark;
value = "Artifika Medium is a trademark of Yulya Zhdanova, Ivan Petrov.";
},
{
name = license;
value = "Copyright (c) 2010, Yulya Zhdanova,\012with Reserved Font Name Artifika.\012This Font Software is licensed under the SIL Open Font License, Version 1.1.\012This license is available with a FAQ at: http://scripts.sil.org/OFL";
},
{
name = panose;
value = (
2,
0,
6,
5,
0,
0,
0,
2,
0,
4
);
},
{
name = glyphOrder;
value = (
nonmarkingreturn,
space,
exclam,
quotedbl,
numbersign,
dollar,
percent,
ampersand,
quotesingle,
parenleft,
parenright,
asterisk,
plus,
comma,
hyphen,
period,
slash,
zero,
one,
two,
three,
four,
five,
six,
seven,
eight,
nine,
colon,
semicolon,
less,
equal,
greater,
question,
at,
A,
B,
C,
D,
E,
F,
G,
H,
I,
J,
K,
L,
M,
N,
O,
P,
Q,
R,
S,
T,
U,
V,
W,
X,
Y,
Z,
bracketleft,
backslash,
bracketright,
asciicircum,
underscore,
grave,
a,
b,
c,
d,
e,
f,
g,
h,
i,
j,
k,
l,
m,
n,
o,
p,
q,
r,
s,
t,
u,
v,
w,
x,
y,
z,
braceleft,
bar,
braceright,
asciitilde,
noBreak,
exclamdown,
sterling,
brokenbar,
dieresis,
copyright,
ordfeminine,
guillemotleft,
logicalnot,
uni00AD,
registered,
macron,
degree,
plusminus,
acute,
paragraph,
periodcentered,
cedilla,
guillemotright,
onehalf,
questiondown,
multiply,
Thorn,
germandbls,
divide,
dotlessi,
OE,
oe,
circumflex,
ring,
tilde,
endash,
emdash,
quoteleft,
quoteright,
quotesinglbase,
quotedblleft,
quotedblright,
quotedblbase,
bullet,
guilsinglleft,
guilsinglright,
fraction,
uni2074,
Euro,
uni2215,
uniE0FF,
uniEFFD,
uniF000,
currency,
twosuperior,
threesuperior,
onesuperior,
minus,
breve,
dotaccent,
hungarumlaut,
ogonek,
caron,
nbspace,
.null,
NULL,
CR,
foundryicon,
Ntilde,
Otilde,
atilde,
ntilde,
otilde,
Atilde,
Eacute,
Iacute,

glyphs = (
{
glyphname = exclam;
lastChange = "2017-11-18 12:19:14 +0000";
layers = (
{
layerId = UUID0;
paths = (
{
closed = 1;
nodes = (
"434 260 OFFCURVE",
"496 199 OFFCURVE",
"496 123 CURVE SMOOTH",
"496 43 OFFCURVE",
"434 -18 OFFCURVE",
"346 -18 CURVE SMOOTH",
"260 -18 OFFCURVE",
"201 43 OFFCURVE",
"201 123 CURVE SMOOTH",
"201 199 OFFCURVE",
"260 260 OFFCURVE",
"346 260 CURVE SMOOTH"
);
},
{
closed = 1;
nodes = (
"266 489 LINE",
"270 426 OFFCURVE",
"301 401 OFFCURVE",
"360 401 CURVE SMOOTH",
"387 401 OFFCURVE",
"420 412 OFFCURVE",
"436 424 CURVE",
"430 453 OFFCURVE",
"426 481 OFFCURVE",
"426 532 CURVE SMOOTH",
"426 639 OFFCURVE",
"440 840 OFFCURVE",
"469 1333 CURVE",
"469 1407 OFFCURVE",
"418 1432 OFFCURVE",
"350 1432 CURVE SMOOTH",
"303 1432 OFFCURVE",
"231 1419 OFFCURVE",
"193 1397 CURVE",
"201 1358 OFFCURVE",
"217 1294 OFFCURVE",
"227 1128 CURVE SMOOTH"
);
}
);
width = 696;
}
);
unicode = 0021;
},
{
glyphname = quotedbl;
lastChange = "2017-11-18 12:19:14 +0000";
layers = (
{
layerId = UUID0;
paths = (
{
closed = 1;
nodes = (
"289 1331 LINE",
"289 1343 LINE SMOOTH",
"289 1393 OFFCURVE",
"264 1413 OFFCURVE",
"209 1413 CURVE SMOOTH",
"82 1413 LINE",
"111 979 LINE SMOOTH",
"115 922 OFFCURVE",
"129 897 OFFCURVE",
"188 897 CURVE SMOOTH",
"258 897 LINE"
);
},
{
closed = 1;
nodes = (
"674 1331 LINE",
"674 1343 LINE SMOOTH",
"674 1393 OFFCURVE",
"649 1413 OFFCURVE",
"594 1413 CURVE SMOOTH",
"467 1413 LINE",
"496 979 LINE SMOOTH",
"500 922 OFFCURVE",
"514 897 OFFCURVE",
"573 897 CURVE SMOOTH",
"643 897 LINE"
);
}
);
width = 756;
}
);
leftKerningGroup = quotesingle;
rightKerningGroup = quotesingle;
unicode = 0022;
},
{
glyphname = numbersign;
lastChange = "2017-11-18 12:19:14 +0000";
layers = (
{
layerId = UUID0;
paths = (
{
closed = 1;
nodes = (
"930 442 LINE",
"987 442 OFFCURVE",
"1012 463 OFFCURVE",
"1012 522 CURVE SMOOTH",
"1012 578 LINE",
"815 578 LINE",
"862 829 LINE",
"985 829 LINE SMOOTH",
"1042 829 OFFCURVE",
"1067 850 OFFCURVE",
"1067 909 CURVE SMOOTH",
"1067 965 LINE",
"887 965 LINE",
"930 1204 OFFCURVE",
"930 1212 OFFCURVE",
"930 1223 CURVE SMOOTH",
"930 1268 OFFCURVE",
"903 1274 OFFCURVE",
"848 1274 CURVE SMOOTH",
"791 1274 LINE",
"733 965 LINE",
"494 965 LINE",
"539 1204 OFFCURVE",
"539 1212 OFFCURVE",
"539 1223 CURVE SMOOTH",
"539 1268 OFFCURVE",
"512 1274 OFFCURVE",
"457 1274 CURVE SMOOTH",
"395 1274 LINE",
"338 965 LINE",
"199 965 LINE SMOOTH",
"141 965 OFFCURVE",
"117 946 OFFCURVE",
"117 887 CURVE SMOOTH",
"117 829 LINE",
"313 829 LINE",
"268 578 LINE",
"143 578 LINE SMOOTH",
"86 578 OFFCURVE",
"61 559 OFFCURVE",
"61 500 CURVE SMOOTH",
"61 442 LINE",
"244 442 LINE",
"201 201 OFFCURVE",
"201 193 OFFCURVE",
"201 186 CURVE SMOOTH",
"201 141 OFFCURVE",
"225 129 OFFCURVE",
"281 129 CURVE SMOOTH",
"340 129 LINE",
"397 442 LINE",
"639 442 LINE",
"596 201 OFFCURVE",
"596 193 OFFCURVE",
"596 186 CURVE SMOOTH",
"596 141 OFFCURVE",
"621 129 OFFCURVE",
"676 129 CURVE SMOOTH",
"735 129 LINE",
"791 442 LINE"
);
},
{
closed = 1;
nodes = (
"469 829 LINE",
"709 829 LINE",
"664 578 LINE",
"422 578 LINE"
);
}
);
width = 1128;
}
);
unicode = 0023;
},
{
glyphname = dollar;
lastChange = "2017-11-18 12:19:14 +0000";
layers = (
{
layerId = UUID0;
paths = (
{
closed = 1;
nodes = (
"748 1509 LINE",
"748 1567 OFFCURVE",
"727 1591 OFFCURVE",
"668 1591 CURVE SMOOTH",
"600 1591 LINE",
"600 1438 LINE",
"387 1405 OFFCURVE",
"184 1303 OFFCURVE",
"184 1067 CURVE SMOOTH",
"184 815 OFFCURVE",
"426 713 OFFCURVE",
"600 625 CURVE",
"600 106 LINE",
"451 147 OFFCURVE",
"342 264 OFFCURVE",
"252 348 CURVE",
"150 227 LINE SMOOTH",
"139 215 OFFCURVE",
"135 203 OFFCURVE",
"135 190 CURVE SMOOTH",
"135 156 OFFCURVE",
"170 123 OFFCURVE",
"199 104 CURVE SMOOTH",
"322 23 OFFCURVE",
"461 -23 OFFCURVE",
"600 -35 CURVE",
"600 -193 LINE SMOOTH",
"600 -250 OFFCURVE",
"618 -274 OFFCURVE",
"678 -274 CURVE SMOOTH",
"748 -274 LINE",
"748 -37 LINE",
"987 -25 OFFCURVE",
"1188 104 OFFCURVE",
"1188 330 CURVE SMOOTH",
"1188 547 OFFCURVE",
"969 680 OFFCURVE",
"748 778 CURVE",
"748 1307 LINE",
"874 1282 OFFCURVE",
"961 1221 OFFCURVE",
"1036 1161 CURVE",
"1116 1298 LINE SMOOTH",
"1124 1313 OFFCURVE",
"1128 1325 OFFCURVE",
"1128 1337 CURVE SMOOTH",
"1128 1425 OFFCURVE",
"872 1450 OFFCURVE",
"760 1450 CURVE SMOOTH",
"748 1450 LINE"
);
},
{
closed = 1;
nodes = (
"383 1237 OFFCURVE",
"494 1307 OFFCURVE",
"600 1315 CURVE",
"600 842 LINE",
"487 891 OFFCURVE",
"383 954 OFFCURVE",
"383 1106 CURVE SMOOTH"
);
},
{
closed = 1;
nodes = (
"965 180 OFFCURVE",
"879 102 OFFCURVE",
"748 90 CURVE",
"748 557 LINE",
"870 494 OFFCURVE",
"965 418 OFFCURVE",
"965 301 CURVE SMOOTH"
);
}
);
width = 1303;
}
);
unicode = 0024;
},
{
glyphname = percent;
lastChange = "2017-11-18 12:19:14 +0000";
layers = (
{
layerId = UUID0;
paths = (
{
closed = 1;
nodes = (
"1288 1296 LINE",
"1296 1309 OFFCURVE",
"1300 1319 OFFCURVE",
"1300 1329 CURVE SMOOTH",
"1300 1352 OFFCURVE",
"1278 1366 OFFCURVE",
"1239 1384 CURVE SMOOTH",
"1176 1415 LINE",
"340 98 LINE SMOOTH",
"334 88 OFFCURVE",
"330 78 OFFCURVE",
"330 70 CURVE SMOOTH",
"330 45 OFFCURVE",
"358 31 OFFCURVE",
"401 10 CURVE SMOOTH",
"451 -12 LINE"
);
},
{
closed = 1;
nodes = (
"287 807 OFFCURVE",
"227 893 OFFCURVE",
"227 1081 CURVE SMOOTH",
"227 1282 OFFCURVE",
"293 1358 OFFCURVE",
"391 1358 CURVE SMOOTH",
"489 1358 OFFCURVE",
"553 1282 OFFCURVE",
"553 1081 CURVE SMOOTH",
"553 893 OFFCURVE",
"496 807 OFFCURVE",
"391 807 CURVE SMOOTH"
);
},
{
closed = 1;
nodes = (
"526 733 OFFCURVE",
"715 838 OFFCURVE",
"715 1081 CURVE SMOOTH",
"715 1327 OFFCURVE",
"545 1432 OFFCURVE",
"391 1432 CURVE SMOOTH",
"238 1432 OFFCURVE",
"68 1327 OFFCURVE",
"68 1081 CURVE SMOOTH",
"68 838 OFFCURVE",
"256 733 OFFCURVE",
"391 733 CURVE SMOOTH"
);
},
{
closed = 1;
nodes = (
"1149 55 OFFCURVE",
"1092 141 OFFCURVE",
"1092 330 CURVE SMOOTH",
"1092 530 OFFCURVE",
"1155 606 OFFCURVE",
"1253 606 CURVE SMOOTH",
"1352 606 OFFCURVE",
"1417 530 OFFCURVE",
"1417 330 CURVE SMOOTH",
"1417 141 OFFCURVE",
"1358 55 OFFCURVE",
"1253 55 CURVE SMOOTH"
);
},
{
closed = 1;
nodes = (
"1389 -18 OFFCURVE",
"1579 86 OFFCURVE",
"1579 330 CURVE SMOOTH",
"1579 575 OFFCURVE",
"1407 680 OFFCURVE",
"1253 680 CURVE SMOOTH",
"1100 680 OFFCURVE",
"928 575 OFFCURVE",
"928 330 CURVE SMOOTH",
"928 86 OFFCURVE",
"1118 -18 OFFCURVE",
"1253 -18 CURVE SMOOTH"
);
}
);
width = 1649;
}
);
unicode = 0025;
},
{
glyphname = ampersand;
lastChange = "2017-11-18 12:19:14 +0000";
layers = (
{
layerId = UUID0;
paths = (
{
closed = 1;
nodes = (
"1161 745 LINE",
"1180 754 OFFCURVE",
"1196 758 OFFCURVE",
"1210 758 CURVE SMOOTH",
"1257 758 OFFCURVE",
"1284 715 OFFCURVE",
"1284 651 CURVE SMOOTH",
"1284 543 OFFCURVE",
"1210 373 OFFCURVE",
"1073 227 CURVE",
"1135 156 OFFCURVE",
"1206 76 OFFCURVE",
"1247 41 CURVE",
"1206 -12 OFFCURVE",
"1163 -39 OFFCURVE",
"1118 -39 CURVE SMOOTH",
"1073 -39 OFFCURVE",
"1028 -14 OFFCURVE",
"987 35 CURVE SMOOTH",
"930 102 LINE",
"819 16 OFFCURVE",
"694 -39 OFFCURVE",
"551 -39 CURVE SMOOTH",
"289 -39 OFFCURVE",
"66 92 OFFCURVE",
"66 360 CURVE SMOOTH",
"66 553 OFFCURVE",
"217 655 OFFCURVE",
"391 748 CURVE",
"299 858 LINE SMOOTH",
"231 940 OFFCURVE",
"203 1024 OFFCURVE",
"203 1098 CURVE SMOOTH",
"203 1296 OFFCURVE",
"401 1450 OFFCURVE",
"614 1450 CURVE SMOOTH",
"838 1450 OFFCURVE",
"975 1319 OFFCURVE",
"975 1122 CURVE SMOOTH",
"975 938 OFFCURVE",
"831 848 OFFCURVE",
"641 743 CURVE",
"752 614 OFFCURVE",
"879 457 OFFCURVE",
"991 322 CURVE",
"1034 393 OFFCURVE",
"1055 481 OFFCURVE",
"1055 563 CURVE SMOOTH",
"1055 608 OFFCURVE",
"1049 651 OFFCURVE",
"1036 690 CURVE"
);
},
{
closed = 1;
nodes = (
"678 90 OFFCURVE",
"776 127 OFFCURVE",
"860 186 CURVE",
"475 647 LINE",
"346 563 OFFCURVE",
"256 477 OFFCURVE",
"256 371 CURVE SMOOTH",
"256 188 OFFCURVE",
"414 90 OFFCURVE",
"561 90 CURVE SMOOTH"
);
},
{
closed = 1;
nodes = (
"575 842 LINE",
"709 913 OFFCURVE",
"821 997 OFFCURVE",
"821 1130 CURVE SMOOTH",
"821 1241 OFFCURVE",
"723 1333 OFFCURVE",
"602 1333 CURVE SMOOTH",
"487 1333 OFFCURVE",
"371 1251 OFFCURVE",
"371 1126 CURVE SMOOTH",
"371 1053 OFFCURVE",
"430 981 OFFCURVE",
"561 834 CURVE"
);
}
);
width = 1343;
}
);
unicode = 0026;
},
{
glyphname = quotesingle;
lastChange = "2017-11-18 12:19:14 +0000";
layers = (
{
layerId = UUID0;
paths = (
{
closed = 1;
nodes = (
"289 1331 LINE",
"289 1343 LINE SMOOTH",
"289 1393 OFFCURVE",
"264 1413 OFFCURVE",
"209 1413 CURVE SMOOTH",
"82 1413 LINE",
"111 979 LINE SMOOTH",
"115 922 OFFCURVE",
"129 897 OFFCURVE",
"188 897 CURVE SMOOTH",
"258 897 LINE"
);
}
);
width = 371;
}
);
leftKerningGroup = quotesingle;
rightKerningGroup = quotesingle;
unicode = 0027;
},
{
glyphname = parenleft;
lastChange = "2017-11-18 12:19:14 +0000";
layers = (
{
layerId = UUID0;
paths = (
{
closed = 1;
nodes = (
"324 1128 OFFCURVE",
"553 1466 OFFCURVE",
"553 1466 CURVE",
"514 1501 LINE SMOOTH",
"506 1507 OFFCURVE",
"498 1509 OFFCURVE",
"487 1509 CURVE SMOOTH",
"463 1509 OFFCURVE",
"430 1493 OFFCURVE",
"399 1454 CURVE SMOOTH",
"393 1454 OFFCURVE",
"125 1157 OFFCURVE",
"125 639 CURVE SMOOTH",
"125 137 OFFCURVE",
"399 -152 OFFCURVE",
"399 -152 CURVE SMOOTH",
"430 -190 OFFCURVE",
"463 -209 OFFCURVE",
"487 -209 CURVE SMOOTH",
"498 -209 OFFCURVE",
"506 -205 OFFCURVE",
"514 -199 CURVE SMOOTH",
"553 -164 LINE",
"553 -164 OFFCURVE",
"324 174 OFFCURVE",
"319 651 CURVE"
);
}
);
width = 676;
}
);
unicode = 0028;
},
{
glyphname = parenright;
lastChange = "2017-11-18 12:19:14 +0000";
layers = (
{
layerId = UUID0;
paths = (
{
closed = 1;
nodes = (
"352 174 OFFCURVE",
"123 -164 OFFCURVE",
"123 -164 CURVE",
"162 -199 LINE SMOOTH",
"168 -205 OFFCURVE",
"178 -209 OFFCURVE",
"188 -209 CURVE SMOOTH",
"213 -209 OFFCURVE",
"244 -190 OFFCURVE",
"276 -152 CURVE",
"283 -152 OFFCURVE",
"551 145 OFFCURVE",
"551 662 CURVE SMOOTH",
"551 1165 OFFCURVE",
"276 1454 OFFCURVE",
"276 1454 CURVE",
"244 1493 OFFCURVE",
"213 1509 OFFCURVE",
"188 1509 CURVE SMOOTH",
"178 1509 OFFCURVE",
"168 1507 OFFCURVE",
"162 1501 CURVE SMOOTH",
"123 1466 LINE",
"123 1466 OFFCURVE",
"352 1128 OFFCURVE",
"356 651 CURVE"
);
}
);
width = 676;
}
);
unicode = 0029;
},
{
glyphname = asterisk;
lastChange = "2017-11-18 12:19:14 +0000";
layers = (
{
layerId = UUID0;
paths = (
{
closed = 1;
nodes = (
"211 1278 LINE",
"197 1290 OFFCURVE",
"180 1292 OFFCURVE",
"168 1292 CURVE SMOOTH",
"152 1292 OFFCURVE",
"135 1282 OFFCURVE",
"121 1257 CURVE SMOOTH",
"70 1167 LINE",
"350 1051 LINE",
"123 948 LINE SMOOTH",
"94 936 OFFCURVE",
"84 918 OFFCURVE",
"84 901 CURVE SMOOTH",
"84 889 OFFCURVE",
"92 874 OFFCURVE",
"102 858 CURVE SMOOTH",
"158 770 LINE",
"391 971 LINE",
"391 971 OFFCURVE",
"356 745 OFFCURVE",
"356 709 CURVE",
"356 672 OFFCURVE",
"379 657 OFFCURVE",
"422 657 CURVE SMOOTH",
"524 657 LINE",
"485 969 LINE",
"653 795 LINE SMOOTH",
"668 778 OFFCURVE",
"682 772 OFFCURVE",
"698 772 CURVE SMOOTH",
"715 772 OFFCURVE",
"729 782 OFFCURVE",
"743 801 CURVE SMOOTH",
"809 885 LINE",
"535 1053 LINE",
"756 1139 LINE SMOOTH",
"782 1149 OFFCURVE",
"793 1169 OFFCURVE",
"793 1188 CURVE SMOOTH",
"793 1200 OFFCURVE",
"788 1212 OFFCURVE",
"778 1229 CURVE SMOOTH",
"725 1317 LINE",
"489 1130 LINE",
"522 1362 LINE SMOOTH",
"528 1409 OFFCURVE",
"504 1427 OFFCURVE",
"457 1427 CURVE SMOOTH",
"354 1427 LINE",
"391 1133 LINE"
);
}
);
width = 879;
}
);
unicode = 002A;
},
{
glyphname = plus;
lastChange = "2017-11-18 12:19:14 +0000";
layers = (
{
layerId = UUID0;
paths = (
{
closed = 1;
nodes = (
"664 1022 LINE",
"664 1079 OFFCURVE",
"643 1104 OFFCURVE",
"584 1104 CURVE SMOOTH",
"522 1104 LINE",
"522 705 LINE",
"205 705 LINE SMOOTH",
"147 705 OFFCURVE",
"123 686 OFFCURVE",
"123 627 CURVE SMOOTH",
"123 563 LINE",
"522 563 LINE",
"522 244 LINE SMOOTH",
"522 186 OFFCURVE",
"541 162 OFFCURVE",
"600 162 CURVE SMOOTH",
"664 162 LINE",
"664 563 LINE",
"983 563 LINE SMOOTH",
"1040 563 OFFCURVE",
"1065 584 OFFCURVE",
"1065 643 CURVE SMOOTH",
"1065 705 LINE",
"664 705 LINE"
);
}
);
width = 1188;
}
);
unicode = 002B;
},
{
glyphname = comma;
lastChange = "2017-11-18 12:19:14 +0000";
layers = (
{
layerId = UUID0;
paths = (
{
closed = 1;
nodes = (
"463 178 OFFCURVE",
"414 240 OFFCURVE",
"326 240 CURVE SMOOTH",
"240 240 OFFCURVE",
"180 178 OFFCURVE",
"180 102 CURVE SMOOTH",
"180 23 OFFCURVE",
"240 -39 OFFCURVE",
"326 -39 CURVE SMOOTH",
"330 -39 OFFCURVE",
"336 -39 OFFCURVE",
"338 -37 CURVE",
"319 -121 OFFCURVE",
"276 -207 OFFCURVE",
"213 -246 CURVE",
"213 -301 LINE SMOOTH",
"213 -326 OFFCURVE",
"225 -332 OFFCURVE",
"238 -332 CURVE SMOOTH",
"244 -332 OFFCURVE",
"252 -330 OFFCURVE",
"256 -328 CURVE SMOOTH",
"420 -268 OFFCURVE",
"483 -96 OFFCURVE",
"483 37 CURVE SMOOTH",
"483 59 OFFCURVE",
"481 82 OFFCURVE",
"477 102 CURVE SMOOTH"
);
}
);
width = 623;
}
);
leftKerningGroup = period;
rightKerningGroup = period;
unicode = 002C;
},
{
glyphname = hyphen;
lastChange = "2017-11-18 12:19:14 +0000";
layers = (
{
layerId = UUID0;
paths = (
{
closed = 1;
nodes = (
"608 551 LINE",
"666 551 OFFCURVE",
"690 571 OFFCURVE",
"690 631 CURVE SMOOTH",
"690 692 LINE",
"184 692 LINE SMOOTH",
"127 692 OFFCURVE",
"102 674 OFFCURVE",
"102 614 CURVE SMOOTH",
"102 551 LINE"
);
}
);
width = 793;
}
);
leftKerningGroup = hyphen;
rightKerningGroup = hyphen;
unicode = 002D;
},
{
glyphname = period;
lastChange = "2017-11-18 12:19:14 +0000";
layers = (
{
layerId = UUID0;
paths = (
{
closed = 1;
nodes = (
"414 240 OFFCURVE",
"475 178 OFFCURVE",
"475 102 CURVE SMOOTH",
"475 23 OFFCURVE",
"414 -39 OFFCURVE",
"326 -39 CURVE SMOOTH",
"240 -39 OFFCURVE",
"180 23 OFFCURVE",
"180 102 CURVE SMOOTH",
"180 178 OFFCURVE",
"240 240 OFFCURVE",
"326 240 CURVE SMOOTH"
);
}
);
width = 614;
}
);
leftKerningGroup = period;
rightKerningGroup = period;
unicode = 002E;
},
{
glyphname = slash;
lastChange = "2017-11-18 12:19:14 +0000";
layers = (
{
layerId = UUID0;
paths = (
{
closed = 1;
nodes = (
"1012 1454 LINE",
"1018 1468 OFFCURVE",
"1020 1481 OFFCURVE",
"1020 1489 CURVE SMOOTH",
"1020 1526 OFFCURVE",
"983 1536 OFFCURVE",
"932 1536 CURVE SMOOTH",
"864 1536 LINE",
"131 -164 LINE SMOOTH",
"125 -176 OFFCURVE",
"123 -186 OFFCURVE",
"123 -195 CURVE SMOOTH",
"123 -229 OFFCURVE",
"158 -246 OFFCURVE",
"209 -246 CURVE SMOOTH",
"279 -246 LINE"
);
}
);
width = 1022;
}
);
unicode = 002F;
},
{
glyphname = zero;
lastChange = "2017-11-18 12:19:14 +0000";
layers = (
{
layerId = UUID0;
paths = (
{
closed = 1;
nodes = (
"449 92 OFFCURVE",
"360 356 OFFCURVE",
"360 696 CURVE SMOOTH",
"360 1057 OFFCURVE",
"449 1319 OFFCURVE",
"694 1319 CURVE SMOOTH",
"940 1319 OFFCURVE",
"1028 1057 OFFCURVE",
"1028 696 CURVE SMOOTH",
"1028 356 OFFCURVE",
"940 92 OFFCURVE",
"694 92 CURVE SMOOTH"
);
},
{
closed = 1;
nodes = (
"1040 -39 OFFCURVE",
"1255 258 OFFCURVE",
"1255 696 CURVE SMOOTH",
"1255 1135 OFFCURVE",
"1061 1450 OFFCURVE",
"694 1450 CURVE SMOOTH",
"328 1450 OFFCURVE",
"133 1135 OFFCURVE",
"133 696 CURVE SMOOTH",
"133 258 OFFCURVE",
"348 -39 OFFCURVE",
"694 -39 CURVE SMOOTH"
);
}
);
width = 1389;
}
);
unicode = 0030;
},
{
glyphname = one;
lastChange = "2017-11-18 12:19:14 +0000";
layers = (
{
layerId = UUID0;
paths = (
{
closed = 1;
nodes = (
"537 1360 LINE",
"537 1409 OFFCURVE",
"528 1432 OFFCURVE",
"467 1432 CURVE SMOOTH",
"332 1432 OFFCURVE",
"133 1339 OFFCURVE",
"41 1278 CURVE",
"74 1194 LINE",
"330 1286 LINE",
"330 82 LINE SMOOTH",
"330 6 OFFCURVE",
"379 -18 OFFCURVE",
"449 -18 CURVE SMOOTH",
"487 -18 OFFCURVE",
"528 -6 OFFCURVE",
"567 16 CURVE",
"559 55 OFFCURVE",
"537 145 OFFCURVE",
"537 315 CURVE SMOOTH"
);
}
);
width = 772;
}
);
unicode = 0031;
},
{
glyphname = two;
lastChange = "2017-11-18 12:19:14 +0000";
layers = (
{
layerId = UUID0;
paths = (
{
closed = 1;
nodes = (
"995 1255 OFFCURVE",
"856 1450 OFFCURVE",
"524 1450 CURVE SMOOTH",
"362 1450 OFFCURVE",
"90 1368 OFFCURVE",
"90 1276 CURVE SMOOTH",
"90 1264 OFFCURVE",
"94 1253 OFFCURVE",
"102 1241 CURVE SMOOTH",
"180 1135 LINE",
"287 1214 OFFCURVE",
"428 1321 OFFCURVE",
"565 1321 CURVE SMOOTH",
"702 1321 OFFCURVE",
"780 1212 OFFCURVE",
"780 1071 CURVE SMOOTH",
"780 969 OFFCURVE",
"739 856 OFFCURVE",
"655 748 CURVE SMOOTH",
"575 641 OFFCURVE",
"43 80 OFFCURVE",
"43 86 CURVE SMOOTH",
"43 29 OFFCURVE",
"59 6 OFFCURVE",
"121 0 CURVE SMOOTH",
"188 -6 OFFCURVE",
"397 -12 OFFCURVE",
"594 -12 CURVE SMOOTH",
"954 -12 OFFCURVE",
"1069 -18 OFFCURVE",
"1069 106 CURVE SMOOTH",
"1069 156 OFFCURVE",
"1044 225 OFFCURVE",
"1044 225 CURVE",
"872 170 OFFCURVE",
"643 119 OFFCURVE",
"465 119 CURVE SMOOTH",
"276 119 LINE",
"516 334 OFFCURVE",
"995 672 OFFCURVE",
"995 1047 CURVE SMOOTH"
);
}
);
width = 1151;
}
);
unicode = 0032;
},
{
glyphname = three;
lastChange = "2017-11-18 12:19:14 +0000";
layers = (
{
layerId = UUID0;
paths = (
{
closed = 1;
nodes = (
"555 1300 LINE",
"270 1300 OFFCURVE",
"150 1180 OFFCURVE",
"150 1180 CURVE",
"145 1188 OFFCURVE",
"74 1296 OFFCURVE",
"74 1329 CURVE SMOOTH",
"74 1415 OFFCURVE",
"344 1430 OFFCURVE",
"528 1430 CURVE SMOOTH",
"645 1430 OFFCURVE",
"750 1423 OFFCURVE",
"881 1415 CURVE SMOOTH",
"985 1409 OFFCURVE",
"983 1366 OFFCURVE",
"985 1305 CURVE",
"909 1042 OFFCURVE",
"590 813 OFFCURVE",
"573 803 CURVE",
"842 766 OFFCURVE",
"1034 641 OFFCURVE",
"1034 379 CURVE SMOOTH",
"1034 119 OFFCURVE",
"817 -37 OFFCURVE",
"532 -37 CURVE SMOOTH",
"350 -37 OFFCURVE",
"61 35 OFFCURVE",
"61 137 CURVE SMOOTH",
"61 150 OFFCURVE",
"66 164 OFFCURVE",
"76 182 CURVE SMOOTH",
"139 291 LINE",
"264 205 OFFCURVE",
"412 94 OFFCURVE",
"555 94 CURVE SMOOTH",
"729 94 OFFCURVE",
"836 236 OFFCURVE",
"836 397 CURVE SMOOTH",
"836 616 OFFCURVE",
"602 696 OFFCURVE",
"348 690 CURVE",
"348 748 LINE SMOOTH",
"348 791 OFFCURVE",
"369 795 OFFCURVE",
"375 801 CURVE",
"551 903 OFFCURVE",
"754 1137 OFFCURVE",
"784 1300 CURVE"
);
}
);
width = 1157;
}
);
unicode = 0033;
},
{
glyphname = four;
lastChange = "2017-11-18 12:19:14 +0000";
layers = (
{
layerId = UUID0;
paths = (
{
closed = 1;
nodes = (
"831 -16 OFFCURVE",
"838 -18 OFFCURVE",
"844 -18 CURVE SMOOTH",
"883 -18 OFFCURVE",
"924 -6 OFFCURVE",
"963 16 CURVE",
"954 55 OFFCURVE",
"932 135 OFFCURVE",
"932 305 CURVE SMOOTH",
"932 365 LINE",
"1112 365 LINE SMOOTH",
"1169 365 OFFCURVE",
"1194 385 OFFCURVE",
"1194 444 CURVE SMOOTH",
"1194 487 LINE",
"932 487 LINE",
"932 1360 LINE SMOOTH",
"932 1405 OFFCURVE",
"907 1432 OFFCURVE",
"852 1432 CURVE SMOOTH",
"838 1432 OFFCURVE",
"799 1432 OFFCURVE",
"776 1427 CURVE",
"719 1397 OFFCURVE",
"88 455 OFFCURVE",
"88 455 CURVE SMOOTH",
"82 446 OFFCURVE",
"76 430 OFFCURVE",
"76 414 CURVE SMOOTH",
"76 387 OFFCURVE",
"90 365 OFFCURVE",
"147 365 CURVE SMOOTH",
"725 365 LINE",
"725 82 LINE SMOOTH",
"725 14 OFFCURVE",
"766 -12 OFFCURVE",
"825 -16 CURVE SMOOTH"
);
},
{
closed = 1;
nodes = (
"283 487 LINE",
"276 492 LINE",
"721 1141 LINE",
"725 1124 LINE",
"725 487 LINE"
);
}
);
width = 1235;
}
);
unicode = 0034;
},
{
glyphname = five;
lastChange = "2017-11-18 12:19:14 +0000";
layers = (
{
layerId = UUID0;
paths = (
{
closed = 1;
nodes = (
"401 1298 LINE",
"401 1298 OFFCURVE",
"655 1251 OFFCURVE",
"825 1251 CURVE SMOOTH",
"961 1251 OFFCURVE",
"1028 1268 OFFCURVE",
"1028 1325 CURVE SMOOTH",
"1028 1360 OFFCURVE",
"1018 1403 OFFCURVE",
"1014 1442 CURVE SMOOTH",
"735 1401 OFFCURVE",
"498 1413 OFFCURVE",
"319 1413 CURVE SMOOTH",
"223 1413 OFFCURVE",
"223 1364 OFFCURVE",
"221 1343 CURVE",
"221 723 LINE",
"223 719 OFFCURVE",
"250 690 OFFCURVE",
"250 690 CURVE",
"322 702 OFFCURVE",
"387 709 OFFCURVE",
"446 709 CURVE SMOOTH",
"717 709 OFFCURVE",
"854 580 OFFCURVE",
"854 412 CURVE SMOOTH",
"854 324 OFFCURVE",
"807 92 OFFCURVE",
"578 92 CURVE SMOOTH",
"442 92 OFFCURVE",
"229 260 OFFCURVE",
"147 307 CURVE",
"74 182 LINE SMOOTH",
"66 166 OFFCURVE",
"61 154 OFFCURVE",
"61 141 CURVE SMOOTH",
"61 43 OFFCURVE",
"401 -37 OFFCURVE",
"551 -37 CURVE SMOOTH",
"834 -37 OFFCURVE",
"1053 139 OFFCURVE",
"1053 418 CURVE SMOOTH",
"1053 653 OFFCURVE",
"854 838 OFFCURVE",
"565 838 CURVE SMOOTH",
"512 838 OFFCURVE",
"459 831 OFFCURVE",
"401 819 CURVE"
);
}
);
width = 1176;
}
);
unicode = 0035;
},
{
glyphname = six;
lastChange = "2017-11-18 12:19:14 +0000";
layers = (
{
layerId = UUID0;
paths = (
{
closed = 1;
nodes = (
"356 514 OFFCURVE",
"569 731 OFFCURVE",
"719 731 CURVE SMOOTH",
"834 731 OFFCURVE",
"915 633 OFFCURVE",
"915 442 CURVE SMOOTH",
"915 223 OFFCURVE",
"807 92 OFFCURVE",
"647 92 CURVE SMOOTH",
"397 92 OFFCURVE",
"350 373 OFFCURVE",
"350 504 CURVE"
);
},
{
closed = 1;
nodes = (
"158 1026 OFFCURVE",
"133 813 OFFCURVE",
"133 639 CURVE SMOOTH",
"133 246 OFFCURVE",
"274 -39 OFFCURVE",
"637 -39 CURVE SMOOTH",
"971 -39 OFFCURVE",
"1126 213 OFFCURVE",
"1126 436 CURVE SMOOTH",
"1126 651 OFFCURVE",
"987 864 OFFCURVE",
"739 864 CURVE SMOOTH",
"641 864 OFFCURVE",
"514 834 OFFCURVE",
"342 635 CURVE",
"340 657 OFFCURVE",
"340 682 OFFCURVE",
"340 709 CURVE SMOOTH",
"340 967 OFFCURVE",
"442 1311 OFFCURVE",
"674 1311 CURVE SMOOTH",
"745 1311 OFFCURVE",
"825 1278 OFFCURVE",
"915 1204 CURVE",
"993 1346 LINE SMOOTH",
"997 1352 OFFCURVE",
"999 1360 OFFCURVE",
"999 1366 CURVE SMOOTH",
"999 1436 OFFCURVE",
"813 1450 OFFCURVE",
"741 1450 CURVE SMOOTH",
"528 1450 OFFCURVE",
"336 1350 OFFCURVE",
"233 1163 CURVE SMOOTH"
);
}
);
width = 1229;
}
);
unicode = 0036;
},
{
glyphname = seven;
lastChange = "2017-11-18 12:19:14 +0000";
layers = (
{
layerId = UUID0;
paths = (
{
closed = 1;
nodes = (
"516 168 LINE",
"492 121 OFFCURVE",
"459 35 OFFCURVE",
"457 0 CURVE",
"432 -14 OFFCURVE",
"377 -18 OFFCURVE",
"342 -18 CURVE SMOOTH",
"301 -18 OFFCURVE",
"254 -8 OFFCURVE",
"254 41 CURVE SMOOTH",
"254 51 OFFCURVE",
"258 63 OFFCURVE",
"264 76 CURVE SMOOTH",
"788 1298 LINE",
"559 1296 LINE SMOOTH",
"274 1294 OFFCURVE",
"96 1178 OFFCURVE",
"96 1176 CURVE SMOOTH",
"92 1184 OFFCURVE",
"20 1292 OFFCURVE",
"20 1325 CURVE SMOOTH",
"20 1413 OFFCURVE",
"307 1425 OFFCURVE",
"516 1425 CURVE SMOOTH",
"641 1425 OFFCURVE",
"774 1419 OFFCURVE",
"905 1411 CURVE SMOOTH",
"1010 1405 OFFCURVE",
"1008 1362 OFFCURVE",
"1010 1341 CURVE",
"1010 1300 LINE"
);
}
);
width = 1051;
}
);
unicode = 0037;
},
{
glyphname = eight;
lastChange = "2017-11-18 12:19:14 +0000";
layers = (
{
layerId = UUID0;
paths = (
{
closed = 1;
nodes = (
"1069 1325 OFFCURVE",
"860 1450 OFFCURVE",
"625 1450 CURVE SMOOTH",
"377 1450 OFFCURVE",
"170 1325 OFFCURVE",
"170 1096 CURVE SMOOTH",
"170 973 OFFCURVE",
"223 846 OFFCURVE",
"440 725 CURVE",
"285 633 OFFCURVE",
"164 502 OFFCURVE",
"164 291 CURVE SMOOTH",
"164 66 OFFCURVE",
"401 -39 OFFCURVE",
"625 -39 CURVE SMOOTH",
"866 -39 OFFCURVE",
"1124 68 OFFCURVE",
"1124 356 CURVE SMOOTH",
"1124 551 OFFCURVE",
"983 641 OFFCURVE",
"815 733 CURVE",
"958 821 OFFCURVE",
"1069 950 OFFCURVE",
"1069 1096 CURVE SMOOTH"
);
},
{
closed = 1;
nodes = (
"481 92 OFFCURVE",
"350 172 OFFCURVE",
"350 332 CURVE SMOOTH",
"350 463 OFFCURVE",
"440 573 OFFCURVE",
"565 657 CURVE",
"694 588 OFFCURVE",
"913 475 OFFCURVE",
"913 328 CURVE SMOOTH",
"913 168 OFFCURVE",
"778 92 OFFCURVE",
"625 92 CURVE SMOOTH"
);
},
{
closed = 1;
nodes = (
"879 975 OFFCURVE",
"803 866 OFFCURVE",
"692 797 CURVE",
"549 872 OFFCURVE",
"371 979 OFFCURVE",
"371 1098 CURVE SMOOTH",
"371 1243 OFFCURVE",
"483 1319 OFFCURVE",
"625 1319 CURVE SMOOTH",
"764 1319 OFFCURVE",
"879 1245 OFFCURVE",
"879 1096 CURVE SMOOTH"
);
}
);
width = 1288;
}
);
unicode = 0038;
},
{
glyphname = nine;
lastChange = "2017-11-18 12:19:14 +0000";
layers = (
{
layerId = UUID0;
paths = (
{
closed = 1;
nodes = (
"874 858 OFFCURVE",
"655 678 OFFCURVE",
"510 678 CURVE SMOOTH",
"395 678 OFFCURVE",
"313 776 OFFCURVE",
"313 969 CURVE SMOOTH",
"313 1188 OFFCURVE",
"422 1319 OFFCURVE",
"582 1319 CURVE SMOOTH",
"809 1319 OFFCURVE",
"883 1124 OFFCURVE",
"883 938 CURVE SMOOTH",
"883 911 OFFCURVE",
"881 887 OFFCURVE",
"879 864 CURVE"
);
},
{
closed = 1;
nodes = (
"1063 401 OFFCURVE",
"1094 616 OFFCURVE",
"1094 801 CURVE SMOOTH",
"1094 1178 OFFCURVE",
"940 1450 OFFCURVE",
"592 1450 CURVE SMOOTH",
"258 1450 OFFCURVE",
"102 1196 OFFCURVE",
"102 975 CURVE SMOOTH",
"102 760 OFFCURVE",
"242 545 OFFCURVE",
"489 545 CURVE SMOOTH",
"567 545 OFFCURVE",
"719 545 OFFCURVE",
"885 733 CURVE",
"881 471 OFFCURVE",
"797 100 OFFCURVE",
"541 100 CURVE SMOOTH",
"463 100 OFFCURVE",
"360 133 OFFCURVE",
"270 207 CURVE",
"193 66 LINE SMOOTH",
"188 57 OFFCURVE",
"186 51 OFFCURVE",
"186 45 CURVE SMOOTH",
"186 -25 OFFCURVE",
"371 -39 OFFCURVE",
"449 -39 CURVE SMOOTH",
"668 -39 OFFCURVE",
"881 72 OFFCURVE",
"983 258 CURVE SMOOTH"
);
}
);
width = 1227;
}
);
unicode = 0039;
},
{
glyphname = colon;
lastChange = "2017-11-18 12:19:14 +0000";
layers = (
{
layerId = UUID0;
paths = (
{
closed = 1;
nodes = (
"414 240 OFFCURVE",
"475 178 OFFCURVE",
"475 102 CURVE SMOOTH",
"475 23 OFFCURVE",
"414 -39 OFFCURVE",
"326 -39 CURVE SMOOTH",
"240 -39 OFFCURVE",
"180 23 OFFCURVE",
"180 102 CURVE SMOOTH",
"180 178 OFFCURVE",
"240 240 OFFCURVE",
"326 240 CURVE SMOOTH"
);
},
{
closed = 1;
nodes = (
"414 1055 OFFCURVE",
"475 993 OFFCURVE",
"475 918 CURVE SMOOTH",
"475 838 OFFCURVE",
"414 776 OFFCURVE",
"326 776 CURVE SMOOTH",
"240 776 OFFCURVE",
"180 838 OFFCURVE",
"180 918 CURVE SMOOTH",
"180 993 OFFCURVE",
"240 1055 OFFCURVE",
"326 1055 CURVE SMOOTH"
);
}
);
width = 614;
}
);
unicode = 003A;
},
{
glyphname = semicolon;
lastChange = "2017-11-18 12:19:14 +0000";
layers = (
{
layerId = UUID0;
paths = (
{
closed = 1;
nodes = (
"414 1055 OFFCURVE",
"475 993 OFFCURVE",
"475 918 CURVE SMOOTH",
"475 838 OFFCURVE",
"414 776 OFFCURVE",
"326 776 CURVE SMOOTH",
"240 776 OFFCURVE",
"180 838 OFFCURVE",
"180 918 CURVE SMOOTH",
"180 993 OFFCURVE",
"240 1055 OFFCURVE",
"326 1055 CURVE SMOOTH"
);
},
{
closed = 1;
nodes = (
"463 178 OFFCURVE",
"414 240 OFFCURVE",
"326 240 CURVE SMOOTH",
"240 240 OFFCURVE",
"180 178 OFFCURVE",
"180 102 CURVE SMOOTH",
"180 23 OFFCURVE",
"240 -39 OFFCURVE",
"326 -39 CURVE SMOOTH",
"330 -39 OFFCURVE",
"336 -39 OFFCURVE",
"338 -37 CURVE",
"319 -121 OFFCURVE",
"276 -207 OFFCURVE",
"213 -246 CURVE",
"213 -301 LINE SMOOTH",
"213 -326 OFFCURVE",
"225 -332 OFFCURVE",
"238 -332 CURVE SMOOTH",
"244 -332 OFFCURVE",
"252 -330 OFFCURVE",
"256 -328 CURVE SMOOTH",
"420 -268 OFFCURVE",
"483 -96 OFFCURVE",
"483 37 CURVE SMOOTH",
"483 59 OFFCURVE",
"481 82 OFFCURVE",
"477 102 CURVE SMOOTH"
);
}
);
width = 623;
}
);
unicode = 003B;
},
{
glyphname = less;
lastChange = "2017-11-18 12:19:14 +0000";
layers = (
{
layerId = UUID0;
paths = (
{
closed = 1;
nodes = (
"170 651 LINE",
"162 645 OFFCURVE",
"125 633 OFFCURVE",
"125 582 CURVE SMOOTH",
"125 520 LINE",
"1098 74 LINE SMOOTH",
"1116 66 OFFCURVE",
"1130 59 OFFCURVE",
"1145 59 CURVE SMOOTH",
"1169 59 OFFCURVE",
"1188 76 OFFCURVE",
"1204 111 CURVE SMOOTH",
"1233 176 LINE",
"358 573 LINE",
"358 578 LINE",
"1237 973 LINE",
"1204 1040 LINE SMOOTH",
"1188 1073 OFFCURVE",
"1169 1090 OFFCURVE",
"1145 1090 CURVE SMOOTH",
"1130 1090 OFFCURVE",
"1116 1085 OFFCURVE",
"1098 1077 CURVE SMOOTH"
);
}
);
width = 1358;
}
);
unicode = 003C;
},
{
glyphname = equal;
lastChange = "2017-11-18 12:19:14 +0000";
layers = (
{
layerId = UUID0;
paths = (
{
closed = 1;
nodes = (
"983 748 LINE",
"1040 748 OFFCURVE",
"1065 768 OFFCURVE",
"1065 827 CURVE SMOOTH",
"1065 889 LINE",
"205 889 LINE SMOOTH",
"147 889 OFFCURVE",
"123 870 OFFCURVE",
"123 811 CURVE SMOOTH",
"123 748 LINE"
);
},
{
closed = 1;
nodes = (
"983 379 LINE",
"1040 379 OFFCURVE",
"1065 399 OFFCURVE",
"1065 459 CURVE SMOOTH",
"1065 520 LINE",
"205 520 LINE SMOOTH",
"147 520 OFFCURVE",
"123 502 OFFCURVE",
"123 442 CURVE SMOOTH",
"123 379 LINE"
);
}
);
width = 1188;
}
);
unicode = 003D;
},
{
glyphname = greater;
lastChange = "2017-11-18 12:19:14 +0000";
layers = (
{
layerId = UUID0;
paths = (
{
closed = 1;
nodes = (
"262 1075 LINE",
"244 1083 OFFCURVE",
"227 1087 OFFCURVE",
"215 1087 CURVE SMOOTH",
"188 1087 OFFCURVE",
"172 1071 OFFCURVE",
"156 1038 CURVE SMOOTH",
"123 971 LINE",
"1001 575 LINE",
"1001 571 LINE",
"127 174 LINE",
"156 109 LINE SMOOTH",
"170 74 OFFCURVE",
"190 57 OFFCURVE",
"215 57 CURVE SMOOTH",
"227 57 OFFCURVE",
"244 63 OFFCURVE",
"262 72 CURVE SMOOTH",
"1235 518 LINE",
"1235 580 LINE SMOOTH",
"1235 631 OFFCURVE",
"1198 643 OFFCURVE",
"1190 649 CURVE"
);
}
);
width = 1360;
}
);
unicode = 003E;
},
{
glyphname = question;
lastChange = "2017-11-18 12:19:14 +0000";
layers = (
{
layerId = UUID0;
paths = (
{
closed = 1;
nodes = (
"481 240 OFFCURVE",
"543 178 OFFCURVE",
"543 102 CURVE SMOOTH",
"543 23 OFFCURVE",
"481 -39 OFFCURVE",
"393 -39 CURVE SMOOTH",
"307 -39 OFFCURVE",
"248 23 OFFCURVE",
"248 102 CURVE SMOOTH",
"248 178 OFFCURVE",
"307 240 OFFCURVE",
"393 240 CURVE SMOOTH"
);
},
{
closed = 1;
nodes = (
"524 385 OFFCURVE",
"545 451 OFFCURVE",
"545 494 CURVE SMOOTH",
"545 508 OFFCURVE",
"424 522 OFFCURVE",
"424 592 CURVE SMOOTH",
"424 623 OFFCURVE",
"446 657 OFFCURVE",
"483 688 CURVE SMOOTH",
"629 805 OFFCURVE",
"834 893 OFFCURVE",
"834 1090 CURVE SMOOTH",
"834 1329 OFFCURVE",
"627 1450 OFFCURVE",
"354 1450 CURVE SMOOTH",
"260 1450 OFFCURVE",
"16 1434 OFFCURVE",
"16 1341 CURVE SMOOTH",
"16 1333 OFFCURVE",
"18 1323 OFFCURVE",
"25 1311 CURVE SMOOTH",
"86 1171 LINE",
"86 1176 OFFCURVE",
"293 1296 OFFCURVE",
"422 1296 CURVE SMOOTH",
"537 1296 OFFCURVE",
"602 1212 OFFCURVE",
"602 1118 CURVE SMOOTH",
"602 868 OFFCURVE",
"240 788 OFFCURVE",
"240 594 CURVE SMOOTH",
"240 471 OFFCURVE",
"360 385 OFFCURVE",
"471 385 CURVE SMOOTH"
);
}
);
width = 975;
}
);
unicode = 003F;
},
{
glyphname = at;
lastChange = "2017-11-18 12:19:14 +0000";
layers = (
{
layerId = UUID0;
paths = (
{
closed = 1;
nodes = (
"492 1450 OFFCURVE",
"94 1085 OFFCURVE",
"94 590 CURVE SMOOTH",
"94 35 OFFCURVE",
"512 -274 OFFCURVE",
"969 -274 CURVE SMOOTH",
"1182 -274 OFFCURVE",
"1405 -207 OFFCURVE",
"1604 -68 CURVE",
"1556 6 LINE",
"1382 -111 OFFCURVE",
"1188 -168 OFFCURVE",
"1001 -168 CURVE SMOOTH",
"623 -168 OFFCURVE",
"262 82 OFFCURVE",
"262 590 CURVE SMOOTH",
"262 1065 OFFCURVE",
"643 1335 OFFCURVE",
"1006 1335 CURVE SMOOTH",
"1362 1335 OFFCURVE",
"1645 1124 OFFCURVE",
"1645 723 CURVE SMOOTH",
"1645 424 OFFCURVE",
"1481 274 OFFCURVE",
"1378 274 CURVE SMOOTH",
"1280 274 OFFCURVE",
"1255 348 OFFCURVE",
"1255 426 CURVE SMOOTH",
"1255 465 OFFCURVE",
"1262 506 OFFCURVE",
"1268 539 CURVE SMOOTH",
"1354 967 LINE SMOOTH",
"1356 975 OFFCURVE",
"1356 981 OFFCURVE",
"1356 989 CURVE SMOOTH",
"1356 1081 OFFCURVE",
"1223 1098 OFFCURVE",
"1223 1098 CURVE",
"1206 1024 LINE",
"1178 1051 OFFCURVE",
"1118 1075 OFFCURVE",
"1051 1075 CURVE SMOOTH",
"678 1075 OFFCURVE",
"532 721 OFFCURVE",
"532 504 CURVE SMOOTH",
"532 268 OFFCURVE",
"680 156 OFFCURVE",
"842 156 CURVE SMOOTH",
"975 156 OFFCURVE",
"1063 236 OFFCURVE",
"1116 342 CURVE",
"1126 342 LINE",
"1165 225 OFFCURVE",
"1243 156 OFFCURVE",
"1366 156 CURVE SMOOTH",
"1540 156 OFFCURVE",
"1778 365 OFFCURVE",
"1778 717 CURVE SMOOTH",
"1778 1178 OFFCURVE",
"1444 1450 OFFCURVE",
"1010 1450 CURVE SMOOTH"
);
},
{
closed = 1;
nodes = (
"725 657 OFFCURVE",
"829 991 OFFCURVE",
"1059 991 CURVE SMOOTH",
"1108 991 OFFCURVE",
"1163 963 OFFCURVE",
"1180 924 CURVE",
"1096 518 LINE",
"1073 393 OFFCURVE",
"1014 264 OFFCURVE",
"877 264 CURVE SMOOTH",
"797 264 OFFCURVE",
"725 326 OFFCURVE",
"725 485 CURVE SMOOTH"
);
}
);
width = 1876;
}
);
unicode = 0040;
},
{
glyphname = A;
lastChange = "2017-11-18 12:19:14 +0000";
layers = (
{
layerId = UUID0;
paths = (
{
closed = 1;
nodes = (
"1151 33 LINE",
"1169 -10 OFFCURVE",
"1200 -25 OFFCURVE",
"1237 -25 CURVE SMOOTH",
"1352 -25 OFFCURVE",
"1499 96 OFFCURVE",
"1565 158 CURVE",
"1532 229 LINE",
"1356 160 LINE",
"895 1331 LINE SMOOTH",
"868 1397 OFFCURVE",
"842 1413 OFFCURVE",
"776 1413 CURVE SMOOTH",
"674 1413 LINE",
"674 1415 OFFCURVE",
"164 457 OFFCURVE",
"117 55 CURVE SMOOTH",
"117 49 OFFCURVE",
"115 45 OFFCURVE",
"115 39 CURVE SMOOTH",
"115 0 OFFCURVE",
"137 -20 OFFCURVE",
"176 -20 CURVE SMOOTH",
"190 -20 OFFCURVE",
"205 -18 OFFCURVE",
"221 -14 CURVE SMOOTH",
"377 29 LINE",
"365 72 OFFCURVE",
"360 119 OFFCURVE",
"360 168 CURVE SMOOTH",
"360 238 OFFCURVE",
"371 311 OFFCURVE",
"391 381 CURVE",
"1001 381 LINE"
);
},
{
closed = 1;
nodes = (
"709 1184 LINE",
"950 518 LINE",
"424 518 LINE",
"469 690 OFFCURVE",
"582 913 OFFCURVE",
"698 1184 CURVE"
);
}
);
width = 1610;
}
);
leftKerningGroup = A;
rightKerningGroup = A;
unicode = 0041;
},
{
glyphname = B;
lastChange = "2017-11-18 12:19:14 +0000";
layers = (
{
layerId = UUID0;
paths = (
{
closed = 1;
nodes = (
"516 1430 OFFCURVE",
"225 1397 OFFCURVE",
"102 1346 CURVE",
"102 1257 LINE",
"295 1272 LINE",
"295 88 LINE SMOOTH",
"295 31 OFFCURVE",
"313 8 OFFCURVE",
"373 2 CURVE SMOOTH",
"496 -12 OFFCURVE",
"610 -18 OFFCURVE",
"745 -18 CURVE SMOOTH",
"1085 -18 OFFCURVE",
"1350 63 OFFCURVE",
"1350 381 CURVE SMOOTH",
"1350 559 OFFCURVE",
"1268 692 OFFCURVE",
"1042 715 CURVE",
"1251 743 OFFCURVE",
"1313 930 OFFCURVE",
"1313 1030 CURVE SMOOTH",
"1313 1331 OFFCURVE",
"1100 1432 OFFCURVE",
"784 1432 CURVE"
);
},
{
closed = 1;
nodes = (
"1036 627 OFFCURVE",
"1112 522 OFFCURVE",
"1112 365 CURVE SMOOTH",
"1112 250 OFFCURVE",
"1059 111 OFFCURVE",
"776 111 CURVE SMOOTH",
"625 111 OFFCURVE",
"537 143 OFFCURVE",
"537 143 CURVE",
"537 637 LINE",
"537 637 OFFCURVE",
"608 641 OFFCURVE",
"700 641 CURVE SMOOTH",
"737 641 OFFCURVE",
"776 641 OFFCURVE",
"817 639 CURVE SMOOTH"
);
},
{
closed = 1;
nodes = (
"997 1292 OFFCURVE",
"1083 1194 OFFCURVE",
"1083 1034 CURVE SMOOTH",
"1083 887 OFFCURVE",
"981 764 OFFCURVE",
"694 764 CURVE SMOOTH",
"651 764 OFFCURVE",
"600 768 OFFCURVE",
"537 780 CURVE",
"537 1282 LINE",
"537 1284 OFFCURVE",
"643 1294 OFFCURVE",
"782 1294 CURVE SMOOTH"
);
}
);
width = 1473;
}
);
leftKerningGroup = I;
rightKerningGroup = B;
unicode = 0042;
},
{
glyphname = C;
lastChange = "2017-11-18 12:19:14 +0000";
layers = (
{
layerId = UUID0;
paths = (
{
closed = 1;
nodes = (
"133 248 OFFCURVE",
"412 -39 OFFCURVE",
"850 -39 CURVE SMOOTH",
"1040 -39 OFFCURVE",
"1229 4 OFFCURVE",
"1378 121 CURVE",
"1337 199 LINE",
"1337 199 OFFCURVE",
"1122 115 OFFCURVE",
"924 115 CURVE SMOOTH",
"567 115 OFFCURVE",
"393 403 OFFCURVE",
"393 725 CURVE SMOOTH",
"393 987 OFFCURVE",
"481 1317 OFFCURVE",
"797 1317 CURVE SMOOTH",
"977 1317 OFFCURVE",
"1133 1188 OFFCURVE",
"1221 1139 CURVE",
"1305 1280 LINE SMOOTH",
"1313 1294 OFFCURVE",
"1317 1307 OFFCURVE",
"1317 1319 CURVE SMOOTH",
"1317 1419 OFFCURVE",
"1024 1450 OFFCURVE",
"874 1450 CURVE SMOOTH",
"387 1450 OFFCURVE",
"133 1161 OFFCURVE",
"133 702 CURVE SMOOTH"
);
}
);
width = 1399;
}
);
leftKerningGroup = O;
rightKerningGroup = C;
unicode = 0043;
},
{
glyphname = D;
lastChange = "2017-11-18 12:19:14 +0000";
layers = (
{
layerId = UUID0;
paths = (
{
closed = 1;
nodes = (
"102 1270 LINE",
"104 1270 OFFCURVE",
"297 1274 OFFCURVE",
"297 1274 CURVE",
"295 82 LINE SMOOTH",
"295 25 OFFCURVE",
"313 0 OFFCURVE",
"373 0 CURVE SMOOTH",
"846 0 LINE SMOOTH",
"1243 0 OFFCURVE",
"1534 221 OFFCURVE",
"1534 705 CURVE SMOOTH",
"1534 1225 OFFCURVE",
"1296 1432 OFFCURVE",
"829 1432 CURVE SMOOTH",
"565 1432 OFFCURVE",
"256 1401 OFFCURVE",
"102 1350 CURVE"
);
},
{
closed = 1;
nodes = (
"528 1286 LINE",
"528 1284 OFFCURVE",
"668 1303 OFFCURVE",
"809 1303 CURVE SMOOTH",
"1171 1303 OFFCURVE",
"1276 1090 OFFCURVE",
"1276 705 CURVE SMOOTH",
"1276 291 OFFCURVE",
"1094 127 OFFCURVE",
"762 127 CURVE SMOOTH",
"651 127 OFFCURVE",
"530 141 OFFCURVE",
"530 141 CURVE"
);
}
);
width = 1667;
}
);
leftKerningGroup = I;
rightKerningGroup = D;
unicode = 0044;
},
{
glyphname = E;
lastChange = "2017-11-18 12:19:14 +0000";
layers = (
{
layerId = UUID0;
paths = (
{
closed = 1;
nodes = (
"438 -6 OFFCURVE",
"631 -12 OFFCURVE",
"813 -12 CURVE SMOOTH",
"1145 -12 OFFCURVE",
"1264 -18 OFFCURVE",
"1264 106 CURVE SMOOTH",
"1264 160 OFFCURVE",
"1241 219 OFFCURVE",
"1243 219 CURVE SMOOTH",
"1071 164 OFFCURVE",
"887 141 OFFCURVE",
"709 141 CURVE SMOOTH",
"528 141 LINE",
"528 664 LINE",
"963 664 LINE SMOOTH",
"1028 664 OFFCURVE",
"1057 686 OFFCURVE",
"1057 756 CURVE SMOOTH",
"1057 805 LINE",
"528 805 LINE",
"528 1278 LINE",
"750 1276 LINE SMOOTH",
"1034 1274 OFFCURVE",
"1176 1161 OFFCURVE",
"1176 1159 CURVE SMOOTH",
"1190 1176 OFFCURVE",
"1268 1307 OFFCURVE",
"1268 1333 CURVE SMOOTH",
"1268 1425 OFFCURVE",
"948 1432 OFFCURVE",
"758 1432 CURVE SMOOTH",
"467 1432 OFFCURVE",
"182 1399 OFFCURVE",
"102 1372 CURVE",
"102 1292 LINE",
"293 1292 LINE",
"293 86 LINE SMOOTH",
"293 29 OFFCURVE",
"309 6 OFFCURVE",
"371 0 CURVE SMOOTH"
);
}
);
width = 1360;
}
);
leftKerningGroup = I;
rightKerningGroup = E;
unicode = 0045;
},
{
glyphname = F;
lastChange = "2017-11-18 12:19:14 +0000";
layers = (
{
layerId = UUID0;
paths = (
{
closed = 1;
nodes = (
"293 82 LINE",
"293 6 OFFCURVE",
"344 -18 OFFCURVE",
"414 -18 CURVE SMOOTH",
"461 -18 OFFCURVE",
"526 -6 OFFCURVE",
"565 16 CURVE",
"557 55 OFFCURVE",
"528 147 OFFCURVE",
"528 317 CURVE SMOOTH",
"528 664 LINE",
"963 664 LINE SMOOTH",
"1028 664 OFFCURVE",
"1057 686 OFFCURVE",
"1057 756 CURVE SMOOTH",
"1057 805 LINE",
"528 805 LINE",
"528 1276 LINE",
"750 1276 LINE SMOOTH",
"1034 1274 OFFCURVE",
"1176 1161 OFFCURVE",
"1176 1159 CURVE SMOOTH",
"1190 1176 OFFCURVE",
"1268 1307 OFFCURVE",
"1268 1333 CURVE SMOOTH",
"1268 1425 OFFCURVE",
"948 1432 OFFCURVE",
"758 1432 CURVE SMOOTH",
"467 1432 OFFCURVE",
"182 1399 OFFCURVE",
"102 1372 CURVE",
"102 1292 LINE",
"293 1292 LINE"
);
}
);
width = 1360;
}
);
leftKerningGroup = I;
unicode = 0046;
},
{
glyphname = G;
lastChange = "2017-11-18 12:19:14 +0000";
layers = (
{
layerId = UUID0;
paths = (
{
closed = 1;
nodes = (
"393 1012 OFFCURVE",
"498 1319 OFFCURVE",
"784 1319 CURVE SMOOTH",
"954 1319 OFFCURVE",
"1133 1192 OFFCURVE",
"1221 1143 CURVE",
"1305 1284 LINE SMOOTH",
"1313 1298 OFFCURVE",
"1317 1311 OFFCURVE",
"1317 1323 CURVE SMOOTH",
"1317 1415 OFFCURVE",
"1057 1450 OFFCURVE",
"920 1450 CURVE SMOOTH",
"440 1450 OFFCURVE",
"133 1163 OFFCURVE",
"133 698 CURVE SMOOTH",
"133 240 OFFCURVE",
"436 -39 OFFCURVE",
"854 -39 CURVE SMOOTH",
"1049 -39 OFFCURVE",
"1290 25 OFFCURVE",
"1401 139 CURVE",
"1401 621 LINE SMOOTH",
"1401 672 OFFCURVE",
"1372 672 OFFCURVE",
"1264 672 CURVE SMOOTH",
"1161 672 OFFCURVE",
"1008 647 OFFCURVE",
"967 627 CURVE",
"967 547 LINE",
"1174 547 LINE",
"1174 164 LINE",
"1090 117 OFFCURVE",
"985 100 OFFCURVE",
"872 100 CURVE SMOOTH",
"627 100 OFFCURVE",
"393 311 OFFCURVE",
"393 702 CURVE SMOOTH"
);
}
);
width = 1503;
}
);
unicode = 0047;
},
{
glyphname = H;
lastChange = "2017-11-18 12:19:14 +0000";
layers = (
{
layerId = UUID0;
paths = (
{
closed = 1;
nodes = (
"1456 1333 LINE",
"1456 1409 OFFCURVE",
"1405 1432 OFFCURVE",
"1335 1432 CURVE SMOOTH",
"1290 1432 OFFCURVE",
"1229 1421 OFFCURVE",
"1190 1399 CURVE",
"1198 1360 OFFCURVE",
"1221 1278 OFFCURVE",
"1221 1108 CURVE SMOOTH",
"1221 811 LINE",
"530 811 LINE",
"530 1380 LINE SMOOTH",
"530 1438 OFFCURVE",
"496 1432 OFFCURVE",
"444 1432 CURVE SMOOTH",
"399 1432 LINE SMOOTH",
"268 1432 OFFCURVE",
"143 1407 OFFCURVE",
"102 1386 CURVE",
"102 1307 LINE",
"295 1307 LINE",
"295 82 LINE SMOOTH",
"295 6 OFFCURVE",
"346 -18 OFFCURVE",
"416 -18 CURVE SMOOTH",
"461 -18 OFFCURVE",
"522 -6 OFFCURVE",
"561 16 CURVE",
"553 55 OFFCURVE",
"530 145 OFFCURVE",
"530 315 CURVE SMOOTH",
"530 670 LINE",
"1221 670 LINE",
"1221 78 LINE SMOOTH",
"1221 -4 OFFCURVE",
"1282 -18 OFFCURVE",
"1364 -18 CURVE SMOOTH",
"1470 -18 OFFCURVE",
"1597 4 OFFCURVE",
"1645 29 CURVE",
"1645 115 LINE",
"1456 115 LINE"
);
}
);
width = 1747;
}
);
leftKerningGroup = I;
rightKerningGroup = I;
unicode = 0048;
},
{
glyphname = I;
lastChange = "2017-11-18 12:19:14 +0000";
layers = (
{
layerId = UUID0;
paths = (
{
closed = 1;
nodes = (
"295 78 LINE",
"295 -4 OFFCURVE",
"356 -18 OFFCURVE",
"438 -18 CURVE SMOOTH",
"545 -18 OFFCURVE",
"672 4 OFFCURVE",
"719 29 CURVE",
"719 115 LINE",
"530 115 LINE",
"530 1380 LINE SMOOTH",
"530 1427 OFFCURVE",
"506 1432 OFFCURVE",
"399 1432 CURVE SMOOTH",
"268 1432 OFFCURVE",
"143 1407 OFFCURVE",
"102 1386 CURVE",
"102 1307 LINE",
"295 1307 LINE"
);
}
);
width = 821;
}
);
leftKerningGroup = I;
rightKerningGroup = I;
unicode = 0049;
},
{
glyphname = J;
lastChange = "2017-11-18 12:19:14 +0000";
layers = (
{
layerId = UUID0;
paths = (
{
closed = 1;
nodes = (
"551 1380 LINE",
"551 1432 OFFCURVE",
"522 1432 OFFCURVE",
"420 1432 CURVE SMOOTH",
"289 1432 OFFCURVE",
"164 1407 OFFCURVE",
"123 1386 CURVE",
"123 1307 LINE",
"315 1307 LINE",
"315 35 LINE",
"315 -39 LINE SMOOTH",
"315 -156 OFFCURVE",
"303 -332 OFFCURVE",
"197 -332 CURVE SMOOTH",
"135 -332 OFFCURVE",
"43 -291 OFFCURVE",
"-74 -244 CURVE",
"-139 -418 LINE SMOOTH",
"-141 -424 OFFCURVE",
"-143 -430 OFFCURVE",
"-143 -436 CURVE SMOOTH",
"-143 -494 OFFCURVE",
"-14 -494 OFFCURVE",
"29 -494 CURVE SMOOTH",
"317 -494 OFFCURVE",
"549 -317 OFFCURVE",
"549 23 CURVE SMOOTH"
);
}
);
width = 735;
}
);
rightKerningGroup = J;
unicode = 004A;
},
{
glyphname = K;
lastChange = "2017-11-18 12:19:14 +0000";
layers = (
{
layerId = UUID0;
paths = (
{
closed = 1;
nodes = (
"1030 35 LINE",
"1061 -8 OFFCURVE",
"1085 -18 OFFCURVE",
"1122 -18 CURVE SMOOTH",
"1260 -18 OFFCURVE",
"1384 125 OFFCURVE",
"1438 193 CURVE",
"1391 258 LINE",
"1243 160 LINE",
"805 762 LINE",
"813 791 OFFCURVE",
"1313 1149 OFFCURVE",
"1313 1354 CURVE SMOOTH",
"1313 1401 OFFCURVE",
"1284 1432 OFFCURVE",
"1243 1432 CURVE SMOOTH",
"1227 1432 OFFCURVE",
"1210 1427 OFFCURVE",
"1192 1419 CURVE SMOOTH",
"995 1325 LINE",
"1006 1298 OFFCURVE",
"1008 1274 OFFCURVE",
"1008 1251 CURVE SMOOTH",
"1008 1087 OFFCURVE",
"721 858 OFFCURVE",
"610 764 CURVE SMOOTH",
"588 745 OFFCURVE",
"580 729 OFFCURVE",
"580 709 CURVE SMOOTH",
"580 676 OFFCURVE",
"604 647 OFFCURVE",
"604 647 CURVE"
);
},
{
closed = 1;
nodes = (
"530 1380 LINE",
"530 1432 OFFCURVE",
"502 1432 OFFCURVE",
"399 1432 CURVE SMOOTH",
"268 1432 OFFCURVE",
"143 1407 OFFCURVE",
"102 1386 CURVE",
"102 1307 LINE",
"295 1307 LINE",
"295 82 LINE SMOOTH",
"295 6 OFFCURVE",
"346 -18 OFFCURVE",
"416 -18 CURVE SMOOTH",
"461 -18 OFFCURVE",
"522 -6 OFFCURVE",
"561 16 CURVE",
"553 55 OFFCURVE",
"530 145 OFFCURVE",
"530 315 CURVE SMOOTH"
);
}
);
width = 1499;
}
);
leftKerningGroup = I;
rightKerningGroup = K;
unicode = 004B;
},
{
glyphname = L;
lastChange = "2017-11-18 12:19:14 +0000";
layers = (
{
layerId = UUID0;
paths = (
{
closed = 1;
nodes = (
"530 1380 LINE",
"530 1432 OFFCURVE",
"502 1432 OFFCURVE",
"399 1432 CURVE SMOOTH",
"268 1432 OFFCURVE",
"143 1407 OFFCURVE",
"102 1386 CURVE",
"102 1307 LINE",
"295 1307 LINE",
"295 86 LINE SMOOTH",
"295 29 OFFCURVE",
"311 6 OFFCURVE",
"373 0 CURVE SMOOTH",
"440 -6 OFFCURVE",
"633 -12 OFFCURVE",
"815 -12 CURVE SMOOTH",
"1157 -12 OFFCURVE",
"1266 -12 OFFCURVE",
"1266 106 CURVE SMOOTH",
"1266 160 OFFCURVE",
"1243 219 OFFCURVE",
"1245 219 CURVE SMOOTH",
"1073 164 OFFCURVE",
"889 141 OFFCURVE",
"711 141 CURVE SMOOTH",
"530 141 LINE"
);
}
);
width = 1286;
}
);
leftKerningGroup = I;
rightKerningGroup = L;
unicode = 004C;
},
{
glyphname = M;
lastChange = "2017-11-18 12:19:14 +0000";
layers = (
{
layerId = UUID0;
paths = (
{
closed = 1;
nodes = (
"389 43 OFFCURVE",
"303 -23 OFFCURVE",
"207 -23 CURVE SMOOTH",
"172 -23 OFFCURVE",
"147 -8 OFFCURVE",
"133 35 CURVE SMOOTH",
"92 158 LINE",
"121 172 OFFCURVE",
"215 190 OFFCURVE",
"266 268 CURVE SMOOTH",
"338 379 OFFCURVE",
"412 1032 OFFCURVE",
"416 1307 CURVE",
"221 1307 LINE",
"221 1386 LINE",
"256 1405 OFFCURVE",
"393 1432 OFFCURVE",
"475 1432 CURVE SMOOTH",
"584 1432 OFFCURVE",
"629 1427 OFFCURVE",
"662 1378 CURVE",
"862 922 OFFCURVE",
"1077 231 OFFCURVE",
"1077 231 CURVE",
"1272 834 OFFCURVE",
"1436 1296 OFFCURVE",
"1497 1399 CURVE",
"1495 1403 OFFCURVE",
"1595 1432 OFFCURVE",
"1655 1432 CURVE SMOOTH",
"1718 1432 OFFCURVE",
"1731 1407 OFFCURVE",
"1741 1356 CURVE",
"1903 135 LINE",
"2093 164 LINE",
"2111 90 LINE",
"2054 35 OFFCURVE",
"1890 -27 OFFCURVE",
"1778 -27 CURVE SMOOTH",
"1733 -27 OFFCURVE",
"1681 -12 OFFCURVE",
"1673 49 CURVE SMOOTH",
"1548 1075 LINE",
"1180 14 OFFCURVE",
"1135 -2 OFFCURVE",
"1135 0 CURVE",
"1026 0 LINE SMOOTH",
"963 0 OFFCURVE",
"932 16 OFFCURVE",
"907 82 CURVE SMOOTH",
"645 780 OFFCURVE",
"563 1071 OFFCURVE",
"563 1071 CURVE",
"543 733 OFFCURVE",
"518 301 OFFCURVE",
"430 123 CURVE SMOOTH"
);
}
);
width = 2152;
}
);
rightKerningGroup = M;
unicode = 004D;
},
{
glyphname = N;
lastChange = "2017-11-18 12:19:14 +0000";
layers = (
{
layerId = UUID0;
paths = (
{
closed = 1;
nodes = (
"1260 328 LINE",
"1253 893 OFFCURVE",
"1227 1257 OFFCURVE",
"1196 1393 CURVE",
"1198 1393 OFFCURVE",
"1217 1401 OFFCURVE",
"1333 1427 CURVE SMOOTH",
"1339 1430 OFFCURVE",
"1352 1432 OFFCURVE",
"1366 1432 CURVE SMOOTH",
"1417 1432 OFFCURVE",
"1419 1380 OFFCURVE",
"1419 1233 CURVE SMOOTH",
"1419 920 OFFCURVE",
"1389 305 OFFCURVE",
"1364 -18 CURVE",
"1272 -18 LINE SMOOTH",
"1231 -18 OFFCURVE",
"1217 -6 OFFCURVE",
"1200 16 CURVE SMOOTH",
"449 1053 LINE",
"473 756 OFFCURVE",
"481 510 OFFCURVE",
"481 352 CURVE SMOOTH",
"481 49 OFFCURVE",
"451 -27 OFFCURVE",
"451 -27 CURVE",
"328 -4 LINE SMOOTH",
"276 6 OFFCURVE",
"248 33 OFFCURVE",
"248 86 CURVE SMOOTH",
"248 100 OFFCURVE",
"250 119 OFFCURVE",
"254 137 CURVE SMOOTH",
"281 262 OFFCURVE",
"299 430 OFFCURVE",
"299 868 CURVE SMOOTH",
"299 1040 OFFCURVE",
"295 1174 OFFCURVE",
"295 1307 CURVE",
"102 1307 LINE",
"102 1386 LINE",
"139 1405 OFFCURVE",
"262 1432 OFFCURVE",
"389 1432 CURVE SMOOTH",
"430 1432 OFFCURVE",
"457 1425 OFFCURVE",
"475 1401 CURVE SMOOTH"
);
}
);
width = 1665;
}
);
leftKerningGroup = N;
rightKerningGroup = N;
unicode = 004E;
},
{
glyphname = O;
lastChange = "2017-11-18 12:19:14 +0000";
layers = (
{
layerId = UUID0;
paths = (
{
closed = 1;
nodes = (
"393 1034 OFFCURVE",
"504 1323 OFFCURVE",
"809 1323 CURVE SMOOTH",
"1114 1323 OFFCURVE",
"1223 1044 OFFCURVE",
"1223 705 CURVE SMOOTH",
"1223 346 OFFCURVE",
"1110 88 OFFCURVE",
"809 88 CURVE SMOOTH",
"504 88 OFFCURVE",
"393 344 OFFCURVE",
"393 705 CURVE SMOOTH"
);
},
{
closed = 1;
nodes = (
"1483 1145 OFFCURVE",
"1231 1450 OFFCURVE",
"809 1450 CURVE SMOOTH",
"387 1450 OFFCURVE",
"133 1145 OFFCURVE",
"133 705 CURVE SMOOTH",
"133 264 OFFCURVE",
"387 -39 OFFCURVE",
"809 -39 CURVE SMOOTH",
"1231 -39 OFFCURVE",
"1483 264 OFFCURVE",
"1483 705 CURVE SMOOTH"
);
}
);
width = 1616;
}
);
leftKerningGroup = O;
rightKerningGroup = O;
unicode = 004F;
},
{
glyphname = P;
lastChange = "2017-11-18 12:19:14 +0000";
layers = (
{
layerId = UUID0;
paths = (
{
closed = 1;
nodes = (
"530 1290 LINE",
"586 1298 OFFCURVE",
"645 1300 OFFCURVE",
"694 1300 CURVE SMOOTH",
"1012 1300 OFFCURVE",
"1049 1151 OFFCURVE",
"1049 981 CURVE SMOOTH",
"1049 827 OFFCURVE",
"987 680 OFFCURVE",
"713 680 CURVE SMOOTH",
"594 680 OFFCURVE",
"530 702 OFFCURVE",
"530 702 CURVE"
);
},
{
closed = 1;
nodes = (
"530 561 LINE",
"647 551 OFFCURVE",
"760 551 OFFCURVE",
"793 551 CURVE SMOOTH",
"1100 551 OFFCURVE",
"1288 711 OFFCURVE",
"1288 981 CURVE SMOOTH",
"1288 1343 OFFCURVE",
"1036 1432 OFFCURVE",
"733 1432 CURVE SMOOTH",
"344 1432 OFFCURVE",
"154 1374 OFFCURVE",
"102 1356 CURVE",
"102 1268 LINE",
"295 1280 LINE",
"295 82 LINE SMOOTH",
"295 6 OFFCURVE",
"346 -18 OFFCURVE",
"416 -18 CURVE SMOOTH",
"463 -18 OFFCURVE",
"528 -6 OFFCURVE",
"567 16 CURVE",
"559 55 OFFCURVE",
"530 145 OFFCURVE",
"530 315 CURVE SMOOTH"
);
}
);
width = 1401;
}
);
leftKerningGroup = I;
rightKerningGroup = P;
unicode = 0050;
},
{
glyphname = Q;
lastChange = "2017-11-18 12:19:14 +0000";
layers = (
{
layerId = UUID0;
paths = (
{
closed = 1;
nodes = (
"1479 1190 OFFCURVE",
"1184 1450 OFFCURVE",
"807 1450 CURVE SMOOTH",
"430 1450 OFFCURVE",
"133 1190 OFFCURVE",
"133 705 CURVE SMOOTH",
"133 242 OFFCURVE",
"391 2 OFFCURVE",
"731 -35 CURVE",
"870 -252 OFFCURVE",
"1004 -356 OFFCURVE",
"1221 -356 CURVE SMOOTH",
"1376 -356 OFFCURVE",
"1556 -207 OFFCURVE",
"1554 -205 CURVE SMOOTH",
"1505 -125 LINE",
"1489 -133 OFFCURVE",
"1348 -217 OFFCURVE",
"1257 -217 CURVE SMOOTH",
"1153 -217 OFFCURVE",
"1053 -109 OFFCURVE",
"985 -16 CURVE",
"1272 47 OFFCURVE",
"1479 291 OFFCURVE",
"1479 705 CURVE SMOOTH"
);
},
{
closed = 1;
nodes = (
"393 1063 OFFCURVE",
"524 1325 OFFCURVE",
"807 1325 CURVE SMOOTH",
"1090 1325 OFFCURVE",
"1219 1071 OFFCURVE",
"1219 705 CURVE SMOOTH",
"1219 313 OFFCURVE",
"1087 84 OFFCURVE",
"807 84 CURVE SMOOTH",
"524 84 OFFCURVE",
"393 313 OFFCURVE",
"393 705 CURVE SMOOTH"
);
}
);
width = 1616;
}
);
leftKerningGroup = O;
rightKerningGroup = O;
unicode = 0051;
},
{
glyphname = R;
lastChange = "2017-11-18 12:19:14 +0000";
layers = (
{
layerId = UUID0;
paths = (
{
closed = 1;
nodes = (
"530 1290 LINE",
"586 1298 OFFCURVE",
"645 1300 OFFCURVE",
"694 1300 CURVE SMOOTH",
"1012 1300 OFFCURVE",
"1049 1151 OFFCURVE",
"1049 981 CURVE SMOOTH",
"1049 827 OFFCURVE",
"987 680 OFFCURVE",
"713 680 CURVE SMOOTH",
"594 680 OFFCURVE",
"530 702 OFFCURVE",
"530 702 CURVE"
);
},
{
closed = 1;
nodes = (
"1022 588 LINE",
"1194 649 OFFCURVE",
"1288 786 OFFCURVE",
"1288 981 CURVE SMOOTH",
"1288 1343 OFFCURVE",
"1036 1432 OFFCURVE",
"733 1432 CURVE SMOOTH",
"262 1432 OFFCURVE",
"154 1374 OFFCURVE",
"102 1356 CURVE",
"102 1268 LINE",
"295 1280 LINE",
"295 82 LINE SMOOTH",
"295 6 OFFCURVE",
"346 -18 OFFCURVE",
"416 -18 CURVE SMOOTH",
"463 -18 OFFCURVE",
"528 -6 OFFCURVE",
"567 16 CURVE",
"559 55 OFFCURVE",
"530 145 OFFCURVE",
"530 315 CURVE SMOOTH",
"530 561 LINE",
"647 551 OFFCURVE",
"760 551 OFFCURVE",
"793 551 CURVE",
"1104 51 LINE SMOOTH",
"1137 -2 OFFCURVE",
"1178 -18 OFFCURVE",
"1217 -18 CURVE SMOOTH",
"1331 -18 OFFCURVE",
"1462 113 OFFCURVE",
"1522 197 CURVE",
"1473 264 LINE",
"1311 158 LINE"
);
}
);
width = 1563;
}
);
leftKerningGroup = I;
rightKerningGroup = R;
unicode = 0052;
},
{
glyphname = S;
lastChange = "2017-11-18 12:19:14 +0000";
layers = (
{
layerId = UUID0;
paths = (
{
closed = 1;
nodes = (
"537 911 OFFCURVE",
"414 985 OFFCURVE",
"414 1106 CURVE SMOOTH",
"414 1247 OFFCURVE",
"514 1317 OFFCURVE",
"627 1317 CURVE SMOOTH",
"786 1317 OFFCURVE",
"918 1229 OFFCURVE",
"1036 1161 CURVE",
"1116 1298 LINE SMOOTH",
"1124 1313 OFFCURVE",
"1128 1325 OFFCURVE",
"1128 1337 CURVE SMOOTH",
"1128 1425 OFFCURVE",
"872 1450 OFFCURVE",
"760 1450 CURVE SMOOTH",
"504 1450 OFFCURVE",
"184 1362 OFFCURVE",
"184 1067 CURVE SMOOTH",
"184 936 OFFCURVE",
"244 795 OFFCURVE",
"567 659 CURVE SMOOTH",
"762 578 OFFCURVE",
"954 471 OFFCURVE",
"954 303 CURVE SMOOTH",
"954 172 OFFCURVE",
"836 90 OFFCURVE",
"715 90 CURVE SMOOTH",
"571 90 OFFCURVE",
"379 246 OFFCURVE",
"252 348 CURVE",
"150 227 LINE SMOOTH",
"139 215 OFFCURVE",
"135 203 OFFCURVE",
"135 190 CURVE SMOOTH",
"135 156 OFFCURVE",
"170 123 OFFCURVE",
"199 104 CURVE SMOOTH",
"352 2 OFFCURVE",
"532 -39 OFFCURVE",
"705 -39 CURVE SMOOTH",
"965 -39 OFFCURVE",
"1188 113 OFFCURVE",
"1188 373 CURVE SMOOTH",
"1188 637 OFFCURVE",
"911 752 OFFCURVE",
"670 854 CURVE SMOOTH"
);
}
);
width = 1323;
}
);
unicode = 0053;
},
{
glyphname = T;
lastChange = "2017-11-18 12:19:14 +0000";
layers = (
{
layerId = UUID0;
paths = (
{
closed = 1;
nodes = (
"555 82 LINE",
"555 6 OFFCURVE",
"606 -18 OFFCURVE",
"676 -18 CURVE SMOOTH",
"721 -18 OFFCURVE",
"782 -6 OFFCURVE",
"821 16 CURVE",
"813 55 OFFCURVE",
"791 145 OFFCURVE",
"791 315 CURVE SMOOTH",
"791 1272 LINE",
"866 1270 OFFCURVE",
"969 1266 OFFCURVE",
"1120 1266 CURVE SMOOTH",
"1229 1266 OFFCURVE",
"1329 1268 OFFCURVE",
"1329 1335 CURVE SMOOTH",
"1329 1391 OFFCURVE",
"1311 1444 OFFCURVE",
"1311 1446 CURVE SMOOTH",
"1311 1446 OFFCURVE",
"1311 1446 OFFCURVE",
"1313 1446 CURVE",
"1044 1411 OFFCURVE",
"801 1413 OFFCURVE",
"678 1413 CURVE SMOOTH",
"582 1413 OFFCURVE",
"479 1413 OFFCURVE",
"385 1413 CURVE SMOOTH",
"178 1413 OFFCURVE",
"10 1430 OFFCURVE",
"10 1341 CURVE SMOOTH",
"10 1298 OFFCURVE",
"31 1217 OFFCURVE",
"29 1219 CURVE",
"102 1229 OFFCURVE",
"305 1272 OFFCURVE",
"555 1272 CURVE"
);
}
);
width = 1339;
}
);
unicode = 0054;
},
{
glyphname = U;
lastChange = "2017-11-18 12:19:14 +0000";
layers = (
{
layerId = UUID0;
paths = (
{
closed = 1;
nodes = (
"1468 1333 LINE",
"1468 1411 OFFCURVE",
"1419 1432 OFFCURVE",
"1366 1432 CURVE SMOOTH",
"1331 1432 OFFCURVE",
"1278 1423 OFFCURVE",
"1251 1403 CURVE",
"1257 1366 OFFCURVE",
"1280 1280 OFFCURVE",
"1280 1114 CURVE SMOOTH",
"1280 547 LINE SMOOTH",
"1280 336 OFFCURVE",
"1196 86 OFFCURVE",
"899 86 CURVE SMOOTH",
"612 86 OFFCURVE",
"520 336 OFFCURVE",
"520 543 CURVE SMOOTH",
"520 1380 LINE SMOOTH",
"520 1432 OFFCURVE",
"498 1432 OFFCURVE",
"389 1432 CURVE SMOOTH",
"258 1432 OFFCURVE",
"133 1403 OFFCURVE",
"92 1386 CURVE",
"92 1307 LINE",
"287 1307 LINE",
"287 547 LINE SMOOTH",
"287 164 OFFCURVE",
"512 -39 OFFCURVE",
"899 -39 CURVE SMOOTH",
"1206 -39 OFFCURVE",
"1468 162 OFFCURVE",
"1468 545 CURVE SMOOTH"
);
}
);
width = 1714;
}
);
leftKerningGroup = U;
rightKerningGroup = U;
unicode = 0055;
},
{
glyphname = V;
lastChange = "2017-11-18 12:19:14 +0000";
layers = (
{
layerId = UUID0;
paths = (
{
closed = 1;
nodes = (
"909 213 LINE",
"922 213 LINE",
"1073 545 OFFCURVE",
"1204 778 OFFCURVE",
"1204 1057 CURVE SMOOTH",
"1204 1149 OFFCURVE",
"1190 1245 OFFCURVE",
"1157 1352 CURVE",
"1319 1421 LINE SMOOTH",
"1337 1430 OFFCURVE",
"1352 1432 OFFCURVE",
"1366 1432 CURVE SMOOTH",
"1415 1432 OFFCURVE",
"1446 1382 OFFCURVE",
"1446 1307 CURVE SMOOTH",
"1446 1085 OFFCURVE",
"1237 504 OFFCURVE",
"944 -18 CURVE",
"842 -18 LINE SMOOTH",
"778 -18 OFFCURVE",
"750 0 OFFCURVE",
"723 63 CURVE SMOOTH",
"211 1255 LINE",
"37 1176 LINE",
"4 1247 LINE",
"70 1309 OFFCURVE",
"248 1432 OFFCURVE",
"338 1432 CURVE SMOOTH",
"373 1432 OFFCURVE",
"401 1415 OFFCURVE",
"422 1368 CURVE SMOOTH"
);
}
);
width = 1528;
}
);
rightKerningGroup = V;
unicode = 0056;
},
{
glyphname = W;
lastChange = "2017-11-18 12:19:14 +0000";
layers = (
{
layerId = UUID0;
paths = (
{
closed = 1;
nodes = (
"1278 1339 LINE",
"1251 1417 OFFCURVE",
"1214 1432 OFFCURVE",
"1143 1432 CURVE SMOOTH",
"1098 1432 OFFCURVE",
"1030 1419 OFFCURVE",
"985 1380 CURVE",
"1004 1352 OFFCURVE",
"1047 1284 OFFCURVE",
"1100 1124 CURVE SMOOTH",
"1108 1098 LINE",
"1069 913 OFFCURVE",
"981 528 OFFCURVE",
"854 231 CURVE",
"842 231 LINE",
"424 1362 LINE SMOOTH",
"406 1413 OFFCURVE",
"360 1432 OFFCURVE",
"319 1432 CURVE SMOOTH",
"227 1432 OFFCURVE",
"70 1303 OFFCURVE",
"4 1241 CURVE",
"37 1169 LINE",
"213 1247 LINE",
"643 82 LINE SMOOTH",
"668 16 OFFCURVE",
"698 0 OFFCURVE",
"762 0 CURVE SMOOTH",
"889 0 LINE",
"1012 240 OFFCURVE",
"1159 627 OFFCURVE",
"1206 838 CURVE",
"1477 82 LINE SMOOTH",
"1499 16 OFFCURVE",
"1532 0 OFFCURVE",
"1595 0 CURVE SMOOTH",
"1716 0 LINE",
"1960 514 OFFCURVE",
"2152 1085 OFFCURVE",
"2152 1305 CURVE SMOOTH",
"2152 1382 OFFCURVE",
"2124 1432 OFFCURVE",
"2075 1432 CURVE SMOOTH",
"2060 1432 OFFCURVE",
"2046 1430 OFFCURVE",
"2028 1421 CURVE SMOOTH",
"1866 1352 LINE",
"1884 1292 OFFCURVE",
"1917 1192 OFFCURVE",
"1917 1073 CURVE SMOOTH",
"1917 1008 OFFCURVE",
"1911 915 OFFCURVE",
"1686 231 CURVE",
"1673 231 LINE"
);
}
);
width = 2234;
}
);
rightKerningGroup = W;
unicode = 0057;
},
{
glyphname = X;
lastChange = "2017-11-18 12:19:14 +0000";
layers = (
{
layerId = UUID0;
paths = (
{
closed = 1;
nodes = (
"1059 51 LINE",
"1094 0 OFFCURVE",
"1135 -18 OFFCURVE",
"1171 -18 CURVE SMOOTH",
"1272 -18 OFFCURVE",
"1413 111 OFFCURVE",
"1479 207 CURVE",
"1427 272 LINE",
"1276 164 LINE",
"860 758 LINE",
"915 817 OFFCURVE",
"1075 991 OFFCURVE",
"1196 1141 CURVE SMOOTH",
"1247 1204 OFFCURVE",
"1280 1270 OFFCURVE",
"1280 1327 CURVE SMOOTH",
"1280 1378 OFFCURVE",
"1257 1432 OFFCURVE",
"1208 1432 CURVE SMOOTH",
"1194 1432 OFFCURVE",
"1176 1427 OFFCURVE",
"1157 1419 CURVE SMOOTH",
"997 1350 LINE",
"1010 1315 OFFCURVE",
"1014 1284 OFFCURVE",
"1014 1257 CURVE SMOOTH",
"1014 1184 OFFCURVE",
"985 1141 OFFCURVE",
"793 862 CURVE",
"463 1360 LINE SMOOTH",
"422 1419 OFFCURVE",
"385 1438 OFFCURVE",
"350 1438 CURVE SMOOTH",
"274 1438 OFFCURVE",
"119 1292 OFFCURVE",
"47 1212 CURVE",
"98 1149 LINE",
"246 1253 LINE",
"621 688 LINE",
"471 535 OFFCURVE",
"170 242 OFFCURVE",
"170 59 CURVE SMOOTH",
"170 12 OFFCURVE",
"201 -16 OFFCURVE",
"238 -18 CURVE SMOOTH",
"254 -18 OFFCURVE",
"270 -14 OFFCURVE",
"291 -6 CURVE SMOOTH",
"451 66 LINE",
"444 86 OFFCURVE",
"442 104 OFFCURVE",
"442 123 CURVE SMOOTH",
"442 287 OFFCURVE",
"608 461 OFFCURVE",
"690 582 CURVE"
);
}
);
width = 1526;
}
);
rightKerningGroup = X;
unicode = 0058;
},
{
glyphname = Y;
lastChange = "2017-11-18 12:19:14 +0000";
layers = (
{
layerId = UUID0;
paths = (
{
closed = 1;
nodes = (
"899 145 OFFCURVE",
"907 90 OFFCURVE",
"930 16 CURVE",
"891 -6 OFFCURVE",
"829 -18 OFFCURVE",
"784 -18 CURVE SMOOTH",
"715 -18 OFFCURVE",
"664 6 OFFCURVE",
"664 82 CURVE SMOOTH",
"664 500 LINE",
"209 1253 LINE",
"33 1176 LINE",
"0 1247 LINE",
"63 1307 OFFCURVE",
"233 1432 OFFCURVE",
"324 1432 CURVE SMOOTH",
"354 1432 OFFCURVE",
"385 1415 OFFCURVE",
"414 1370 CURVE SMOOTH",
"838 672 LINE",
"842 672 LINE",
"938 840 OFFCURVE",
"1044 1008 OFFCURVE",
"1044 1182 CURVE SMOOTH",
"1044 1239 OFFCURVE",
"1028 1296 OFFCURVE",
"1004 1354 CURVE",
"1161 1421 LINE SMOOTH",
"1180 1430 OFFCURVE",
"1194 1432 OFFCURVE",
"1208 1432 CURVE SMOOTH",
"1260 1432 OFFCURVE",
"1284 1386 OFFCURVE",
"1284 1317 CURVE SMOOTH",
"1284 1126 OFFCURVE",
"1106 842 OFFCURVE",
"899 532 CURVE"
);
}
);
width = 1427;
}
);
leftKerningGroup = Y;
rightKerningGroup = Y;
unicode = 0059;
},
{
glyphname = Z;
lastChange = "2017-11-18 12:19:14 +0000";
layers = (
{
layerId = UUID0;
paths = (
{
closed = 1;
nodes = (
"918 1425 OFFCURVE",
"774 1432 OFFCURVE",
"637 1432 CURVE SMOOTH",
"397 1432 OFFCURVE",
"104 1421 OFFCURVE",
"104 1331 CURVE SMOOTH",
"104 1305 OFFCURVE",
"184 1174 OFFCURVE",
"199 1157 CURVE",
"199 1159 OFFCURVE",
"340 1272 OFFCURVE",
"625 1274 CURVE SMOOTH",
"862 1274 LINE",
"72 121 LINE",
"72 86 LINE SMOOTH",
"72 29 OFFCURVE",
"88 10 OFFCURVE",
"150 0 CURVE SMOOTH",
"211 -10 OFFCURVE",
"406 -14 OFFCURVE",
"602 -14 CURVE SMOOTH",
"961 -14 OFFCURVE",
"1153 -33 OFFCURVE",
"1153 106 CURVE SMOOTH",
"1153 160 OFFCURVE",
"1130 219 OFFCURVE",
"1133 219 CURVE SMOOTH",
"961 164 OFFCURVE",
"666 141 OFFCURVE",
"487 141 CURVE SMOOTH",
"340 141 LINE",
"1153 1307 LINE",
"1153 1348 LINE SMOOTH",
"1153 1405 OFFCURVE",
"1094 1415 OFFCURVE",
"1049 1417 CURVE SMOOTH"
);
}
);
width = 1225;
}
);
unicode = 005A;
},
{
glyphname = bracketleft;
lastChange = "2017-11-18 12:19:14 +0000";
layers = (
{
layerId = UUID0;
paths = (
{
closed = 1;
nodes = (
"270 -143 LINE",
"270 1442 LINE",
"492 1442 LINE",
"492 1456 LINE SMOOTH",
"492 1516 OFFCURVE",
"467 1536 OFFCURVE",
"410 1536 CURVE SMOOTH",
"123 1536 LINE",
"123 -238 LINE",
"410 -238 LINE SMOOTH",
"467 -238 OFFCURVE",
"492 -217 OFFCURVE",
"492 -158 CURVE SMOOTH",
"492 -143 LINE"
);
}
);
width = 614;
}
);
unicode = 005B;
},
{
glyphname = backslash;
lastChange = "2017-11-18 12:19:14 +0000";
layers = (
{
layerId = UUID0;
paths = (
{
closed = 1;
nodes = (
"246 1493 LINE",
"221 1544 OFFCURVE",
"205 1575 OFFCURVE",
"141 1575 CURVE SMOOTH",
"18 1575 LINE",
"750 82 LINE SMOOTH",
"774 33 OFFCURVE",
"786 0 OFFCURVE",
"846 0 CURVE SMOOTH",
"981 0 LINE"
);
}
);
width = 1006;
}
);
unicode = 005C;
},
{
glyphname = bracketright;
lastChange = "2017-11-18 12:19:14 +0000";
layers = (
{
layerId = UUID0;
paths = (
{
closed = 1;
nodes = (
"123 -143 LINE",
"123 -158 LINE SMOOTH",
"123 -217 OFFCURVE",
"147 -238 OFFCURVE",
"205 -238 CURVE SMOOTH",
"492 -238 LINE",
"492 1536 LINE",
"205 1536 LINE SMOOTH",
"147 1536 OFFCURVE",
"123 1516 OFFCURVE",
"123 1456 CURVE SMOOTH",
"123 1442 LINE",
"344 1442 LINE",
"344 -143 LINE"
);
}
);
width = 614;
}
);
unicode = 005D;
},
{
glyphname = asciicircum;
lastChange = "2017-11-18 12:19:14 +0000";
layers = (
{
layerId = UUID0;
paths = (
{
closed = 1;
nodes = (
"758 979 LINE",
"752 987 OFFCURVE",
"737 1024 OFFCURVE",
"686 1024 CURVE SMOOTH",
"625 1024 LINE",
"178 293 LINE SMOOTH",
"168 276 OFFCURVE",
"164 258 OFFCURVE",
"164 246 CURVE SMOOTH",
"164 221 OFFCURVE",
"180 201 OFFCURVE",
"215 186 CURVE SMOOTH",
"281 158 LINE",
"672 791 LINE",
"676 791 LINE",
"1077 154 LINE",
"1145 186 LINE SMOOTH",
"1178 203 OFFCURVE",
"1194 219 OFFCURVE",
"1194 246 CURVE SMOOTH",
"1194 258 OFFCURVE",
"1192 276 OFFCURVE",
"1182 293 CURVE SMOOTH"
);
}
);
width = 1391;
}
);
unicode = 005E;
},
{
glyphname = underscore;
lastChange = "2017-11-18 12:19:14 +0000";
layers = (
{
layerId = UUID0;
paths = (
{
closed = 1;
nodes = (
"928 -383 LINE",
"985 -383 OFFCURVE",
"1010 -362 OFFCURVE",
"1010 -303 CURVE SMOOTH",
"1010 -242 LINE",
"205 -242 LINE SMOOTH",
"147 -242 OFFCURVE",
"123 -260 OFFCURVE",
"123 -319 CURVE SMOOTH",
"123 -383 LINE"
);
}
);
width = 1133;
}
);
unicode = 005F;
},
{
glyphname = grave;
lastChange = "2017-11-18 12:19:14 +0000";
layers = (
{
layerId = UUID0;
paths = (
{
closed = 1;
nodes = (
"416 1573 LINE",
"268 1573 LINE SMOOTH",
"227 1573 OFFCURVE",
"205 1559 OFFCURVE",
"205 1534 CURVE SMOOTH",
"205 1518 OFFCURVE",
"215 1495 OFFCURVE",
"240 1473 CURVE SMOOTH",
"289 1425 OFFCURVE",
"465 1243 OFFCURVE",
"465 1243 CURVE",
"537 1243 LINE SMOOTH",
"565 1243 OFFCURVE",
"575 1253 OFFCURVE",
"575 1270 CURVE SMOOTH",
"575 1286 OFFCURVE",
"565 1309 OFFCURVE",
"555 1327 CURVE SMOOTH"
);
}
);
width = 985;
}
);
unicode = 0060;
},
{
glyphname = a;
lastChange = "2017-11-18 12:19:14 +0000";
layers = (
{
layerId = UUID0;
paths = (
{
closed = 1;
nodes = (
"772 78 LINE",
"776 -6 OFFCURVE",
"850 -18 OFFCURVE",
"915 -18 CURVE SMOOTH",
"1012 -18 OFFCURVE",
"1133 0 OFFCURVE",
"1178 25 CURVE",
"1178 100 LINE",
"1004 100 LINE",
"1004 657 LINE SMOOTH",
"1004 944 OFFCURVE",
"799 1055 OFFCURVE",
"553 1055 CURVE SMOOTH",
"389 1055 OFFCURVE",
"139 995 OFFCURVE",
"139 907 CURVE SMOOTH",
"139 895 OFFCURVE",
"143 883 OFFCURVE",
"154 870 CURVE SMOOTH",
"236 760 LINE",
"336 840 OFFCURVE",
"479 950 OFFCURVE",
"614 950 CURVE SMOOTH",
"756 950 OFFCURVE",
"772 813 OFFCURVE",
"772 657 CURVE SMOOTH",
"772 582 LINE",
"631 582 LINE SMOOTH",
"328 582 OFFCURVE",
"113 498 OFFCURVE",
"113 268 CURVE SMOOTH",
"113 61 OFFCURVE",
"264 -31 OFFCURVE",
"438 -31 CURVE SMOOTH",
"602 -31 OFFCURVE",
"772 90 OFFCURVE",
"772 88 CURVE"
);
},
{
closed = 1;
nodes = (
"401 117 OFFCURVE",
"342 184 OFFCURVE",
"342 279 CURVE SMOOTH",
"342 430 OFFCURVE",
"504 459 OFFCURVE",
"604 459 CURVE SMOOTH",
"772 459 LINE",
"772 178 LINE",
"772 178 OFFCURVE",
"602 117 OFFCURVE",
"508 117 CURVE SMOOTH"
);
}
);
width = 1231;
}
);
leftKerningGroup = a;
rightKerningGroup = a;
unicode = 0061;
},
{
glyphname = b;
lastChange = "2017-11-18 12:19:14 +0000";
layers = (
{
layerId = UUID0;
paths = (
{
closed = 1;
nodes = (
"954 934 OFFCURVE",
"1012 784 OFFCURVE",
"1012 555 CURVE SMOOTH",
"1012 260 OFFCURVE",
"907 80 OFFCURVE",
"692 80 CURVE SMOOTH",
"586 80 OFFCURVE",
"469 111 OFFCURVE",
"469 113 CURVE",
"469 836 LINE",
"567 889 OFFCURVE",
"680 934 OFFCURVE",
"791 934 CURVE SMOOTH"
);
},
{
closed = 1;
nodes = (
"469 1483 LINE",
"469 1536 OFFCURVE",
"438 1536 OFFCURVE",
"383 1536 CURVE",
"279 1536 OFFCURVE",
"117 1520 OFFCURVE",
"61 1495 CURVE",
"61 1419 LINE",
"238 1419 LINE",
"238 74 LINE",
"342 29 OFFCURVE",
"514 -31 OFFCURVE",
"700 -31 CURVE SMOOTH",
"1032 -31 OFFCURVE",
"1260 211 OFFCURVE",
"1260 539 CURVE SMOOTH",
"1260 825 OFFCURVE",
"1130 1055 OFFCURVE",
"825 1055 CURVE SMOOTH",
"702 1055 OFFCURVE",
"567 997 OFFCURVE",
"469 932 CURVE"
);
}
);
width = 1372;
}
);
leftKerningGroup = b;
rightKerningGroup = b;
unicode = 0062;
},
{
glyphname = c;
lastChange = "2017-11-18 12:19:14 +0000";
layers = (
{
layerId = UUID0;
paths = (
{
closed = 1;
nodes = (
"1001 944 LINE",
"1006 950 OFFCURVE",
"1006 958 OFFCURVE",
"1006 965 CURVE SMOOTH",
"1006 1040 OFFCURVE",
"764 1055 OFFCURVE",
"723 1055 CURVE SMOOTH",
"375 1055 OFFCURVE",
"113 844 OFFCURVE",
"113 494 CURVE SMOOTH",
"113 156 OFFCURVE",
"391 -31 OFFCURVE",
"682 -31 CURVE SMOOTH",
"815 -31 OFFCURVE",
"965 0 OFFCURVE",
"1075 74 CURVE",
"1042 141 LINE",
"950 113 OFFCURVE",
"862 98 OFFCURVE",
"780 98 CURVE SMOOTH",
"481 98 OFFCURVE",
"344 307 OFFCURVE",
"344 569 CURVE SMOOTH",
"344 737 OFFCURVE",
"416 936 OFFCURVE",
"596 936 CURVE SMOOTH",
"713 936 OFFCURVE",
"842 862 OFFCURVE",
"930 811 CURVE"
);
}
);
width = 1151;
}
);
leftKerningGroup = o;
rightKerningGroup = c;
unicode = 0063;
},
{
glyphname = d;
lastChange = "2017-11-18 12:19:14 +0000";
layers = (
{
layerId = UUID0;
paths = (
{
closed = 1;
nodes = (
"903 211 LINE",
"831 139 OFFCURVE",
"727 92 OFFCURVE",
"627 92 CURVE SMOOTH",
"457 92 OFFCURVE",
"360 242 OFFCURVE",
"360 500 CURVE SMOOTH",
"360 754 OFFCURVE",
"432 932 OFFCURVE",
"614 932 CURVE SMOOTH",
"743 932 OFFCURVE",
"823 887 OFFCURVE",
"903 844 CURVE"
);
},
{
closed = 1;
nodes = (
"903 950 LINE",
"801 1024 OFFCURVE",
"682 1055 OFFCURVE",
"565 1055 CURVE SMOOTH",
"260 1055 OFFCURVE",
"113 834 OFFCURVE",
"113 508 CURVE SMOOTH",
"113 213 OFFCURVE",
"293 -31 OFFCURVE",
"573 -31 CURVE SMOOTH",
"750 -31 OFFCURVE",
"877 76 OFFCURVE",
"903 94 CURVE",
"903 78 LINE SMOOTH",
"903 -4 OFFCURVE",
"965 -18 OFFCURVE",
"1047 -18 CURVE SMOOTH",
"1143 -18 OFFCURVE",
"1264 0 OFFCURVE",
"1309 25 CURVE",
"1309 100 LINE",
"1135 100 LINE",
"1135 1483 LINE SMOOTH",
"1135 1536 OFFCURVE",
"1104 1536 OFFCURVE",
"1049 1536 CURVE",
"944 1536 OFFCURVE",
"782 1520 OFFCURVE",
"727 1495 CURVE",
"727 1419 LINE",
"903 1419 LINE"
);
}
);
width = 1384;
}
);
leftKerningGroup = d;
rightKerningGroup = d;
unicode = 0064;
},
{
glyphname = e;
lastChange = "2017-11-18 12:19:14 +0000";
layers = (
{
layerId = UUID0;
paths = (
{
closed = 1;
nodes = (
"346 584 LINE",
"356 774 OFFCURVE",
"420 944 OFFCURVE",
"625 944 CURVE SMOOTH",
"786 944 OFFCURVE",
"874 797 OFFCURVE",
"874 666 CURVE SMOOTH",
"874 637 OFFCURVE",
"872 610 OFFCURVE",
"864 584 CURVE"
);
},
{
closed = 1;
nodes = (
"113 145 OFFCURVE",
"395 -39 OFFCURVE",
"688 -39 CURVE SMOOTH",
"821 -39 OFFCURVE",
"969 -8 OFFCURVE",
"1077 66 CURVE",
"1044 133 LINE",
"954 104 OFFCURVE",
"868 90 OFFCURVE",
"788 90 CURVE SMOOTH",
"553 90 OFFCURVE",
"375 221 OFFCURVE",
"348 461 CURVE",
"946 461 LINE SMOOTH",
"1079 461 OFFCURVE",
"1104 569 OFFCURVE",
"1104 664 CURVE SMOOTH",
"1104 870 OFFCURVE",
"944 1055 OFFCURVE",
"678 1055 CURVE SMOOTH",
"324 1055 OFFCURVE",
"113 829 OFFCURVE",
"113 512 CURVE SMOOTH"
);
}
);
width = 1206;
}
);
leftKerningGroup = o;
rightKerningGroup = e;
unicode = 0065;
},
{
glyphname = f;
lastChange = "2017-11-18 12:19:14 +0000";
layers = (
{
layerId = UUID0;
paths = (
{
closed = 1;
nodes = (
"721 901 LINE",
"778 901 OFFCURVE",
"803 922 OFFCURVE",
"803 981 CURVE SMOOTH",
"803 1024 LINE",
"516 1024 LINE",
"516 1159 LINE SMOOTH",
"516 1317 OFFCURVE",
"524 1409 OFFCURVE",
"614 1409 CURVE SMOOTH",
"682 1409 OFFCURVE",
"770 1352 OFFCURVE",
"870 1298 CURVE",
"944 1432 LINE SMOOTH",
"950 1442 OFFCURVE",
"954 1450 OFFCURVE",
"954 1460 CURVE SMOOTH",
"954 1530 OFFCURVE",
"788 1536 OFFCURVE",
"737 1536 CURVE SMOOTH",
"502 1536 OFFCURVE",
"285 1409 OFFCURVE",
"285 1090 CURVE SMOOTH",
"285 1024 LINE",
"129 1024 LINE SMOOTH",
"72 1024 OFFCURVE",
"47 1006 OFFCURVE",
"47 946 CURVE SMOOTH",
"47 901 LINE",
"285 901 LINE",
"287 -18 LINE SMOOTH",
"287 -166 OFFCURVE",
"289 -352 OFFCURVE",
"176 -352 CURVE SMOOTH",
"111 -352 OFFCURVE",
"6 -305 OFFCURVE",
"-94 -262 CURVE",
"-160 -414 LINE SMOOTH",
"-162 -420 OFFCURVE",
"-164 -426 OFFCURVE",
"-164 -432 CURVE SMOOTH",
"-164 -485 OFFCURVE",
"-23 -492 OFFCURVE",
"31 -492 CURVE SMOOTH",
"274 -492 OFFCURVE",
"516 -342 OFFCURVE",
"516 -16 CURVE SMOOTH",
"516 901 LINE"
);
}
);
width = 879;
}
);
leftKerningGroup = f;
unicode = 0066;
},
{
glyphname = g;
lastChange = "2017-11-18 12:19:14 +0000";
layers = (
{
layerId = UUID0;
paths = (
{
closed = 1;
nodes = (
"377 850 OFFCURVE",
"453 954 OFFCURVE",
"614 954 CURVE SMOOTH",
"776 954 OFFCURVE",
"852 850 OFFCURVE",
"852 672 CURVE SMOOTH",
"852 494 OFFCURVE",
"776 387 OFFCURVE",
"614 387 CURVE SMOOTH",
"453 387 OFFCURVE",
"377 494 OFFCURVE",
"377 672 CURVE SMOOTH"
);
},
{
closed = 1;
nodes = (
"102 -184 OFFCURVE",
"49 -213 OFFCURVE",
"49 -252 CURVE SMOOTH",
"49 -379 OFFCURVE",
"360 -492 OFFCURVE",
"639 -492 CURVE SMOOTH",
"905 -492 OFFCURVE",
"1167 -389 OFFCURVE",
"1167 -176 CURVE SMOOTH",
"1167 233 OFFCURVE",
"336 14 OFFCURVE",
"336 227 CURVE SMOOTH",
"336 258 OFFCURVE",
"367 289 OFFCURVE",
"418 315 CURVE",
"477 297 OFFCURVE",
"543 287 OFFCURVE",
"614 287 CURVE SMOOTH",
"883 287 OFFCURVE",
"1087 434 OFFCURVE",
"1087 670 CURVE SMOOTH",
"1087 727 OFFCURVE",
"1075 772 OFFCURVE",
"1055 817 CURVE",
"1128 895 OFFCURVE",
"1188 895 OFFCURVE",
"1372 895 CURVE",
"1372 1030 LINE SMOOTH",
"1372 1077 OFFCURVE",
"1313 1096 OFFCURVE",
"1278 1096 CURVE SMOOTH",
"1204 1096 OFFCURVE",
"1157 1075 OFFCURVE",
"1069 967 CURVE SMOOTH",
"1010 893 LINE",
"926 995 OFFCURVE",
"782 1055 OFFCURVE",
"614 1055 CURVE SMOOTH",
"346 1055 OFFCURVE",
"141 909 OFFCURVE",
"141 672 CURVE SMOOTH",
"141 530 OFFCURVE",
"213 420 OFFCURVE",
"330 354 CURVE",
"266 319 OFFCURVE",
"176 287 OFFCURVE",
"176 180 CURVE SMOOTH",
"176 -166 OFFCURVE",
"954 -6 OFFCURVE",
"954 -213 CURVE SMOOTH",
"954 -344 OFFCURVE",
"772 -369 OFFCURVE",
"668 -369 CURVE SMOOTH",
"467 -369 OFFCURVE",
"334 -283 OFFCURVE",
"236 -135 CURVE"
);
}
);
width = 1393;
}
);
unicode = 0067;
},
{
glyphname = h;
lastChange = "2017-11-18 12:19:14 +0000";
layers = (
{
layerId = UUID0;
paths = (
{
closed = 1;
nodes = (
"82 1419 LINE",
"258 1419 LINE",
"258 78 LINE SMOOTH",
"258 4 OFFCURVE",
"307 -18 OFFCURVE",
"375 -18 CURVE SMOOTH",
"418 -18 OFFCURVE",
"481 -6 OFFCURVE",
"518 14 CURVE",
"510 51 OFFCURVE",
"489 137 OFFCURVE",
"489 301 CURVE SMOOTH",
"489 850 LINE",
"508 854 OFFCURVE",
"705 909 OFFCURVE",
"817 909 CURVE SMOOTH",
"932 909 OFFCURVE",
"956 854 OFFCURVE",
"956 719 CURVE SMOOTH",
"956 78 LINE SMOOTH",
"956 -4 OFFCURVE",
"1018 -18 OFFCURVE",
"1100 -18 CURVE SMOOTH",
"1196 -18 OFFCURVE",
"1317 0 OFFCURVE",
"1362 25 CURVE",
"1362 100 LINE",
"1188 100 LINE",
"1188 739 LINE SMOOTH",
"1188 924 OFFCURVE",
"1141 1057 OFFCURVE",
"901 1057 CURVE SMOOTH",
"717 1057 OFFCURVE",
"514 946 OFFCURVE",
"489 940 CURVE",
"489 1483 LINE SMOOTH",
"489 1536 OFFCURVE",
"459 1536 OFFCURVE",
"403 1536 CURVE SMOOTH",
"299 1536 OFFCURVE",
"137 1520 OFFCURVE",
"82 1495 CURVE"
);
}
);
width = 1438;
}
);
leftKerningGroup = h;
rightKerningGroup = n;
unicode = 0068;
},
{
glyphname = i;
lastChange = "2017-11-18 12:19:14 +0000";
layers = (
{
layerId = UUID0;
paths = (
{
closed = 1;
nodes = (
"500 989 LINE",
"500 1042 OFFCURVE",
"469 1042 OFFCURVE",
"414 1042 CURVE SMOOTH",
"309 1042 OFFCURVE",
"147 1026 OFFCURVE",
"92 1001 CURVE",
"92 926 LINE",
"268 926 LINE",
"268 78 LINE SMOOTH",
"268 -4 OFFCURVE",
"330 -18 OFFCURVE",
"412 -18 CURVE SMOOTH",
"508 -18 OFFCURVE",
"629 0 OFFCURVE",
"674 25 CURVE",
"674 100 LINE",
"500 100 LINE"
);
},
{
closed = 1;
nodes = (
"244 1298 OFFCURVE",
"307 1239 OFFCURVE",
"385 1239 CURVE SMOOTH",
"463 1239 OFFCURVE",
"526 1298 OFFCURVE",
"526 1372 CURVE SMOOTH",
"526 1448 OFFCURVE",
"463 1507 OFFCURVE",
"385 1507 CURVE SMOOTH",
"307 1507 OFFCURVE",
"244 1448 OFFCURVE",
"244 1372 CURVE SMOOTH"
);
}
);
width = 756;
}
);
leftKerningGroup = i;
rightKerningGroup = i;
unicode = 0069;
},
{
glyphname = j;
lastChange = "2017-11-18 12:19:14 +0000";
layers = (
{
layerId = UUID0;
paths = (
{
closed = 1;
nodes = (
"500 989 LINE",
"500 1042 OFFCURVE",
"469 1042 OFFCURVE",
"414 1042 CURVE SMOOTH",
"309 1042 OFFCURVE",
"147 1026 OFFCURVE",
"92 1001 CURVE",
"92 926 LINE",
"268 926 LINE",
"268 25 LINE",
"266 45 OFFCURVE",
"276 -274 OFFCURVE",
"221 -328 CURVE SMOOTH",
"203 -346 OFFCURVE",
"180 -352 OFFCURVE",
"156 -352 CURVE SMOOTH",
"90 -352 OFFCURVE",
"0 -303 OFFCURVE",
"-115 -262 CURVE",
"-180 -414 LINE SMOOTH",
"-182 -420 OFFCURVE",
"-184 -426 OFFCURVE",
"-184 -432 CURVE SMOOTH",
"-184 -485 OFFCURVE",
"-43 -492 OFFCURVE",
"10 -492 CURVE SMOOTH",
"256 -492 OFFCURVE",
"500 -342 OFFCURVE",
"500 -16 CURVE SMOOTH"
);
},
{
closed = 1;
nodes = (
"244 1298 OFFCURVE",
"307 1239 OFFCURVE",
"385 1239 CURVE SMOOTH",
"463 1239 OFFCURVE",
"526 1298 OFFCURVE",
"526 1372 CURVE SMOOTH",
"526 1448 OFFCURVE",
"463 1507 OFFCURVE",
"385 1507 CURVE SMOOTH",
"307 1507 OFFCURVE",
"244 1448 OFFCURVE",
"244 1372 CURVE SMOOTH"
);
}
);
width = 731;
}
);
unicode = 006A;
},
{
glyphname = k;
lastChange = "2017-11-18 12:19:14 +0000";
layers = (
{
layerId = UUID0;
paths = (
{
closed = 1;
nodes = (
"238 1417 LINE",
"238 78 LINE SMOOTH",
"238 4 OFFCURVE",
"287 -18 OFFCURVE",
"354 -18 CURVE SMOOTH",
"397 -18 OFFCURVE",
"461 -6 OFFCURVE",
"498 14 CURVE",
"489 51 OFFCURVE",
"469 137 OFFCURVE",
"469 301 CURVE SMOOTH",
"469 1481 LINE SMOOTH",
"469 1534 OFFCURVE",
"438 1534 OFFCURVE",
"383 1534 CURVE SMOOTH",
"279 1534 OFFCURVE",
"117 1518 OFFCURVE",
"61 1493 CURVE",
"61 1417 LINE"
);
},
{
closed = 1;
nodes = (
"1106 1022 OFFCURVE",
"1083 1055 OFFCURVE",
"1038 1055 CURVE SMOOTH",
"989 1055 OFFCURVE",
"979 1038 OFFCURVE",
"842 971 CURVE",
"848 956 OFFCURVE",
"850 942 OFFCURVE",
"850 924 CURVE SMOOTH",
"850 788 OFFCURVE",
"606 608 OFFCURVE",
"520 532 CURVE SMOOTH",
"504 518 OFFCURVE",
"498 502 OFFCURVE",
"498 487 CURVE SMOOTH",
"498 465 OFFCURVE",
"512 449 OFFCURVE",
"512 449 CURVE SMOOTH",
"840 29 LINE SMOOTH",
"864 -4 OFFCURVE",
"895 -18 OFFCURVE",
"926 -18 CURVE SMOOTH",
"1022 -18 OFFCURVE",
"1167 102 OFFCURVE",
"1214 193 CURVE",
"1174 254 LINE",
"1026 158 LINE",
"709 563 LINE",
"850 670 OFFCURVE",
"1106 852 OFFCURVE",
"1106 981 CURVE SMOOTH"
);
}
);
width = 1276;
}
);
leftKerningGroup = h;
unicode = 006B;
},
{
glyphname = l;
lastChange = "2017-11-18 12:19:14 +0000";
layers = (
{
layerId = UUID0;
paths = (
{
closed = 1;
nodes = (
"469 1483 LINE",
"469 1536 OFFCURVE",
"438 1536 OFFCURVE",
"383 1536 CURVE SMOOTH",
"279 1536 OFFCURVE",
"117 1520 OFFCURVE",
"61 1495 CURVE",
"61 1419 LINE",
"238 1419 LINE",
"238 78 LINE SMOOTH",
"238 -4 OFFCURVE",
"299 -18 OFFCURVE",
"381 -18 CURVE SMOOTH",
"477 -18 OFFCURVE",
"598 0 OFFCURVE",
"643 25 CURVE",
"643 100 LINE",
"469 100 LINE"
);
}
);
width = 725;
}
);
leftKerningGroup = l;
unicode = 006C;
},
{
glyphname = m;
lastChange = "2017-11-18 12:19:14 +0000";
layers = (
{
layerId = UUID0;
paths = (
{
closed = 1;
nodes = (
"1161 745 LINE",
"1161 782 OFFCURVE",
"1159 819 OFFCURVE",
"1155 852 CURVE",
"1210 866 OFFCURVE",
"1407 905 OFFCURVE",
"1475 905 CURVE SMOOTH",
"1583 905 OFFCURVE",
"1591 840 OFFCURVE",
"1591 731 CURVE SMOOTH",
"1591 78 LINE SMOOTH",
"1591 -4 OFFCURVE",
"1653 -18 OFFCURVE",
"1735 -18 CURVE SMOOTH",
"1831 -18 OFFCURVE",
"1952 0 OFFCURVE",
"1997 25 CURVE",
"1997 100 LINE",
"1823 100 LINE",
"1823 745 LINE SMOOTH",
"1823 928 OFFCURVE",
"1786 1055 OFFCURVE",
"1550 1055 CURVE SMOOTH",
"1364 1055 OFFCURVE",
"1133 934 OFFCURVE",
"1133 938 CURVE",
"1098 1030 OFFCURVE",
"1004 1055 OFFCURVE",
"911 1055 CURVE SMOOTH",
"727 1055 OFFCURVE",
"500 934 OFFCURVE",
"500 938 CURVE SMOOTH",
"500 987 LINE SMOOTH",
"500 1040 OFFCURVE",
"469 1040 OFFCURVE",
"414 1040 CURVE SMOOTH",
"309 1040 OFFCURVE",
"147 1024 OFFCURVE",
"92 999 CURVE",
"92 924 LINE",
"268 924 LINE",
"268 78 LINE SMOOTH",
"268 4 OFFCURVE",
"317 -18 OFFCURVE",
"385 -18 CURVE SMOOTH",
"428 -18 OFFCURVE",
"492 -6 OFFCURVE",
"528 14 CURVE",
"520 51 OFFCURVE",
"500 137 OFFCURVE",
"500 301 CURVE SMOOTH",
"500 848 LINE",
"498 848 OFFCURVE",
"705 905 OFFCURVE",
"813 905 CURVE SMOOTH",
"922 905 OFFCURVE",
"930 840 OFFCURVE",
"930 731 CURVE SMOOTH",
"930 78 LINE SMOOTH",
"930 4 OFFCURVE",
"979 -18 OFFCURVE",
"1047 -18 CURVE SMOOTH",
"1090 -18 OFFCURVE",
"1153 -6 OFFCURVE",
"1190 14 CURVE",
"1182 51 OFFCURVE",
"1161 137 OFFCURVE",
"1161 301 CURVE SMOOTH"
);
}
);
width = 2073;
}
);
leftKerningGroup = n;
rightKerningGroup = n;
unicode = 006D;
},
{
glyphname = n;
lastChange = "2017-11-18 12:19:14 +0000";
layers = (
{
layerId = UUID0;
paths = (
{
closed = 1;
nodes = (
"268 78 LINE",
"268 4 OFFCURVE",
"317 -18 OFFCURVE",
"385 -18 CURVE SMOOTH",
"428 -18 OFFCURVE",
"492 -6 OFFCURVE",
"528 14 CURVE",
"520 51 OFFCURVE",
"500 137 OFFCURVE",
"500 301 CURVE SMOOTH",
"500 848 LINE",
"514 852 OFFCURVE",
"717 907 OFFCURVE",
"827 907 CURVE SMOOTH",
"942 907 OFFCURVE",
"967 852 OFFCURVE",
"967 717 CURVE SMOOTH",
"967 78 LINE SMOOTH",
"967 -4 OFFCURVE",
"1028 -18 OFFCURVE",
"1110 -18 CURVE SMOOTH",
"1206 -18 OFFCURVE",
"1327 0 OFFCURVE",
"1372 25 CURVE",
"1372 100 LINE",
"1198 100 LINE",
"1198 737 LINE SMOOTH",
"1198 920 OFFCURVE",
"1153 1055 OFFCURVE",
"922 1055 CURVE SMOOTH",
"731 1055 OFFCURVE",
"539 952 OFFCURVE",
"500 938 CURVE",
"500 987 LINE SMOOTH",
"500 1040 OFFCURVE",
"469 1040 OFFCURVE",
"414 1040 CURVE SMOOTH",
"309 1040 OFFCURVE",
"147 1024 OFFCURVE",
"92 999 CURVE",
"92 924 LINE",
"268 924 LINE"
);
}
);
width = 1448;
}
);
leftKerningGroup = n;
rightKerningGroup = n;
unicode = 006E;
},
{
glyphname = o;
lastChange = "2017-11-18 12:19:14 +0000";
layers = (
{
layerId = UUID0;
paths = (
{
closed = 1;
nodes = (
"1212 838 OFFCURVE",
"971 1055 OFFCURVE",
"664 1055 CURVE SMOOTH",
"356 1055 OFFCURVE",
"113 838 OFFCURVE",
"113 510 CURVE SMOOTH",
"113 186 OFFCURVE",
"356 -31 OFFCURVE",
"664 -31 CURVE SMOOTH",
"969 -31 OFFCURVE",
"1212 184 OFFCURVE",
"1212 510 CURVE SMOOTH"
);
},
{
closed = 1;
nodes = (
"360 739 OFFCURVE",
"420 948 OFFCURVE",
"664 948 CURVE SMOOTH",
"907 948 OFFCURVE",
"965 739 OFFCURVE",
"965 512 CURVE SMOOTH",
"965 285 OFFCURVE",
"907 76 OFFCURVE",
"664 76 CURVE SMOOTH",
"420 76 OFFCURVE",
"360 285 OFFCURVE",
"360 512 CURVE SMOOTH"
);
}
);
width = 1325;
}
);
leftKerningGroup = o;
rightKerningGroup = o;
unicode = 006F;
},
{
glyphname = p;
lastChange = "2017-11-18 12:19:14 +0000";
layers = (
{
layerId = UUID0;
paths = (
{
closed = 1;
nodes = (
"502 840 LINE",
"502 840 OFFCURVE",
"684 936 OFFCURVE",
"825 936 CURVE SMOOTH",
"995 936 OFFCURVE",
"1042 776 OFFCURVE",
"1042 518 CURVE SMOOTH",
"1042 285 OFFCURVE",
"958 90 OFFCURVE",
"772 90 CURVE SMOOTH",
"670 90 OFFCURVE",
"578 145 OFFCURVE",
"502 188 CURVE"
);
},
{
closed = 1;
nodes = (
"522 -424 OFFCURVE",
"502 -338 OFFCURVE",
"502 -174 CURVE SMOOTH",
"502 68 LINE",
"502 66 OFFCURVE",
"639 -31 OFFCURVE",
"829 -31 CURVE SMOOTH",
"1141 -31 OFFCURVE",
"1292 246 OFFCURVE",
"1292 516 CURVE SMOOTH",
"1292 780 OFFCURVE",
"1186 1055 OFFCURVE",
"858 1055 CURVE SMOOTH",
"715 1055 OFFCURVE",
"580 997 OFFCURVE",
"502 940 CURVE",
"502 987 LINE SMOOTH",
"502 1040 OFFCURVE",
"471 1040 OFFCURVE",
"416 1040 CURVE SMOOTH",
"311 1040 OFFCURVE",
"147 1024 OFFCURVE",
"92 999 CURVE",
"92 924 LINE",
"270 924 LINE",
"270 -393 LINE SMOOTH",
"270 -467 OFFCURVE",
"319 -494 OFFCURVE",
"387 -494 CURVE SMOOTH",
"430 -494 OFFCURVE",
"494 -481 OFFCURVE",
"530 -461 CURVE"
);
}
);
width = 1405;
}
);
unicode = 0070;
},
{
glyphname = q;
lastChange = "2017-11-18 12:19:14 +0000";
layers = (
{
layerId = UUID0;
paths = (
{
closed = 1;
nodes = (
"461 90 OFFCURVE",
"360 260 OFFCURVE",
"360 504 CURVE SMOOTH",
"360 788 OFFCURVE",
"475 944 OFFCURVE",
"680 944 CURVE SMOOTH",
"786 944 OFFCURVE",
"903 913 OFFCURVE",
"903 911 CURVE",
"903 193 LINE",
"807 133 OFFCURVE",
"733 90 OFFCURVE",
"625 90 CURVE SMOOTH"
);
},
{
closed = 1;
nodes = (
"1135 -373 LINE",
"1135 950 LINE",
"1030 995 OFFCURVE",
"858 1055 OFFCURVE",
"672 1055 CURVE SMOOTH",
"342 1055 OFFCURVE",
"113 836 OFFCURVE",
"113 483 CURVE SMOOTH",
"113 221 OFFCURVE",
"240 -31 OFFCURVE",
"561 -31 CURVE SMOOTH",
"694 -31 OFFCURVE",
"825 27 OFFCURVE",
"903 76 CURVE",
"903 -395 LINE SMOOTH",
"903 -477 OFFCURVE",
"965 -492 OFFCURVE",
"1047 -492 CURVE SMOOTH",
"1143 -492 OFFCURVE",
"1264 -473 OFFCURVE",
"1309 -449 CURVE",
"1309 -373 LINE"
);
}
);
width = 1350;
}
);
unicode = 0071;
},
{
glyphname = r;
lastChange = "2017-11-18 12:19:14 +0000";
layers = (
{
layerId = UUID0;
paths = (
{
closed = 1;
nodes = (
"92 922 LINE",
"268 922 LINE",
"268 78 LINE SMOOTH",
"268 4 OFFCURVE",
"317 -18 OFFCURVE",
"385 -18 CURVE SMOOTH",
"428 -18 OFFCURVE",
"492 -6 OFFCURVE",
"528 14 CURVE",
"520 51 OFFCURVE",
"500 137 OFFCURVE",
"500 301 CURVE SMOOTH",
"500 612 LINE",
"553 674 OFFCURVE",
"672 864 OFFCURVE",
"817 864 CURVE SMOOTH",
"852 864 OFFCURVE",
"891 858 OFFCURVE",
"942 842 CURVE",
"985 983 LINE SMOOTH",
"987 989 OFFCURVE",
"987 993 OFFCURVE",
"987 999 CURVE SMOOTH",
"987 1049 OFFCURVE",
"901 1055 OFFCURVE",
"866 1055 CURVE SMOOTH",
"768 1055 OFFCURVE",
"690 1014 OFFCURVE",
"627 926 CURVE SMOOTH",
"500 745 LINE",
"500 985 LINE SMOOTH",
"500 1038 OFFCURVE",
"469 1038 OFFCURVE",
"414 1038 CURVE SMOOTH",
"309 1038 OFFCURVE",
"147 1022 OFFCURVE",
"92 997 CURVE"
);
}
);
width = 1030;
}
);
leftKerningGroup = n;
unicode = 0072;
},
{
glyphname = s;
lastChange = "2017-11-18 12:19:14 +0000";
layers = (
{
layerId = UUID0;
paths = (
{
closed = 1;
nodes = (
"121 131 LINE SMOOTH",
"117 123 OFFCURVE",
"115 115 OFFCURVE",
"115 106 CURVE SMOOTH",
"115 51 OFFCURVE",
"346 -31 OFFCURVE",
"512 -31 CURVE SMOOTH",
"705 -31 OFFCURVE",
"930 51 OFFCURVE",
"930 285 CURVE SMOOTH",
"930 616 OFFCURVE",
"324 569 OFFCURVE",
"324 815 CURVE SMOOTH",
"324 893 OFFCURVE",
"389 938 OFFCURVE",
"481 938 CURVE SMOOTH",
"608 938 OFFCURVE",
"737 858 OFFCURVE",
"788 825 CURVE",
"856 956 LINE SMOOTH",
"860 965 OFFCURVE",
"862 971 OFFCURVE",
"862 977 CURVE SMOOTH",
"862 1034 OFFCURVE",
"692 1055 OFFCURVE",
"569 1055 CURVE SMOOTH",
"371 1055 OFFCURVE",
"143 975 OFFCURVE",
"143 770 CURVE SMOOTH",
"143 565 OFFCURVE",
"315 498 OFFCURVE",
"471 428 CURVE SMOOTH",
"563 387 OFFCURVE",
"723 334 OFFCURVE",
"723 225 CURVE SMOOTH",
"723 131 OFFCURVE",
"641 78 OFFCURVE",
"553 78 CURVE SMOOTH",
"412 78 OFFCURVE",
"272 190 OFFCURVE",
"201 242 CURVE"
);
}
);
width = 1044;
}
);
unicode = 0073;
},
{
glyphname = t;
lastChange = "2017-11-18 12:19:14 +0000";
layers = (
{
layerId = UUID0;
paths = (
{
closed = 1;
nodes = (
"500 1024 LINE",
"500 1204 OFFCURVE",
"520 1288 OFFCURVE",
"528 1325 CURVE",
"492 1346 OFFCURVE",
"428 1356 OFFCURVE",
"385 1356 CURVE SMOOTH",
"317 1356 OFFCURVE",
"268 1335 OFFCURVE",
"268 1262 CURVE SMOOTH",
"268 1024 LINE",
"143 1024 LINE SMOOTH",
"86 1024 OFFCURVE",
"61 1006 OFFCURVE",
"61 946 CURVE SMOOTH",
"61 901 LINE",
"268 901 LINE",
"268 297 LINE SMOOTH",
"268 92 OFFCURVE",
"389 -31 OFFCURVE",
"584 -31 CURVE SMOOTH",
"733 -31 OFFCURVE",
"819 12 OFFCURVE",
"913 70 CURVE",
"881 139 LINE",
"883 145 OFFCURVE",
"766 88 OFFCURVE",
"666 88 CURVE SMOOTH",
"555 88 OFFCURVE",
"500 166 OFFCURVE",
"500 315 CURVE SMOOTH",
"500 901 LINE",
"766 901 LINE SMOOTH",
"823 901 OFFCURVE",
"848 922 OFFCURVE",
"848 981 CURVE SMOOTH",
"848 1024 LINE",
"500 1024 LINE"
);
}
);
width = 954;
}
);
unicode = 0074;
},
{
glyphname = u;
lastChange = "2017-11-18 12:19:14 +0000";
layers = (
{
layerId = UUID0;
paths = (
{
closed = 1;
nodes = (
"950 928 LINE",
"950 176 LINE",
"952 176 OFFCURVE",
"725 117 OFFCURVE",
"623 117 CURVE SMOOTH",
"508 117 OFFCURVE",
"483 172 OFFCURVE",
"483 307 CURVE SMOOTH",
"483 991 LINE SMOOTH",
"483 1044 OFFCURVE",
"453 1044 OFFCURVE",
"397 1044 CURVE SMOOTH",
"293 1044 OFFCURVE",
"131 1028 OFFCURVE",
"76 1004 CURVE",
"76 928 LINE",
"252 928 LINE",
"252 287 LINE SMOOTH",
"252 102 OFFCURVE",
"297 -31 OFFCURVE",
"537 -31 CURVE SMOOTH",
"723 -31 OFFCURVE",
"950 90 OFFCURVE",
"950 86 CURVE SMOOTH",
"950 78 LINE SMOOTH",
"950 -4 OFFCURVE",
"1012 -18 OFFCURVE",
"1094 -18 CURVE SMOOTH",
"1190 -18 OFFCURVE",
"1311 0 OFFCURVE",
"1356 25 CURVE",
"1356 100 LINE",
"1182 100 LINE",
"1182 991 LINE SMOOTH",
"1182 1044 OFFCURVE",
"1151 1044 OFFCURVE",
"1096 1044 CURVE SMOOTH",
"991 1044 OFFCURVE",
"829 1028 OFFCURVE",
"774 1004 CURVE",
"774 928 LINE"
);
}
);
width = 1448;
}
);
leftKerningGroup = u;
rightKerningGroup = u;
unicode = 0075;
},
{
glyphname = v;
lastChange = "2017-11-18 12:19:14 +0000";
layers = (
{
layerId = UUID0;
paths = (
{
closed = 1;
nodes = (
"395 1030 OFFCURVE",
"373 1042 OFFCURVE",
"348 1042 CURVE SMOOTH",
"274 1042 OFFCURVE",
"82 913 OFFCURVE",
"18 858 CURVE",
"49 788 LINE",
"207 858 LINE",
"539 78 LINE SMOOTH",
"561 23 OFFCURVE",
"608 0 OFFCURVE",
"653 0 CURVE SMOOTH",
"758 0 LINE",
"893 252 OFFCURVE",
"1143 735 OFFCURVE",
"1143 944 CURVE SMOOTH",
"1143 987 OFFCURVE",
"1128 1042 OFFCURVE",
"1079 1042 CURVE SMOOTH",
"1063 1042 OFFCURVE",
"1044 1036 OFFCURVE",
"1022 1026 CURVE SMOOTH",
"891 961 LINE",
"909 915 OFFCURVE",
"942 852 OFFCURVE",
"942 758 CURVE SMOOTH",
"942 582 OFFCURVE",
"823 311 OFFCURVE",
"735 172 CURVE",
"711 190 OFFCURVE",
"412 983 OFFCURVE",
"408 995 CURVE SMOOTH"
);
}
);
width = 1251;
}
);
leftKerningGroup = v;
unicode = 0076;
},
{
glyphname = w;
lastChange = "2017-11-18 12:19:14 +0000";
layers = (
{
layerId = UUID0;
paths = (
{
closed = 1;
nodes = (
"55 797 LINE",
"203 862 LINE",
"518 74 LINE SMOOTH",
"541 23 OFFCURVE",
"586 -2 OFFCURVE",
"631 -2 CURVE SMOOTH",
"735 -2 LINE",
"813 129 OFFCURVE",
"922 406 OFFCURVE",
"975 567 CURVE",
"1161 74 LINE SMOOTH",
"1182 23 OFFCURVE",
"1227 -2 OFFCURVE",
"1272 -2 CURVE SMOOTH",
"1376 -2 LINE",
"1516 236 OFFCURVE",
"1731 733 OFFCURVE",
"1731 940 CURVE SMOOTH",
"1731 981 OFFCURVE",
"1722 1042 OFFCURVE",
"1671 1042 CURVE SMOOTH",
"1647 1042 OFFCURVE",
"1602 1022 OFFCURVE",
"1577 1010 CURVE SMOOTH",
"1479 961 LINE",
"1499 922 OFFCURVE",
"1524 866 OFFCURVE",
"1524 778 CURVE SMOOTH",
"1524 602 OFFCURVE",
"1425 315 OFFCURVE",
"1354 166 CURVE",
"1329 184 OFFCURVE",
"1059 987 OFFCURVE",
"1059 987 CURVE SMOOTH",
"1042 1028 OFFCURVE",
"1014 1042 OFFCURVE",
"983 1042 CURVE SMOOTH",
"922 1042 OFFCURVE",
"844 989 OFFCURVE",
"815 963 CURVE",
"897 760 LINE",
"856 565 OFFCURVE",
"723 184 OFFCURVE",
"713 166 CURVE",
"688 184 OFFCURVE",
"410 971 OFFCURVE",
"406 983 CURVE SMOOTH",
"389 1030 OFFCURVE",
"360 1042 OFFCURVE",
"332 1042 CURVE SMOOTH",
"211 1042 OFFCURVE",
"84 920 OFFCURVE",
"18 862 CURVE"
);
}
);
width = 1839;
}
);
unicode = 0077;
},
{
glyphname = x;
lastChange = "2017-11-18 12:19:14 +0000";
layers = (
{
layerId = UUID0;
paths = (
{
closed = 1;
nodes = (
"989 152 LINE",
"727 563 LINE",
"868 702 OFFCURVE",
"1032 866 OFFCURVE",
"1032 977 CURVE SMOOTH",
"1032 1020 OFFCURVE",
"1014 1044 OFFCURVE",
"975 1044 CURVE SMOOTH",
"954 1044 OFFCURVE",
"922 1042 OFFCURVE",
"780 969 CURVE",
"786 952 OFFCURVE",
"799 928 OFFCURVE",
"799 895 CURVE SMOOTH",
"799 868 OFFCURVE",
"797 817 OFFCURVE",
"670 651 CURVE",
"596 762 OFFCURVE",
"518 881 OFFCURVE",
"424 1016 CURVE SMOOTH",
"410 1036 OFFCURVE",
"391 1044 OFFCURVE",
"371 1044 CURVE SMOOTH",
"264 1044 OFFCURVE",
"92 872 OFFCURVE",
"70 823 CURVE",
"109 760 LINE",
"256 854 LINE",
"489 500 LINE",
"330 330 OFFCURVE",
"158 150 OFFCURVE",
"158 43 CURVE SMOOTH",
"158 2 OFFCURVE",
"180 -20 OFFCURVE",
"219 -20 CURVE SMOOTH",
"281 -20 OFFCURVE",
"340 20 OFFCURVE",
"410 59 CURVE",
"401 78 OFFCURVE",
"397 98 OFFCURVE",
"397 119 CURVE SMOOTH",
"397 225 OFFCURVE",
"500 344 OFFCURVE",
"547 414 CURVE",
"805 27 LINE SMOOTH",
"827 -8 OFFCURVE",
"854 -20 OFFCURVE",
"887 -20 CURVE SMOOTH",
"997 -20 OFFCURVE",
"1133 96 OFFCURVE",
"1174 188 CURVE",
"1135 250 LINE"
);
}
);
width = 1227;
}
);
unicode = 0078;
},
{
glyphname = y;
lastChange = "2017-11-18 12:19:14 +0000";
layers = (
{
layerId = UUID0;
paths = (
{
closed = 1;
nodes = (
"1047 1042 OFFCURVE",
"1028 1036 OFFCURVE",
"1006 1026 CURVE SMOOTH",
"874 961 LINE",
"909 903 OFFCURVE",
"926 834 OFFCURVE",
"926 764 CURVE SMOOTH",
"926 604 OFFCURVE",
"807 348 OFFCURVE",
"715 180 CURVE",
"684 248 OFFCURVE",
"381 987 OFFCURVE",
"379 995 CURVE SMOOTH",
"369 1030 OFFCURVE",
"336 1042 OFFCURVE",
"303 1042 CURVE SMOOTH",
"188 1042 OFFCURVE",
"55 918 OFFCURVE",
"-10 858 CURVE",
"27 791 LINE",
"178 858 LINE",
"582 -68 LINE",
"530 -170 OFFCURVE",
"408 -328 OFFCURVE",
"295 -328 CURVE SMOOTH",
"231 -328 OFFCURVE",
"160 -301 OFFCURVE",
"61 -272 CURVE",
"6 -420 LINE SMOOTH",
"4 -426 OFFCURVE",
"2 -430 OFFCURVE",
"2 -436 CURVE SMOOTH",
"2 -487 OFFCURVE",
"119 -494 OFFCURVE",
"160 -494 CURVE SMOOTH",
"473 -494 OFFCURVE",
"641 -223 OFFCURVE",
"768 0 CURVE SMOOTH",
"909 250 OFFCURVE",
"1126 702 OFFCURVE",
"1126 936 CURVE SMOOTH",
"1126 981 OFFCURVE",
"1114 1042 OFFCURVE",
"1063 1042 CURVE SMOOTH"
);
}
);
width = 1229;
}
);
leftKerningGroup = y;
rightKerningGroup = y;
unicode = 0079;
},
{
glyphname = z;
lastChange = "2017-11-18 12:19:14 +0000";
layers = (
{
layerId = UUID0;
paths = (
{
closed = 1;
nodes = (
"547 121 LINE",
"772 121 OFFCURVE",
"999 174 OFFCURVE",
"999 174 CURVE",
"1016 66 LINE SMOOTH",
"1016 61 OFFCURVE",
"1016 57 OFFCURVE",
"1016 55 CURVE SMOOTH",
"1016 4 OFFCURVE",
"958 -8 OFFCURVE",
"918 -8 CURVE SMOOTH",
"195 0 LINE SMOOTH",
"143 0 OFFCURVE",
"115 25 OFFCURVE",
"115 82 CURVE SMOOTH",
"115 135 LINE",
"743 913 LINE",
"238 901 OFFCURVE",
"221 840 OFFCURVE",
"162 840 CURVE",
"135 958 LINE SMOOTH",
"133 965 OFFCURVE",
"133 969 OFFCURVE",
"133 973 CURVE SMOOTH",
"133 1014 OFFCURVE",
"164 1032 OFFCURVE",
"223 1032 CURVE SMOOTH",
"426 1032 OFFCURVE",
"893 1024 OFFCURVE",
"893 1024 CURVE SMOOTH",
"948 1022 OFFCURVE",
"979 999 OFFCURVE",
"979 942 CURVE SMOOTH",
"979 891 LINE",
"346 121 LINE"
);
}
);
width = 1130;
}
);
unicode = 007A;
},
{
glyphname = braceleft;
lastChange = "2017-11-18 12:19:14 +0000";
layers = (
{
layerId = UUID0;
paths = (
{
closed = 1;
nodes = (
"330 1323 LINE SMOOTH",
"328 1434 OFFCURVE",
"365 1442 OFFCURVE",
"438 1442 CURVE SMOOTH",
"551 1442 LINE",
"551 1456 LINE SMOOTH",
"551 1516 OFFCURVE",
"526 1536 OFFCURVE",
"469 1536 CURVE SMOOTH",
"399 1536 LINE SMOOTH",
"287 1536 OFFCURVE",
"180 1495 OFFCURVE",
"182 1325 CURVE SMOOTH",
"186 864 LINE",
"186 705 OFFCURVE",
"82 715 OFFCURVE",
"82 647 CURVE SMOOTH",
"82 612 LINE",
"113 598 OFFCURVE",
"180 565 OFFCURVE",
"182 430 CURVE SMOOTH",
"186 -31 LINE SMOOTH",
"188 -201 OFFCURVE",
"283 -242 OFFCURVE",
"399 -242 CURVE SMOOTH",
"469 -242 LINE SMOOTH",
"526 -242 OFFCURVE",
"551 -221 OFFCURVE",
"551 -162 CURVE SMOOTH",
"551 -147 LINE",
"438 -147 LINE SMOOTH",
"362 -147 OFFCURVE",
"334 -139 OFFCURVE",
"334 -29 CURVE SMOOTH",
"330 428 LINE SMOOTH",
"328 600 OFFCURVE",
"215 645 OFFCURVE",
"207 647 CURVE",
"221 651 OFFCURVE",
"334 698 OFFCURVE",
"334 866 CURVE"
);
}
);
width = 633;
}
);
unicode = 007B;
},
{
glyphname = bar;
lastChange = "2017-11-18 12:19:14 +0000";
layers = (
{
layerId = UUID0;
paths = (
{
closed = 1;
nodes = (
"270 1454 LINE",
"270 1511 OFFCURVE",
"250 1536 OFFCURVE",
"190 1536 CURVE SMOOTH",
"123 1536 LINE",
"123 63 LINE SMOOTH",
"123 6 OFFCURVE",
"141 -18 OFFCURVE",
"201 -18 CURVE SMOOTH",
"270 -18 LINE"
);
}
);
width = 387;
}
);
unicode = 007C;
},
{
glyphname = braceright;
lastChange = "2017-11-18 12:19:14 +0000";
layers = (
{
layerId = UUID0;
paths = (
{
closed = 1;
nodes = (
"303 1323 LINE SMOOTH",
"305 1434 OFFCURVE",
"268 1442 OFFCURVE",
"195 1442 CURVE SMOOTH",
"82 1442 LINE",
"82 1456 LINE SMOOTH",
"82 1516 OFFCURVE",
"106 1536 OFFCURVE",
"164 1536 CURVE SMOOTH",
"233 1536 LINE SMOOTH",
"346 1536 OFFCURVE",
"453 1495 OFFCURVE",
"451 1325 CURVE SMOOTH",
"446 864 LINE",
"446 705 OFFCURVE",
"551 715 OFFCURVE",
"551 647 CURVE SMOOTH",
"551 612 LINE",
"520 598 OFFCURVE",
"453 565 OFFCURVE",
"451 430 CURVE SMOOTH",
"446 -31 LINE SMOOTH",
"444 -201 OFFCURVE",
"350 -242 OFFCURVE",
"233 -242 CURVE SMOOTH",
"164 -242 LINE SMOOTH",
"106 -242 OFFCURVE",
"82 -221 OFFCURVE",
"82 -162 CURVE SMOOTH",
"82 -147 LINE",
"195 -147 LINE SMOOTH",
"270 -147 OFFCURVE",
"299 -139 OFFCURVE",
"299 -29 CURVE SMOOTH",
"303 428 LINE SMOOTH",
"305 600 OFFCURVE",
"418 645 OFFCURVE",
"426 647 CURVE",
"412 651 OFFCURVE",
"299 698 OFFCURVE",
"299 866 CURVE"
);
}
);
width = 633;
}
);
unicode = 007D;
},
{
glyphname = asciitilde;
lastChange = "2017-11-18 12:19:14 +0000";
layers = (
{
layerId = UUID0;
paths = (
{
closed = 1;
nodes = (
"823 375 OFFCURVE",
"938 422 OFFCURVE",
"938 489 CURVE SMOOTH",
"938 512 OFFCURVE",
"928 537 OFFCURVE",
"885 588 CURVE",
"885 586 OFFCURVE",
"809 518 OFFCURVE",
"694 518 CURVE SMOOTH",
"541 518 OFFCURVE",
"408 641 OFFCURVE",
"258 641 CURVE SMOOTH",
"121 641 OFFCURVE",
"35 539 OFFCURVE",
"35 539 CURVE SMOOTH",
"12 514 OFFCURVE",
"0 498 OFFCURVE",
"0 481 CURVE SMOOTH",
"0 463 OFFCURVE",
"12 446 OFFCURVE",
"74 389 CURVE",
"102 426 OFFCURVE",
"156 504 OFFCURVE",
"256 504 CURVE SMOOTH",
"408 504 OFFCURVE",
"547 375 OFFCURVE",
"707 375 CURVE SMOOTH"
);
}
);
width = 938;
}
);
unicode = 007E;
},
{
glyphname = exclamdown;
lastChange = "2017-11-18 12:19:14 +0000";
layers = (
{
layerId = UUID0;
paths = (
{
closed = 1;
nodes = (
"422 705 LINE",
"418 768 OFFCURVE",
"387 793 OFFCURVE",
"328 793 CURVE SMOOTH",
"301 793 OFFCURVE",
"268 782 OFFCURVE",
"252 770 CURVE",
"256 745 OFFCURVE",
"260 717 OFFCURVE",
"260 662 CURVE SMOOTH",
"260 625 OFFCURVE",
"260 580 OFFCURVE",
"256 516 CURVE SMOOTH",
"219 -168 LINE SMOOTH",
"215 -242 OFFCURVE",
"268 -268 OFFCURVE",
"338 -268 CURVE SMOOTH",
"385 -268 OFFCURVE",
"457 -254 OFFCURVE",
"496 -231 CURVE",
"487 -193 OFFCURVE",
"471 -100 OFFCURVE",
"461 66 CURVE SMOOTH"
);
},
{
closed = 1;
nodes = (
"428 950 OFFCURVE",
"487 1012 OFFCURVE",
"487 1087 CURVE SMOOTH",
"487 1167 OFFCURVE",
"428 1229 OFFCURVE",
"342 1229 CURVE SMOOTH",
"254 1229 OFFCURVE",
"193 1167 OFFCURVE",
"193 1087 CURVE SMOOTH",
"193 1012 OFFCURVE",
"254 950 OFFCURVE",
"342 950 CURVE SMOOTH"
);
}
);
width = 696;
}
);
unicode = 00A1;
},
{
glyphname = sterling;
lastChange = "2017-11-18 12:19:14 +0000";
layers = (
{
layerId = UUID0;
paths = (
{
closed = 1;
nodes = (
"854 690 LINE",
"895 690 OFFCURVE",
"911 705 OFFCURVE",
"911 748 CURVE SMOOTH",
"911 791 LINE",
"530 791 LINE",
"510 891 OFFCURVE",
"483 991 OFFCURVE",
"483 1094 CURVE SMOOTH",
"483 1247 OFFCURVE",
"578 1317 OFFCURVE",
"668 1317 CURVE SMOOTH",
"809 1317 OFFCURVE",
"930 1233 OFFCURVE",
"999 1139 CURVE",
"1083 1280 LINE SMOOTH",
"1163 1417 OFFCURVE",
"780 1450 OFFCURVE",
"715 1450 CURVE SMOOTH",
"500 1450 OFFCURVE",
"258 1403 OFFCURVE",
"258 1094 CURVE SMOOTH",
"258 999 OFFCURVE",
"287 895 OFFCURVE",
"313 791 CURVE",
"180 791 LINE SMOOTH",
"139 791 OFFCURVE",
"123 778 OFFCURVE",
"123 735 CURVE SMOOTH",
"123 690 LINE",
"338 690 LINE",
"381 477 OFFCURVE",
"414 260 OFFCURVE",
"102 86 CURVE",
"102 29 OFFCURVE",
"119 6 OFFCURVE",
"180 0 CURVE SMOOTH",
"303 -12 OFFCURVE",
"897 -18 OFFCURVE",
"1030 0 CURVE SMOOTH",
"1112 12 OFFCURVE",
"1135 68 OFFCURVE",
"1126 131 CURVE SMOOTH",
"1120 176 OFFCURVE",
"1104 225 OFFCURVE",
"1104 225 CURVE",
"932 170 OFFCURVE",
"702 119 OFFCURVE",
"524 119 CURVE SMOOTH",
"356 119 LINE",
"596 328 OFFCURVE",
"578 512 OFFCURVE",
"551 690 CURVE"
);
}
);
width = 1219;
}
);
unicode = 00A3;
},
{
glyphname = brokenbar;
lastChange = "2017-11-18 12:19:14 +0000";
layers = (
{
layerId = UUID0;
paths = (
{
closed = 1;
nodes = (
"287 1473 LINE",
"287 1530 OFFCURVE",
"266 1554 OFFCURVE",
"207 1554 CURVE SMOOTH",
"164 1554 LINE",
"164 819 LINE SMOOTH",
"164 762 OFFCURVE",
"182 737 OFFCURVE",
"242 737 CURVE SMOOTH",
"287 737 LINE"
);
},
{
closed = 1;
nodes = (
"287 246 LINE",
"287 303 OFFCURVE",
"266 328 OFFCURVE",
"207 328 CURVE SMOOTH",
"164 328 LINE",
"164 -408 LINE SMOOTH",
"164 -465 OFFCURVE",
"182 -489 OFFCURVE",
"242 -489 CURVE SMOOTH",
"287 -489 LINE"
);
}
);
width = 451;
}
);
unicode = 00A6;
},
{
glyphname = dieresis;
lastChange = "2017-11-18 12:19:14 +0000";
layers = (
{
layerId = UUID0;
paths = (
{
closed = 1;
nodes = (
"250 1516 OFFCURVE",
"205 1468 OFFCURVE",
"205 1411 CURVE SMOOTH",
"205 1350 OFFCURVE",
"250 1303 OFFCURVE",
"315 1303 CURVE SMOOTH",
"383 1303 OFFCURVE",
"430 1350 OFFCURVE",
"430 1411 CURVE SMOOTH",
"430 1468 OFFCURVE",
"383 1516 OFFCURVE",
"315 1516 CURVE SMOOTH"
);
},
{
closed = 1;
nodes = (
"641 1516 OFFCURVE",
"596 1468 OFFCURVE",
"596 1411 CURVE SMOOTH",
"596 1350 OFFCURVE",
"641 1303 OFFCURVE",
"707 1303 CURVE SMOOTH",
"774 1303 OFFCURVE",
"821 1350 OFFCURVE",
"821 1411 CURVE SMOOTH",
"821 1468 OFFCURVE",
"774 1516 OFFCURVE",
"707 1516 CURVE SMOOTH"
);
}
);
width = 1026;
}
);
unicode = 00A8;
},
{
glyphname = copyright;
lastChange = "2017-11-18 12:19:14 +0000";
layers = (
{
layerId = UUID0;
paths = (
{
closed = 1;
nodes = (
"1202 1036 OFFCURVE",
"1204 1042 OFFCURVE",
"1204 1049 CURVE SMOOTH",
"1204 1094 OFFCURVE",
"1061 1118 OFFCURVE",
"981 1118 CURVE SMOOTH",
"713 1118 OFFCURVE",
"498 958 OFFCURVE",
"498 686 CURVE SMOOTH",
"498 426 OFFCURVE",
"707 264 OFFCURVE",
"950 264 CURVE SMOOTH",
"1055 264 OFFCURVE",
"1169 289 OFFCURVE",
"1255 346 CURVE",
"1231 399 LINE",
"1167 375 OFFCURVE",
"1085 365 OFFCURVE",
"1016 365 CURVE SMOOTH",
"825 365 OFFCURVE",
"678 494 OFFCURVE",
"678 745 CURVE SMOOTH",
"678 877 OFFCURVE",
"739 1024 OFFCURVE",
"881 1024 CURVE SMOOTH",
"973 1024 OFFCURVE",
"1069 963 OFFCURVE",
"1143 926 CURVE"
);
},
{
closed = 1;
nodes = (
"236 700 LINE",
"236 1149 OFFCURVE",
"522 1397 OFFCURVE",
"932 1397 CURVE SMOOTH",
"1339 1397 OFFCURVE",
"1626 1149 OFFCURVE",
"1626 700 CURVE SMOOTH",
"1626 254 OFFCURVE",
"1339 6 OFFCURVE",
"932 6 CURVE SMOOTH",
"522 6 OFFCURVE",
"236 254 OFFCURVE",
"236 702 CURVE"
);
},
{
closed = 1;
nodes = (
"1729 700 LINE",
"1729 1188 OFFCURVE",
"1384 1499 OFFCURVE",
"930 1499 CURVE SMOOTH",
"477 1499 OFFCURVE",
"133 1188 OFFCURVE",
"133 700 CURVE SMOOTH",
"133 215 OFFCURVE",
"477 -96 OFFCURVE",
"930 -96 CURVE SMOOTH",
"1384 -96 OFFCURVE",
"1729 215 OFFCURVE",
"1729 702 CURVE"
);
}
);
width = 1864;
}
);
unicode = 00A9;
},
{
glyphname = ordfeminine;
lastChange = "2017-11-18 12:19:14 +0000";
layers = (
{
hints = (
{
place = "{72, 148}";
},
{
place = "{494, 150}";
},
{
horizontal = 1;
place = "{780, 80}";
},
{
horizontal = 1;
place = "{1094, 80}";
}
);
layerId = UUID0;
paths = (
{
closed = 1;
nodes = (
"494 848 LINE",
"498 795 OFFCURVE",
"545 786 OFFCURVE",
"586 786 CURVE SMOOTH",
"648 786 OFFCURVE",
"725 799 OFFCURVE",
"754 815 CURVE",
"754 862 LINE",
"644 862 LINE",
"644 1221 LINE SMOOTH",
"644 1403 OFFCURVE",
"512 1475 OFFCURVE",
"355 1475 CURVE SMOOTH",
"250 1475 OFFCURVE",
"91 1438 OFFCURVE",
"91 1380 CURVE SMOOTH",
"91 1372 OFFCURVE",
"93 1364 OFFCURVE",
"99 1356 CURVE SMOOTH",
"152 1286 LINE",
"216 1337 OFFCURVE",
"308 1407 OFFCURVE",
"394 1407 CURVE SMOOTH",
"484 1407 OFFCURVE",
"494 1319 OFFCURVE",
"494 1221 CURVE SMOOTH",
"494 1171 LINE",
"404 1171 LINE SMOOTH",
"209 1171 OFFCURVE",
"72 1118 OFFCURVE",
"72 971 CURVE SMOOTH",
"72 838 OFFCURVE",
"170 778 OFFCURVE",
"281 778 CURVE SMOOTH",
"386 778 OFFCURVE",
"494 856 OFFCURVE",
"494 856 CURVE"
);
},
{
closed = 1;
nodes = (
"259 874 OFFCURVE",
"220 918 OFFCURVE",
"220 977 CURVE SMOOTH",
"220 1075 OFFCURVE",
"324 1094 OFFCURVE",
"388 1094 CURVE SMOOTH",
"494 1094 LINE",
"494 913 LINE",
"494 913 OFFCURVE",
"386 874 OFFCURVE",
"326 874 CURVE SMOOTH"
);
}
);
width = 846;
}
);
unicode = 00AA;
},
{
glyphname = logicalnot;
lastChange = "2017-11-18 12:19:14 +0000";
layers = (
{
layerId = UUID0;
paths = (
{
closed = 1;
nodes = (
"999 326 LINE",
"999 268 OFFCURVE",
"1020 244 OFFCURVE",
"1079 244 CURVE SMOOTH",
"1141 244 LINE",
"1141 803 LINE",
"336 803 LINE SMOOTH",
"279 803 OFFCURVE",
"254 784 OFFCURVE",
"254 725 CURVE SMOOTH",
"254 662 LINE",
"999 662 LINE"
);
}
);
width = 1395;
}
);
unicode = 00AC;
},
{
glyphname = registered;
lastChange = "2017-11-18 12:19:14 +0000";
layers = (
{
layerId = UUID0;
paths = (
{
closed = 1;
nodes = (
"1143 301 LINE",
"1161 270 OFFCURVE",
"1186 260 OFFCURVE",
"1208 260 CURVE SMOOTH",
"1270 260 OFFCURVE",
"1350 344 OFFCURVE",
"1389 397 CURVE",
"1360 436 LINE",
"1266 367 LINE",
"1092 621 LINE",
"1198 657 OFFCURVE",
"1257 743 OFFCURVE",
"1257 862 CURVE SMOOTH",
"1257 1026 OFFCURVE",
"1133 1114 OFFCURVE",
"940 1114 CURVE SMOOTH",
"717 1114 LINE SMOOTH",
"639 1114 OFFCURVE",
"565 1098 OFFCURVE",
"541 1085 CURVE",
"541 1038 LINE",
"655 1038 LINE",
"655 322 LINE SMOOTH",
"655 289 OFFCURVE",
"666 274 OFFCURVE",
"700 274 CURVE SMOOTH",
"799 274 LINE",
"799 600 LINE",
"956 600 LINE"
);
},
{
closed = 1;
nodes = (
"799 1034 LINE",
"956 1034 LINE SMOOTH",
"1065 1034 OFFCURVE",
"1112 936 OFFCURVE",
"1112 858 CURVE SMOOTH",
"1112 778 OFFCURVE",
"1065 682 OFFCURVE",
"940 682 CURVE SMOOTH",
"799 682 LINE"
);
},
{
closed = 1;
nodes = (
"236 700 LINE",
"236 1149 OFFCURVE",
"522 1397 OFFCURVE",
"932 1397 CURVE SMOOTH",
"1339 1397 OFFCURVE",
"1626 1149 OFFCURVE",
"1626 700 CURVE SMOOTH",
"1626 254 OFFCURVE",
"1339 6 OFFCURVE",
"932 6 CURVE SMOOTH",
"522 6 OFFCURVE",
"236 254 OFFCURVE",
"236 702 CURVE"
);
},
{
closed = 1;
nodes = (
"1729 700 LINE",
"1729 1188 OFFCURVE",
"1384 1499 OFFCURVE",
"930 1499 CURVE SMOOTH",
"477 1499 OFFCURVE",
"133 1188 OFFCURVE",
"133 700 CURVE SMOOTH",
"133 215 OFFCURVE",
"477 -96 OFFCURVE",
"930 -96 CURVE SMOOTH",
"1384 -96 OFFCURVE",
"1729 215 OFFCURVE",
"1729 702 CURVE"
);
}
);
width = 1864;
}
);
unicode = 00AE;
},
{
glyphname = macron;
lastChange = "2017-11-18 12:19:14 +0000";
layers = (
{
layerId = UUID0;
paths = (
{
closed = 1;
nodes = (
"887 1161 LINE",
"944 1161 OFFCURVE",
"969 1182 OFFCURVE",
"969 1241 CURVE SMOOTH",
"969 1303 LINE",
"164 1303 LINE SMOOTH",
"106 1303 OFFCURVE",
"82 1284 OFFCURVE",
"82 1225 CURVE SMOOTH",
"82 1161 LINE"
);
}
);
width = 1051;
}
);
unicode = 00AF;
},
{
glyphname = degree;
lastChange = "2017-11-18 12:19:14 +0000";
layers = (
{
layerId = UUID0;
paths = (
{
closed = 1;
nodes = (
"82 913 OFFCURVE",
"225 770 OFFCURVE",
"403 770 CURVE SMOOTH",
"582 770 OFFCURVE",
"725 913 OFFCURVE",
"725 1092 CURVE SMOOTH",
"725 1270 OFFCURVE",
"582 1413 OFFCURVE",
"403 1413 CURVE SMOOTH",
"225 1413 OFFCURVE",
"82 1270 OFFCURVE",
"82 1092 CURVE SMOOTH"
);
},
{
closed = 1;
nodes = (
"188 1210 OFFCURVE",
"285 1307 OFFCURVE",
"403 1307 CURVE SMOOTH",
"522 1307 OFFCURVE",
"618 1210 OFFCURVE",
"618 1092 CURVE SMOOTH",
"618 973 OFFCURVE",
"522 877 OFFCURVE",
"403 877 CURVE SMOOTH",
"285 877 OFFCURVE",
"188 973 OFFCURVE",
"188 1092 CURVE SMOOTH"
);
}
);
width = 807;
}
);
unicode = 00B0;
},
{
glyphname = plusminus;
lastChange = "2017-11-18 12:19:14 +0000";
layers = (
{
layerId = UUID0;
paths = (
{
closed = 1;
nodes = (
"948 721 LINE",
"1006 721 OFFCURVE",
"1030 741 OFFCURVE",
"1030 801 CURVE SMOOTH",
"1030 862 LINE",
"657 862 LINE",
"657 1153 LINE SMOOTH",
"657 1210 OFFCURVE",
"637 1235 OFFCURVE",
"578 1235 CURVE SMOOTH",
"516 1235 LINE",
"516 862 LINE",
"225 862 LINE SMOOTH",
"168 862 OFFCURVE",
"143 844 OFFCURVE",
"143 784 CURVE SMOOTH",
"143 721 LINE",
"516 721 LINE",
"516 430 LINE SMOOTH",
"516 373 OFFCURVE",
"535 348 OFFCURVE",
"594 348 CURVE SMOOTH",
"657 348 LINE",
"657 721 LINE"
);
},
{
closed = 1;
nodes = (
"948 61 LINE",
"1006 61 OFFCURVE",
"1030 82 OFFCURVE",
"1030 141 CURVE SMOOTH",
"1030 203 LINE",
"225 203 LINE SMOOTH",
"168 203 OFFCURVE",
"143 184 OFFCURVE",
"143 125 CURVE SMOOTH",
"143 61 LINE"
);
}
);
width = 1174;
}
);
unicode = 00B1;
},
{
glyphname = acute;
lastChange = "2017-11-18 12:19:14 +0000";
layers = (
{
layerId = UUID0;
paths = (
{
closed = 1;
nodes = (
"111 1327 LINE",
"100 1309 OFFCURVE",
"90 1286 OFFCURVE",
"90 1270 CURVE SMOOTH",
"90 1255 OFFCURVE",
"100 1243 OFFCURVE",
"129 1243 CURVE SMOOTH",
"201 1243 LINE",
"201 1243 OFFCURVE",
"377 1425 OFFCURVE",
"426 1473 CURVE SMOOTH",
"449 1493 OFFCURVE",
"461 1511 OFFCURVE",
"461 1528 CURVE SMOOTH",
"461 1565 OFFCURVE",
"424 1573 OFFCURVE",
"397 1573 CURVE SMOOTH",
"250 1573 LINE"
);
}
);
width = 555;
}
);
unicode = 00B4;
},
{
glyphname = paragraph;
lastChange = "2017-11-18 12:19:14 +0000";
layers = (
{
layerId = UUID0;
paths = (
{
closed = 1;
nodes = (
"53 840 OFFCURVE",
"272 772 OFFCURVE",
"524 772 CURVE",
"524 -125 LINE",
"336 -125 LINE",
"336 -201 LINE",
"381 -225 OFFCURVE",
"449 -248 OFFCURVE",
"539 -248 CURVE SMOOTH",
"618 -248 OFFCURVE",
"678 -231 OFFCURVE",
"678 -152 CURVE SMOOTH",
"678 1413 LINE",
"870 1413 LINE",
"870 -152 LINE SMOOTH",
"870 -231 OFFCURVE",
"930 -248 OFFCURVE",
"1010 -248 CURVE SMOOTH",
"1100 -248 OFFCURVE",
"1165 -225 OFFCURVE",
"1212 -201 CURVE",
"1212 -125 LINE",
"1024 -125 LINE",
"1024 1413 LINE",
"1212 1413 LINE",
"1212 1489 LINE",
"1165 1513 OFFCURVE",
"1100 1536 OFFCURVE",
"1010 1536 CURVE SMOOTH",
"524 1536 LINE SMOOTH",
"272 1536 OFFCURVE",
"53 1466 OFFCURVE",
"53 1153 CURVE SMOOTH"
);
}
);
width = 1282;
}
);
unicode = 00B6;
},
{
glyphname = periodcentered;
lastChange = "2017-11-18 12:19:14 +0000";
layers = (
{
layerId = UUID0;
paths = (
{
closed = 1;
nodes = (
"215 762 OFFCURVE",
"156 700 OFFCURVE",
"156 625 CURVE SMOOTH",
"156 545 OFFCURVE",
"215 483 OFFCURVE",
"301 483 CURVE SMOOTH",
"389 483 OFFCURVE",
"451 545 OFFCURVE",
"451 625 CURVE SMOOTH",
"451 700 OFFCURVE",
"389 762 OFFCURVE",
"301 762 CURVE SMOOTH"
);
}
);
width = 606;
}
);
unicode = 00B7;
},
{
glyphname = cedilla;
lastChange = "2017-11-18 12:19:14 +0000";
layers = (
{
layerId = UUID0;
paths = (
{
closed = 1;
nodes = (
"735 -150 OFFCURVE",
"670 -80 OFFCURVE",
"537 -70 CURVE",
"557 18 LINE",
"461 18 LINE",
"418 -141 LINE",
"506 -147 OFFCURVE",
"571 -186 OFFCURVE",
"571 -266 CURVE SMOOTH",
"571 -338 OFFCURVE",
"526 -381 OFFCURVE",
"446 -381 CURVE SMOOTH",
"408 -381 OFFCURVE",
"356 -375 OFFCURVE",
"307 -365 CURVE",
"307 -473 OFFCURVE",
"373 -492 OFFCURVE",
"471 -492 CURVE SMOOTH",
"600 -492 OFFCURVE",
"735 -436 OFFCURVE",
"735 -258 CURVE SMOOTH"
);
}
);
width = 1063;
}
);
unicode = 00B8;
},
{
glyphname = onehalf;
lastChange = "2017-11-18 12:19:14 +0000";
layers = (
{
layerId = UUID0;
paths = (
{
closed = 1;
nodes = (
"1524 518 OFFCURVE",
"1543 578 OFFCURVE",
"1543 633 CURVE SMOOTH",
"1543 758 OFFCURVE",
"1451 881 OFFCURVE",
"1234 881 CURVE SMOOTH",
"1131 881 OFFCURVE",
"961 831 OFFCURVE",
"961 776 CURVE SMOOTH",
"961 768 OFFCURVE",
"963 762 OFFCURVE",
"969 754 CURVE SMOOTH",
"1033 664 LINE",
"1062 700 OFFCURVE",
"1135 786 OFFCURVE",
"1232 786 CURVE SMOOTH",
"1326 786 OFFCURVE",
"1371 725 OFFCURVE",
"1371 645 CURVE SMOOTH",
"1371 469 OFFCURVE",
"1100 246 OFFCURVE",
"933 53 CURVE",
"933 -23 OFFCURVE",
"1051 -8 OFFCURVE",
"1270 -8 CURVE SMOOTH",
"1490 -8 OFFCURVE",
"1563 -16 OFFCURVE",
"1563 78 CURVE SMOOTH",
"1563 115 OFFCURVE",
"1545 180 OFFCURVE",
"1547 180 CURVE SMOOTH",
"1457 137 OFFCURVE",
"1318 94 OFFCURVE",
"1207 92 CURVE SMOOTH",
"1119 92 LINE",
"1119 92 OFFCURVE",
"1395 332 OFFCURVE",
"1490 469 CURVE SMOOTH"
);
},
{
closed = 1;
nodes = (
"381 1405 LINE SMOOTH",
"381 1438 OFFCURVE",
"373 1450 OFFCURVE",
"328 1450 CURVE SMOOTH",
"246 1450 OFFCURVE",
"119 1393 OFFCURVE",
"61 1354 CURVE",
"82 1280 LINE",
"242 1337 LINE",
"242 618 LINE SMOOTH",
"242 571 OFFCURVE",
"270 557 OFFCURVE",
"313 557 CURVE SMOOTH",
"342 557 OFFCURVE",
"375 563 OFFCURVE",
"399 578 CURVE",
"395 602 OFFCURVE",
"381 657 OFFCURVE",
"381 762 CURVE SMOOTH"
);
},
{
closed = 1;
nodes = (
"1083 1331 LINE SMOOTH",
"1093 1352 OFFCURVE",
"1097 1368 OFFCURVE",
"1097 1380 CURVE SMOOTH",
"1097 1405 OFFCURVE",
"1076 1413 OFFCURVE",
"1031 1413 CURVE SMOOTH",
"984 1413 LINE",
"370 82 LINE SMOOTH",
"358 57 OFFCURVE",
"351 39 OFFCURVE",
"351 27 CURVE SMOOTH",
"351 8 OFFCURVE",
"366 0 OFFCURVE",
"403 0 CURVE SMOOTH",
"468 0 LINE"
);
}
);
width = 1655;
}
);
unicode = 00BD;
},
{
glyphname = questiondown;
lastChange = "2017-11-18 12:19:14 +0000";
layers = (
{
layerId = UUID0;
paths = (
{
closed = 1;
nodes = (
"635 829 OFFCURVE",
"694 891 OFFCURVE",
"694 967 CURVE SMOOTH",
"694 1047 OFFCURVE",
"635 1108 OFFCURVE",
"549 1108 CURVE SMOOTH",
"461 1108 OFFCURVE",
"399 1047 OFFCURVE",
"399 967 CURVE SMOOTH",
"399 891 OFFCURVE",
"461 829 OFFCURVE",
"549 829 CURVE SMOOTH"
);
},
{
closed = 1;
nodes = (
"506 676 OFFCURVE",
"487 680 OFFCURVE",
"471 680 CURVE SMOOTH",
"418 680 OFFCURVE",
"397 614 OFFCURVE",
"397 571 CURVE SMOOTH",
"397 555 OFFCURVE",
"518 543 OFFCURVE",
"518 473 CURVE SMOOTH",
"518 440 OFFCURVE",
"496 406 OFFCURVE",
"459 377 CURVE SMOOTH",
"313 260 OFFCURVE",
"109 172 OFFCURVE",
"109 -25 CURVE SMOOTH",
"109 -264 OFFCURVE",
"315 -385 OFFCURVE",
"588 -385 CURVE SMOOTH",
"682 -385 OFFCURVE",
"926 -369 OFFCURVE",
"926 -279 CURVE SMOOTH",
"926 -268 OFFCURVE",
"922 -258 OFFCURVE",
"918 -246 CURVE SMOOTH",
"856 -106 LINE",
"856 -111 OFFCURVE",
"616 -231 OFFCURVE",
"520 -231 CURVE SMOOTH",
"406 -231 OFFCURVE",
"340 -150 OFFCURVE",
"340 -53 CURVE SMOOTH",
"340 195 OFFCURVE",
"702 276 OFFCURVE",
"702 471 CURVE SMOOTH",
"702 567 OFFCURVE",
"647 635 OFFCURVE",
"526 670 CURVE SMOOTH"
);
}
);
width = 1024;
}
);
unicode = 00BF;
},
{
glyphname = multiply;
lastChange = "2017-11-18 12:19:14 +0000";
layers = (
{
layerId = UUID0;
paths = (
{
closed = 1;
nodes = (
"295 1102 LINE",
"276 1120 OFFCURVE",
"262 1130 OFFCURVE",
"246 1130 CURVE SMOOTH",
"229 1130 OFFCURVE",
"213 1120 OFFCURVE",
"195 1102 CURVE SMOOTH",
"158 1065 LINE",
"487 735 LINE",
"207 455 LINE SMOOTH",
"188 436 OFFCURVE",
"176 420 OFFCURVE",
"176 403 CURVE SMOOTH",
"176 389 OFFCURVE",
"186 375 OFFCURVE",
"205 356 CURVE SMOOTH",
"244 317 LINE",
"573 647 LINE",
"856 367 LINE SMOOTH",
"874 348 OFFCURVE",
"891 338 OFFCURVE",
"907 338 CURVE SMOOTH",
"922 338 OFFCURVE",
"936 346 OFFCURVE",
"954 365 CURVE SMOOTH",
"993 403 LINE",
"662 735 LINE",
"942 1016 LINE SMOOTH",
"961 1034 OFFCURVE",
"971 1051 OFFCURVE",
"971 1067 CURVE SMOOTH",
"971 1083 OFFCURVE",
"963 1098 OFFCURVE",
"944 1116 CURVE SMOOTH",
"905 1153 LINE",
"573 821 LINE"
);
}
);
width = 1149;
}
);
unicode = 00D7;
},
{
glyphname = Thorn;
lastChange = "2017-11-18 12:19:14 +0000";
layers = (
{
layerId = UUID0;
paths = (
{
closed = 1;
nodes = (
"285 362 LINE",
"285 82 LINE SMOOTH",
"287 6 OFFCURVE",
"338 -18 OFFCURVE",
"408 -18 CURVE SMOOTH",
"455 -18 OFFCURVE",
"520 -6 OFFCURVE",
"559 16 CURVE",
"551 55 OFFCURVE",
"522 100 OFFCURVE",
"522 309 CURVE",
"635 299 OFFCURVE",
"748 299 OFFCURVE",
"780 299 CURVE SMOOTH",
"1092 299 OFFCURVE",
"1276 459 OFFCURVE",
"1276 729 CURVE SMOOTH",
"1276 1092 OFFCURVE",
"1026 1180 OFFCURVE",
"721 1180 CURVE SMOOTH",
"643 1180 OFFCURVE",
"578 1176 OFFCURVE",
"520 1174 CURVE",
"520 1380 LINE SMOOTH",
"520 1432 OFFCURVE",
"492 1432 OFFCURVE",
"389 1432 CURVE SMOOTH",
"258 1432 OFFCURVE",
"133 1407 OFFCURVE",
"92 1386 CURVE",
"92 1307 LINE",
"285 1307 LINE"
);
},
{
closed = 1;
nodes = (
"1036 573 OFFCURVE",
"975 428 OFFCURVE",
"696 428 CURVE SMOOTH",
"596 428 OFFCURVE",
"537 444 OFFCURVE",
"522 449 CURVE",
"520 449 LINE",
"520 1038 LINE",
"575 1047 OFFCURVE",
"635 1049 OFFCURVE",
"682 1049 CURVE SMOOTH",
"924 1049 OFFCURVE",
"1036 967 OFFCURVE",
"1036 729 CURVE SMOOTH"
);
}
);
width = 1389;
}
);
leftKerningGroup = I;
unicode = 00DE;
},
{
glyphname = germandbls;
lastChange = "2017-11-18 12:19:14 +0000";
layers = (
{
layerId = UUID0;
paths = (
{
closed = 1;
nodes = (
"274 922 LINE",
"276 924 LINE",
"276 78 LINE SMOOTH",
"276 12 OFFCURVE",
"315 -12 OFFCURVE",
"373 -16 CURVE SMOOTH",
"416 -20 OFFCURVE",
"494 -10 OFFCURVE",
"537 14 CURVE",
"528 51 OFFCURVE",
"508 137 OFFCURVE",
"508 301 CURVE SMOOTH",
"508 1055 LINE SMOOTH",
"508 1352 OFFCURVE",
"643 1444 OFFCURVE",
"784 1444 CURVE SMOOTH",
"942 1444 OFFCURVE",
"1053 1352 OFFCURVE",
"1053 1067 CURVE",
"844 1053 OFFCURVE",
"670 991 OFFCURVE",
"670 782 CURVE SMOOTH",
"670 580 OFFCURVE",
"821 516 OFFCURVE",
"956 449 CURVE",
"1030 408 OFFCURVE",
"1169 346 OFFCURVE",
"1167 238 CURVE SMOOTH",
"1167 143 OFFCURVE",
"1106 90 OFFCURVE",
"1038 90 CURVE SMOOTH",
"913 90 OFFCURVE",
"791 203 OFFCURVE",
"727 254 CURVE",
"647 143 LINE",
"623 96 OFFCURVE",
"672 78 OFFCURVE",
"713 57 CURVE SMOOTH",
"784 18 OFFCURVE",
"897 -18 OFFCURVE",
"997 -18 CURVE SMOOTH",
"1169 -18 OFFCURVE",
"1374 63 OFFCURVE",
"1374 297 CURVE SMOOTH",
"1374 487 OFFCURVE",
"1196 551 OFFCURVE",
"1044 625 CURVE SMOOTH",
"956 670 OFFCURVE",
"850 737 OFFCURVE",
"850 827 CURVE SMOOTH",
"850 1018 OFFCURVE",
"1184 958 OFFCURVE",
"1241 950 CURVE",
"1243 1069 LINE SMOOTH",
"1247 1356 OFFCURVE",
"1090 1536 OFFCURVE",
"770 1536 CURVE SMOOTH",
"518 1536 OFFCURVE",
"274 1356 OFFCURVE",
"274 1055 CURVE SMOOTH",
"274 1024 LINE",
"141 1024 LINE SMOOTH",
"100 1024 OFFCURVE",
"82 1010 OFFCURVE",
"82 969 CURVE SMOOTH",
"82 922 LINE"
);
}
);
width = 1456;
}
);
leftKerningGroup = f;
unicode = 00DF;
},
{
glyphname = divide;
lastChange = "2017-11-18 12:19:14 +0000";
layers = (
{
layerId = UUID0;
paths = (
{
closed = 1;
nodes = (
"895 563 LINE",
"952 563 OFFCURVE",
"977 584 OFFCURVE",
"977 643 CURVE SMOOTH",
"977 705 LINE",
"131 705 LINE SMOOTH",
"74 705 OFFCURVE",
"49 686 OFFCURVE",
"49 627 CURVE SMOOTH",
"49 563 LINE"
);
},
{
closed = 1;
nodes = (
"414 485 OFFCURVE",
"354 424 OFFCURVE",
"354 348 CURVE SMOOTH",
"354 268 OFFCURVE",
"414 207 OFFCURVE",
"500 207 CURVE SMOOTH",
"588 207 OFFCURVE",
"649 268 OFFCURVE",
"649 348 CURVE SMOOTH",
"649 424 OFFCURVE",
"588 485 OFFCURVE",
"500 485 CURVE SMOOTH"
);
},
{
closed = 1;
nodes = (
"414 1069 OFFCURVE",
"354 1008 OFFCURVE",
"354 932 CURVE SMOOTH",
"354 852 OFFCURVE",
"414 791 OFFCURVE",
"500 791 CURVE SMOOTH",
"588 791 OFFCURVE",
"649 852 OFFCURVE",
"649 932 CURVE SMOOTH",
"649 1008 OFFCURVE",
"588 1069 OFFCURVE",
"500 1069 CURVE SMOOTH"
);
}
);
width = 1020;
}
);
unicode = 00F7;
},
{
glyphname = OE;
lastChange = "2017-11-18 12:19:14 +0000";
layers = (
{
layerId = UUID0;
paths = (
{
closed = 1;
nodes = (
"1346 -6 OFFCURVE",
"1528 -12 OFFCURVE",
"1702 -12 CURVE SMOOTH",
"2052 -12 OFFCURVE",
"2132 -14 OFFCURVE",
"2132 131 CURVE SMOOTH",
"2132 176 OFFCURVE",
"2114 219 OFFCURVE",
"2114 219 CURVE",
"1948 164 OFFCURVE",
"1772 141 OFFCURVE",
"1599 141 CURVE SMOOTH",
"1440 141 LINE",
"1440 659 LINE",
"1833 659 LINE SMOOTH",
"1898 659 OFFCURVE",
"1927 682 OFFCURVE",
"1927 752 CURVE SMOOTH",
"1927 801 LINE",
"1440 801 LINE",
"1440 1270 LINE",
"1640 1270 LINE SMOOTH",
"1911 1270 OFFCURVE",
"2046 1151 OFFCURVE",
"2046 1151 CURVE",
"2060 1167 OFFCURVE",
"2138 1298 OFFCURVE",
"2138 1325 CURVE SMOOTH",
"2138 1415 OFFCURVE",
"1831 1423 OFFCURVE",
"1649 1423 CURVE SMOOTH",
"1487 1423 OFFCURVE",
"1325 1413 OFFCURVE",
"1204 1399 CURVE",
"1204 1307 LINE",
"1098 1397 OFFCURVE",
"956 1450 OFFCURVE",
"788 1450 CURVE SMOOTH",
"379 1450 OFFCURVE",
"133 1145 OFFCURVE",
"133 705 CURVE SMOOTH",
"133 264 OFFCURVE",
"379 -39 OFFCURVE",
"788 -39 CURVE SMOOTH",
"956 -39 OFFCURVE",
"1098 12 OFFCURVE",
"1204 104 CURVE",
"1204 86 LINE SMOOTH",
"1204 29 OFFCURVE",
"1221 6 OFFCURVE",
"1282 0 CURVE SMOOTH"
);
},
{
closed = 1;
nodes = (
"393 1034 OFFCURVE",
"498 1323 OFFCURVE",
"788 1323 CURVE SMOOTH",
"1079 1323 OFFCURVE",
"1202 1044 OFFCURVE",
"1202 705 CURVE SMOOTH",
"1202 346 OFFCURVE",
"1075 88 OFFCURVE",
"788 88 CURVE SMOOTH",
"498 88 OFFCURVE",
"393 344 OFFCURVE",
"393 705 CURVE SMOOTH"
);
}
);
width = 2230;
}
);
leftKerningGroup = O;
rightKerningGroup = E;
unicode = 0152;
},
{
glyphname = oe;
lastChange = "2017-11-18 12:19:14 +0000";
layers = (
{
layerId = UUID0;
paths = (
{
closed = 1;
nodes = (
"1544 -39 OFFCURVE",
"1694 -10 OFFCURVE",
"1808 66 CURVE",
"1776 133 LINE",
"1692 104 OFFCURVE",
"1610 90 OFFCURVE",
"1536 90 CURVE SMOOTH",
"1313 90 OFFCURVE",
"1145 223 OFFCURVE",
"1120 463 CURVE",
"1636 461 LINE SMOOTH",
"1772 461 OFFCURVE",
"1794 569 OFFCURVE",
"1794 664 CURVE SMOOTH",
"1794 870 OFFCURVE",
"1651 1055 OFFCURVE",
"1409 1055 CURVE SMOOTH",
"1243 1055 OFFCURVE",
"1102 985 OFFCURVE",
"1008 872 CURVE",
"928 987 OFFCURVE",
"801 1055 OFFCURVE",
"623 1055 CURVE SMOOTH",
"340 1055 OFFCURVE",
"113 838 OFFCURVE",
"113 510 CURVE SMOOTH",
"113 186 OFFCURVE",
"340 -39 OFFCURVE",
"623 -39 CURVE SMOOTH",
"801 -39 OFFCURVE",
"926 29 OFFCURVE",
"1006 139 CURVE",
"1104 20 OFFCURVE",
"1253 -39 OFFCURVE",
"1407 -39 CURVE SMOOTH"
);
},
{
closed = 1;
nodes = (
"360 739 OFFCURVE",
"412 948 OFFCURVE",
"623 948 CURVE SMOOTH",
"846 948 OFFCURVE",
"883 713 OFFCURVE",
"883 512 CURVE SMOOTH",
"883 285 OFFCURVE",
"840 68 OFFCURVE",
"623 68 CURVE SMOOTH",
"412 68 OFFCURVE",
"360 285 OFFCURVE",
"360 512 CURVE SMOOTH"
);
},
{
closed = 1;
nodes = (
"1118 584 LINE",
"1128 774 OFFCURVE",
"1180 944 OFFCURVE",
"1356 944 CURVE SMOOTH",
"1489 944 OFFCURVE",
"1563 797 OFFCURVE",
"1563 666 CURVE SMOOTH",
"1563 637 OFFCURVE",
"1561 610 OFFCURVE",
"1554 584 CURVE"
);
}
);
width = 1911;
}
);
leftKerningGroup = o;
rightKerningGroup = e;
unicode = 0153;
},
{
glyphname = circumflex;
lastChange = "2017-11-18 12:19:14 +0000";
layers = (
{
layerId = UUID0;
paths = (
{
closed = 1;
nodes = (
"389 1427 LINE",
"614 1243 LINE",
"664 1243 LINE SMOOTH",
"700 1243 OFFCURVE",
"713 1257 OFFCURVE",
"713 1274 CURVE SMOOTH",
"713 1284 OFFCURVE",
"709 1296 OFFCURVE",
"700 1307 CURVE SMOOTH",
"483 1573 LINE",
"291 1573 LINE",
"74 1307 LINE SMOOTH",
"66 1296 OFFCURVE",
"61 1284 OFFCURVE",
"61 1274 CURVE SMOOTH",
"61 1257 OFFCURVE",
"74 1243 OFFCURVE",
"111 1243 CURVE SMOOTH",
"160 1243 LINE"
);
}
);
width = 774;
}
);
unicode = 02C6;
},
{
glyphname = ring;
lastChange = "2017-11-18 12:19:14 +0000";
layers = (
{
layerId = UUID0;
paths = (
{
closed = 1;
nodes = (
"535 1587 OFFCURVE",
"432 1667 OFFCURVE",
"299 1667 CURVE SMOOTH",
"166 1667 OFFCURVE",
"63 1587 OFFCURVE",
"63 1444 CURVE SMOOTH",
"63 1298 OFFCURVE",
"166 1221 OFFCURVE",
"299 1221 CURVE SMOOTH",
"432 1221 OFFCURVE",
"535 1298 OFFCURVE",
"535 1444 CURVE SMOOTH"
);
},
{
closed = 1;
nodes = (
"424 1356 OFFCURVE",
"369 1321 OFFCURVE",
"299 1321 CURVE SMOOTH",
"229 1321 OFFCURVE",
"174 1356 OFFCURVE",
"174 1444 CURVE SMOOTH",
"174 1532 OFFCURVE",
"229 1567 OFFCURVE",
"299 1567 CURVE SMOOTH",
"369 1567 OFFCURVE",
"424 1532 OFFCURVE",
"424 1444 CURVE SMOOTH"
);
}
);
width = 596;
}
);
unicode = 02DA;
},
{
glyphname = tilde;
lastChange = "2017-11-18 12:19:14 +0000";
layers = (
{
layerId = UUID0;
paths = (
{
closed = 1;
nodes = (
"688 1380 OFFCURVE",
"600 1503 OFFCURVE",
"455 1503 CURVE SMOOTH",
"379 1503 OFFCURVE",
"309 1452 OFFCURVE",
"205 1331 CURVE",
"205 1331 OFFCURVE",
"246 1282 OFFCURVE",
"291 1282 CURVE SMOOTH",
"350 1282 OFFCURVE",
"362 1366 OFFCURVE",
"424 1366 CURVE SMOOTH",
"532 1366 OFFCURVE",
"606 1241 OFFCURVE",
"752 1241 CURVE SMOOTH",
"819 1241 OFFCURVE",
"889 1294 OFFCURVE",
"993 1415 CURVE",
"993 1415 OFFCURVE",
"952 1464 OFFCURVE",
"907 1464 CURVE SMOOTH",
"848 1464 OFFCURVE",
"834 1380 OFFCURVE",
"774 1380 CURVE SMOOTH"
);
}
);
width = 1198;
}
);
unicode = 02DC;
},
{
glyphname = endash;
lastChange = "2017-11-18 12:19:14 +0000";
layers = (
{
layerId = UUID0;
paths = (
{
closed = 1;
nodes = (
"866 551 LINE",
"924 551 OFFCURVE",
"948 571 OFFCURVE",
"948 631 CURVE SMOOTH",
"948 692 LINE",
"102 692 LINE SMOOTH",
"45 692 OFFCURVE",
"20 674 OFFCURVE",
"20 614 CURVE SMOOTH",
"20 551 LINE"
);
}
);
width = 969;
}
);
leftKerningGroup = hyphen;
rightKerningGroup = hyphen;
unicode = 2013;
},
{
glyphname = emdash;
lastChange = "2017-11-18 12:19:14 +0000";
layers = (
{
layerId = UUID0;
paths = (
{
closed = 1;
nodes = (
"1374 551 LINE",
"1432 551 OFFCURVE",
"1456 571 OFFCURVE",
"1456 631 CURVE SMOOTH",
"1456 692 LINE",
"102 692 LINE SMOOTH",
"45 692 OFFCURVE",
"20 674 OFFCURVE",
"20 614 CURVE SMOOTH",
"20 551 LINE"
);
}
);
width = 1477;
}
);
leftKerningGroup = hyphen;
rightKerningGroup = hyphen;
unicode = 2014;
},
{
glyphname = quoteleft;
lastChange = "2017-11-18 12:19:14 +0000";
layers = (
{
layerId = UUID0;
paths = (
{
closed = 1;
nodes = (
"78 1026 OFFCURVE",
"127 965 OFFCURVE",
"215 965 CURVE SMOOTH",
"301 965 OFFCURVE",
"360 1026 OFFCURVE",
"360 1102 CURVE SMOOTH",
"360 1182 OFFCURVE",
"301 1243 OFFCURVE",
"215 1243 CURVE SMOOTH",
"211 1243 OFFCURVE",
"205 1243 OFFCURVE",
"203 1241 CURVE",
"203 1329 OFFCURVE",
"264 1411 OFFCURVE",
"328 1450 CURVE",
"328 1505 LINE SMOOTH",
"328 1530 OFFCURVE",
"315 1536 OFFCURVE",
"303 1536 CURVE SMOOTH",
"295 1536 OFFCURVE",
"289 1534 OFFCURVE",
"285 1532 CURVE SMOOTH",
"121 1473 OFFCURVE",
"57 1300 OFFCURVE",
"57 1167 CURVE SMOOTH",
"57 1145 OFFCURVE",
"59 1122 OFFCURVE",
"63 1102 CURVE"
);
}
);
width = 500;
}
);
leftKerningGroup = quoteleft;
rightKerningGroup = quoteleft;
unicode = 2018;
},
{
glyphname = quoteright;
lastChange = "2017-11-18 12:19:14 +0000";
layers = (
{
layerId = UUID0;
paths = (
{
closed = 1;
nodes = (
"340 1475 OFFCURVE",
"291 1536 OFFCURVE",
"203 1536 CURVE SMOOTH",
"117 1536 OFFCURVE",
"57 1475 OFFCURVE",
"57 1399 CURVE SMOOTH",
"57 1319 OFFCURVE",
"117 1257 OFFCURVE",
"203 1257 CURVE SMOOTH",
"207 1257 OFFCURVE",
"213 1257 OFFCURVE",
"215 1260 CURVE",
"215 1171 OFFCURVE",
"154 1090 OFFCURVE",
"90 1051 CURVE",
"90 995 LINE SMOOTH",
"90 971 OFFCURVE",
"102 965 OFFCURVE",
"115 965 CURVE SMOOTH",
"123 965 OFFCURVE",
"129 967 OFFCURVE",
"133 969 CURVE SMOOTH",
"297 1028 OFFCURVE",
"360 1200 OFFCURVE",
"360 1333 CURVE SMOOTH",
"360 1356 OFFCURVE",
"358 1378 OFFCURVE",
"354 1399 CURVE SMOOTH"
);
}
);
width = 500;
}
);
leftKerningGroup = quoteright;
rightKerningGroup = quoteright;
unicode = 2019;
},
{
glyphname = quotesinglbase;
lastChange = "2017-11-18 12:19:14 +0000";
layers = (
{
layerId = UUID0;
paths = (
{
closed = 1;
nodes = (
"463 178 OFFCURVE",
"414 240 OFFCURVE",
"326 240 CURVE SMOOTH",
"240 240 OFFCURVE",
"180 178 OFFCURVE",
"180 102 CURVE SMOOTH",
"180 23 OFFCURVE",
"240 -39 OFFCURVE",
"326 -39 CURVE SMOOTH",
"330 -39 OFFCURVE",
"336 -39 OFFCURVE",
"338 -37 CURVE",
"338 -125 OFFCURVE",
"276 -207 OFFCURVE",
"213 -246 CURVE",
"213 -301 LINE SMOOTH",
"213 -326 OFFCURVE",
"225 -332 OFFCURVE",
"238 -332 CURVE SMOOTH",
"246 -332 OFFCURVE",
"252 -330 OFFCURVE",
"256 -328 CURVE SMOOTH",
"420 -268 OFFCURVE",
"483 -96 OFFCURVE",
"483 37 CURVE SMOOTH",
"483 59 OFFCURVE",
"481 82 OFFCURVE",
"477 102 CURVE SMOOTH"
);
}
);
width = 623;
}
);
leftKerningGroup = period;
rightKerningGroup = period;
unicode = 201A;
},
{
glyphname = quotedblleft;
lastChange = "2017-11-18 12:19:14 +0000";
layers = (
{
layerId = UUID0;
paths = (
{
closed = 1;
nodes = (
"78 1026 OFFCURVE",
"127 965 OFFCURVE",
"215 965 CURVE SMOOTH",
"301 965 OFFCURVE",
"360 1026 OFFCURVE",
"360 1102 CURVE SMOOTH",
"360 1182 OFFCURVE",
"301 1243 OFFCURVE",
"215 1243 CURVE SMOOTH",
"211 1243 OFFCURVE",
"205 1243 OFFCURVE",
"203 1241 CURVE",
"203 1329 OFFCURVE",
"264 1411 OFFCURVE",
"328 1450 CURVE",
"328 1505 LINE SMOOTH",
"328 1530 OFFCURVE",
"315 1536 OFFCURVE",
"303 1536 CURVE SMOOTH",
"295 1536 OFFCURVE",
"289 1534 OFFCURVE",
"285 1532 CURVE SMOOTH",
"121 1473 OFFCURVE",
"57 1300 OFFCURVE",
"57 1167 CURVE SMOOTH",
"57 1145 OFFCURVE",
"59 1122 OFFCURVE",
"63 1102 CURVE SMOOTH"
);
},
{
closed = 1;
nodes = (
"496 1026 OFFCURVE",
"545 965 OFFCURVE",
"633 965 CURVE SMOOTH",
"719 965 OFFCURVE",
"778 1026 OFFCURVE",
"778 1102 CURVE SMOOTH",
"778 1182 OFFCURVE",
"719 1243 OFFCURVE",
"633 1243 CURVE SMOOTH",
"629 1243 OFFCURVE",
"623 1243 OFFCURVE",
"621 1241 CURVE",
"621 1329 OFFCURVE",
"682 1411 OFFCURVE",
"745 1450 CURVE",
"745 1505 LINE SMOOTH",
"745 1530 OFFCURVE",
"733 1536 OFFCURVE",
"721 1536 CURVE SMOOTH",
"713 1536 OFFCURVE",
"707 1534 OFFCURVE",
"702 1532 CURVE SMOOTH",
"539 1473 OFFCURVE",
"475 1300 OFFCURVE",
"475 1167 CURVE SMOOTH",
"475 1145 OFFCURVE",
"477 1122 OFFCURVE",
"481 1102 CURVE SMOOTH"
);
}
);
width = 918;
}
);
leftKerningGroup = quoteleft;
rightKerningGroup = quoteleft;
unicode = 201C;
},
{
glyphname = quotedblright;
lastChange = "2017-11-18 12:19:14 +0000";
layers = (
{
layerId = UUID0;
paths = (
{
closed = 1;
nodes = (
"758 1475 OFFCURVE",
"709 1536 OFFCURVE",
"621 1536 CURVE SMOOTH",
"535 1536 OFFCURVE",
"475 1475 OFFCURVE",
"475 1399 CURVE SMOOTH",
"475 1319 OFFCURVE",
"535 1257 OFFCURVE",
"621 1257 CURVE SMOOTH",
"625 1257 OFFCURVE",
"631 1257 OFFCURVE",
"633 1260 CURVE",
"633 1171 OFFCURVE",
"571 1090 OFFCURVE",
"508 1051 CURVE",
"508 995 LINE SMOOTH",
"508 971 OFFCURVE",
"520 965 OFFCURVE",
"532 965 CURVE SMOOTH",
"541 965 OFFCURVE",
"547 967 OFFCURVE",
"551 969 CURVE SMOOTH",
"715 1028 OFFCURVE",
"778 1200 OFFCURVE",
"778 1333 CURVE SMOOTH",
"778 1356 OFFCURVE",
"776 1378 OFFCURVE",
"772 1399 CURVE SMOOTH"
);
},
{
closed = 1;
nodes = (
"340 1475 OFFCURVE",
"291 1536 OFFCURVE",
"203 1536 CURVE SMOOTH",
"117 1536 OFFCURVE",
"57 1475 OFFCURVE",
"57 1399 CURVE SMOOTH",
"57 1319 OFFCURVE",
"117 1257 OFFCURVE",
"203 1257 CURVE SMOOTH",
"207 1257 OFFCURVE",
"213 1257 OFFCURVE",
"215 1260 CURVE",
"215 1171 OFFCURVE",
"154 1090 OFFCURVE",
"90 1051 CURVE",
"90 995 LINE SMOOTH",
"90 971 OFFCURVE",
"102 965 OFFCURVE",
"115 965 CURVE SMOOTH",
"123 965 OFFCURVE",
"129 967 OFFCURVE",
"133 969 CURVE SMOOTH",
"297 1028 OFFCURVE",
"360 1200 OFFCURVE",
"360 1333 CURVE SMOOTH",
"360 1356 OFFCURVE",
"358 1378 OFFCURVE",
"354 1399 CURVE SMOOTH"
);
}
);
width = 918;
}
);
leftKerningGroup = quoteright;
rightKerningGroup = quoteright;
unicode = 201D;
},
{
glyphname = quotedblbase;
lastChange = "2017-11-18 12:19:14 +0000";
layers = (
{
layerId = UUID0;
paths = (
{
closed = 1;
nodes = (
"463 178 OFFCURVE",
"414 240 OFFCURVE",
"326 240 CURVE SMOOTH",
"240 240 OFFCURVE",
"180 178 OFFCURVE",
"180 102 CURVE SMOOTH",
"180 23 OFFCURVE",
"240 -39 OFFCURVE",
"326 -39 CURVE SMOOTH",
"330 -39 OFFCURVE",
"336 -39 OFFCURVE",
"338 -37 CURVE",
"338 -125 OFFCURVE",
"276 -207 OFFCURVE",
"213 -246 CURVE",
"213 -301 LINE SMOOTH",
"213 -326 OFFCURVE",
"225 -332 OFFCURVE",
"238 -332 CURVE SMOOTH",
"246 -332 OFFCURVE",
"252 -330 OFFCURVE",
"256 -328 CURVE SMOOTH",
"420 -268 OFFCURVE",
"483 -96 OFFCURVE",
"483 37 CURVE SMOOTH",
"483 59 OFFCURVE",
"481 82 OFFCURVE",
"477 102 CURVE SMOOTH"
);
},
{
closed = 1;
nodes = (
"883 178 OFFCURVE",
"834 240 OFFCURVE",
"745 240 CURVE SMOOTH",
"659 240 OFFCURVE",
"600 178 OFFCURVE",
"600 102 CURVE SMOOTH",
"600 23 OFFCURVE",
"659 -39 OFFCURVE",
"745 -39 CURVE SMOOTH",
"750 -39 OFFCURVE",
"756 -39 OFFCURVE",
"758 -37 CURVE",
"758 -125 OFFCURVE",
"696 -207 OFFCURVE",
"633 -246 CURVE",
"633 -301 LINE SMOOTH",
"633 -326 OFFCURVE",
"645 -332 OFFCURVE",
"657 -332 CURVE SMOOTH",
"666 -332 OFFCURVE",
"672 -330 OFFCURVE",
"676 -328 CURVE SMOOTH",
"840 -268 OFFCURVE",
"903 -96 OFFCURVE",
"903 37 CURVE SMOOTH",
"903 59 OFFCURVE",
"901 82 OFFCURVE",
"897 102 CURVE SMOOTH"
);
}
);
width = 1042;
}
);
leftKerningGroup = period;
rightKerningGroup = period;
unicode = 201E;
},
{
glyphname = bullet;
lastChange = "2017-11-18 12:19:14 +0000";
layers = (
{
layerId = UUID0;
paths = (
{
closed = 1;
nodes = (
"205 457 OFFCURVE",
"297 365 OFFCURVE",
"412 365 CURVE SMOOTH",
"526 365 OFFCURVE",
"621 457 OFFCURVE",
"621 571 CURVE SMOOTH",
"621 686 OFFCURVE",
"526 780 OFFCURVE",
"412 780 CURVE SMOOTH",
"297 780 OFFCURVE",
"205 686 OFFCURVE",
"205 571 CURVE SMOOTH"
);
}
);
width = 825;
}
);
unicode = 2022;
},
{
glyphname = guilsinglleft;
lastChange = "2017-11-18 12:19:14 +0000";
layers = (
{
layerId = UUID0;
paths = (
{
closed = 1;
nodes = (
"279 559 LINE",
"436 860 LINE SMOOTH",
"446 879 OFFCURVE",
"453 897 OFFCURVE",
"453 911 CURVE SMOOTH",
"453 952 OFFCURVE",
"420 973 OFFCURVE",
"420 973 CURVE",
"72 612 LINE",
"72 496 LINE",
"420 135 LINE",
"420 135 OFFCURVE",
"453 156 OFFCURVE",
"453 197 CURVE SMOOTH",
"453 211 OFFCURVE",
"446 227 OFFCURVE",
"436 248 CURVE SMOOTH",
"279 549 LINE"
);
}
);
width = 547;
}
);
leftKerningGroup = guilsinglleft;
rightKerningGroup = guilsinglleft;
unicode = 2039;
},
{
glyphname = guilsinglright;
lastChange = "2017-11-18 12:19:14 +0000";
layers = (
{
layerId = UUID0;
paths = (
{
closed = 1;
nodes = (
"268 549 LINE",
"111 248 LINE SMOOTH",
"98 227 OFFCURVE",
"94 211 OFFCURVE",
"94 197 CURVE SMOOTH",
"94 156 OFFCURVE",
"127 135 OFFCURVE",
"127 135 CURVE",
"475 496 LINE",
"475 612 LINE",
"127 973 LINE",
"127 973 OFFCURVE",
"94 952 OFFCURVE",
"94 911 CURVE SMOOTH",
"94 897 OFFCURVE",
"100 881 OFFCURVE",
"111 860 CURVE SMOOTH",
"268 559 LINE"
);
}
);
width = 547;
}
);
leftKerningGroup = guilsinglright;
rightKerningGroup = guilsinglright;
unicode = 203A;
},
{
glyphname = fraction;
lastChange = "2017-11-18 12:19:14 +0000";
layers = (
{
layerId = UUID0;
paths = (
{
closed = 1;
nodes = (
"807 1440 LINE",
"811 1452 OFFCURVE",
"815 1462 OFFCURVE",
"815 1470 CURVE SMOOTH",
"815 1503 OFFCURVE",
"780 1511 OFFCURVE",
"735 1511 CURVE SMOOTH",
"678 1511 LINE",
"27 6 LINE SMOOTH",
"20 -6 OFFCURVE",
"18 -14 OFFCURVE",
"18 -23 CURVE SMOOTH",
"18 -53 OFFCURVE",
"49 -68 OFFCURVE",
"94 -68 CURVE SMOOTH",
"156 -68 LINE"
);
}
);
width = 842;
}
);
unicode = 2044;
},
{
glyphname = uniEFFD;
lastChange = "2017-11-18 12:19:14 +0000";
layers = (
{
layerId = UUID0;
paths = (
{
closed = 1;
nodes = (
"133 0 LINE",
"981 0 LINE",
"981 1024 LINE",
"133 1024 LINE"
);
},
{
closed = 1;
nodes = (
"260 897 LINE",
"854 897 LINE",
"854 127 LINE",
"260 127 LINE"
);
}
);
width = 1114;
}
);
unicode = EFFD;
},
{
glyphname = currency;
lastChange = "2017-11-18 12:19:14 +0000";
layers = (
{
layerId = UUID0;
paths = (
{
closed = 1;
nodes = (
"877 514 LINE",
"924 573 OFFCURVE",
"948 651 OFFCURVE",
"948 733 CURVE SMOOTH",
"948 815 OFFCURVE",
"924 889 OFFCURVE",
"877 952 CURVE",
"971 1047 LINE SMOOTH",
"983 1059 OFFCURVE",
"991 1073 OFFCURVE",
"991 1087 CURVE SMOOTH",
"991 1100 OFFCURVE",
"985 1114 OFFCURVE",
"973 1126 CURVE SMOOTH",
"926 1176 LINE",
"788 1038 LINE",
"725 1081 OFFCURVE",
"651 1110 OFFCURVE",
"571 1110 CURVE SMOOTH",
"487 1110 OFFCURVE",
"414 1081 OFFCURVE",
"350 1038 CURVE",
"256 1133 LINE SMOOTH",
"244 1145 OFFCURVE",
"229 1153 OFFCURVE",
"215 1153 CURVE SMOOTH",
"203 1153 OFFCURVE",
"188 1147 OFFCURVE",
"176 1135 CURVE SMOOTH",
"127 1087 LINE",
"264 950 LINE",
"217 887 OFFCURVE",
"197 815 OFFCURVE",
"197 733 CURVE SMOOTH",
"197 651 OFFCURVE",
"221 573 OFFCURVE",
"264 514 CURVE",
"170 420 LINE SMOOTH",
"158 408 OFFCURVE",
"150 393 OFFCURVE",
"150 379 CURVE SMOOTH",
"150 367 OFFCURVE",
"156 352 OFFCURVE",
"168 340 CURVE SMOOTH",
"215 291 LINE",
"352 428 LINE",
"416 381 OFFCURVE",
"489 358 OFFCURVE",
"571 358 CURVE SMOOTH",
"653 358 OFFCURVE",
"727 385 OFFCURVE",
"791 428 CURVE",
"883 332 LINE SMOOTH",
"895 319 OFFCURVE",
"909 311 OFFCURVE",
"924 311 CURVE SMOOTH",
"936 311 OFFCURVE",
"950 317 OFFCURVE",
"963 330 CURVE SMOOTH",
"1012 377 LINE"
);
},
{
closed = 1;
nodes = (
"311 881 OFFCURVE",
"428 997 OFFCURVE",
"571 997 CURVE SMOOTH",
"719 997 OFFCURVE",
"834 881 OFFCURVE",
"834 733 CURVE SMOOTH",
"834 590 OFFCURVE",
"719 471 OFFCURVE",
"571 471 CURVE SMOOTH",
"428 471 OFFCURVE",
"311 590 OFFCURVE",
"311 733 CURVE SMOOTH"
);
}
);
width = 1139;
}
);
unicode = 00A4;
},
{
glyphname = twosuperior;
lastChange = "2017-11-18 12:19:14 +0000";
layers = (
{
layerId = UUID0;
paths = (
{
closed = 1;
nodes = (
"633 1087 OFFCURVE",
"651 1147 OFFCURVE",
"651 1202 CURVE SMOOTH",
"651 1327 OFFCURVE",
"559 1450 OFFCURVE",
"342 1450 CURVE SMOOTH",
"240 1450 OFFCURVE",
"70 1401 OFFCURVE",
"70 1346 CURVE SMOOTH",
"70 1337 OFFCURVE",
"72 1331 OFFCURVE",
"78 1323 CURVE SMOOTH",
"141 1233 LINE",
"143 1251 OFFCURVE",
"276 1356 OFFCURVE",
"340 1356 CURVE SMOOTH",
"434 1356 OFFCURVE",
"479 1294 OFFCURVE",
"479 1214 CURVE SMOOTH",
"479 1038 OFFCURVE",
"145 731 OFFCURVE",
"41 623 CURVE",
"41 547 OFFCURVE",
"160 561 OFFCURVE",
"379 561 CURVE SMOOTH",
"598 561 OFFCURVE",
"672 553 OFFCURVE",
"672 647 CURVE SMOOTH",
"672 684 OFFCURVE",
"653 750 OFFCURVE",
"655 750 CURVE SMOOTH",
"565 707 OFFCURVE",
"426 666 OFFCURVE",
"315 664 CURVE SMOOTH",
"227 662 LINE",
"227 662 OFFCURVE",
"504 901 OFFCURVE",
"598 1038 CURVE SMOOTH"
);
}
);
width = 713;
}
);
unicode = 00B2;
},
{
glyphname = threesuperior;
lastChange = "2017-11-18 12:19:14 +0000";
layers = (
{
layerId = UUID0;
paths = (
{
closed = 1;
nodes = (
"438 1352 LINE",
"420 1249 OFFCURVE",
"342 1149 OFFCURVE",
"236 1071 CURVE SMOOTH",
"231 1067 OFFCURVE",
"219 1065 OFFCURVE",
"219 1038 CURVE SMOOTH",
"219 973 LINE",
"289 973 LINE SMOOTH",
"295 973 OFFCURVE",
"303 973 OFFCURVE",
"309 973 CURVE SMOOTH",
"436 973 OFFCURVE",
"506 920 OFFCURVE",
"506 809 CURVE SMOOTH",
"506 707 OFFCURVE",
"442 641 OFFCURVE",
"336 641 CURVE SMOOTH",
"246 641 OFFCURVE",
"174 711 OFFCURVE",
"96 764 CURVE",
"49 674 LINE SMOOTH",
"43 664 OFFCURVE",
"41 653 OFFCURVE",
"41 647 CURVE SMOOTH",
"41 584 OFFCURVE",
"219 539 OFFCURVE",
"334 539 CURVE SMOOTH",
"510 539 OFFCURVE",
"668 635 OFFCURVE",
"668 797 CURVE SMOOTH",
"668 961 OFFCURVE",
"551 1049 OFFCURVE",
"365 1061 CURVE",
"375 1067 OFFCURVE",
"567 1208 OFFCURVE",
"614 1372 CURVE",
"614 1397 LINE SMOOTH",
"614 1456 OFFCURVE",
"414 1450 OFFCURVE",
"330 1450 CURVE SMOOTH",
"217 1450 OFFCURVE",
"47 1440 OFFCURVE",
"47 1386 CURVE SMOOTH",
"47 1376 OFFCURVE",
"100 1276 OFFCURVE",
"111 1262 CURVE",
"111 1262 OFFCURVE",
"158 1352 OFFCURVE",
"336 1352 CURVE SMOOTH"
);
}
);
width = 709;
}
);
unicode = 00B3;
},
{
glyphname = onesuperior;
lastChange = "2017-11-18 12:19:14 +0000";
layers = (
{
layerId = UUID0;
paths = (
{
closed = 1;
nodes = (
"360 1405 LINE",
"360 1438 OFFCURVE",
"352 1450 OFFCURVE",
"307 1450 CURVE SMOOTH",
"225 1450 OFFCURVE",
"98 1393 OFFCURVE",
"41 1354 CURVE",
"61 1280 LINE",
"221 1337 LINE",
"221 618 LINE SMOOTH",
"221 571 OFFCURVE",
"250 557 OFFCURVE",
"293 557 CURVE SMOOTH",
"322 557 OFFCURVE",
"354 563 OFFCURVE",
"379 578 CURVE",
"375 602 OFFCURVE",
"360 657 OFFCURVE",
"360 762 CURVE SMOOTH"
);
}
);
width = 420;
}
);
unicode = 00B9;
},
{
glyphname = minus;
lastChange = "2017-11-18 12:19:14 +0000";
layers = (
{
layerId = UUID0;
paths = (
{
closed = 1;
nodes = (
"907 489 LINE",
"965 489 OFFCURVE",
"989 510 OFFCURVE",
"989 569 CURVE SMOOTH",
"989 631 LINE",
"184 631 LINE SMOOTH",
"127 631 OFFCURVE",
"102 612 OFFCURVE",
"102 553 CURVE SMOOTH",
"102 489 LINE"
);
}
);
width = 1092;
}
);
unicode = 2212;
},
{
glyphname = breve;
lastChange = "2017-11-18 12:19:14 +0000";
layers = (
{
layerId = UUID0;
paths = (
{
closed = 1;
nodes = (
"723 1241 OFFCURVE",
"840 1409 OFFCURVE",
"840 1526 CURVE SMOOTH",
"840 1573 OFFCURVE",
"817 1589 OFFCURVE",
"762 1591 CURVE",
"754 1552 OFFCURVE",
"735 1386 OFFCURVE",
"522 1386 CURVE SMOOTH",
"309 1386 OFFCURVE",
"291 1552 OFFCURVE",
"283 1591 CURVE",
"227 1589 OFFCURVE",
"205 1573 OFFCURVE",
"205 1526 CURVE SMOOTH",
"205 1409 OFFCURVE",
"322 1241 OFFCURVE",
"522 1241 CURVE SMOOTH"
);
}
);
width = 1044;
}
);
unicode = 02D8;
},
{
glyphname = dotaccent;
lastChange = "2017-11-18 12:19:14 +0000";
layers = (
{
layerId = UUID0;
paths = (
{
closed = 1;
nodes = (
"367 1630 OFFCURVE",
"307 1569 OFFCURVE",
"307 1493 CURVE SMOOTH",
"307 1413 OFFCURVE",
"367 1352 OFFCURVE",
"453 1352 CURVE SMOOTH",
"541 1352 OFFCURVE",
"602 1413 OFFCURVE",
"602 1493 CURVE SMOOTH",
"602 1569 OFFCURVE",
"541 1630 OFFCURVE",
"453 1630 CURVE SMOOTH"
);
}
);
width = 909;
}
);
unicode = 02D9;
},
{
glyphname = hungarumlaut;
lastChange = "2017-11-18 12:19:14 +0000";
layers = (
{
layerId = UUID0;
paths = (
{
closed = 1;
nodes = (
"293 1327 LINE",
"283 1309 OFFCURVE",
"272 1286 OFFCURVE",
"272 1270 CURVE SMOOTH",
"272 1255 OFFCURVE",
"283 1243 OFFCURVE",
"311 1243 CURVE SMOOTH",
"383 1243 LINE",
"383 1243 OFFCURVE",
"559 1425 OFFCURVE",
"608 1473 CURVE SMOOTH",
"633 1495 OFFCURVE",
"643 1516 OFFCURVE",
"643 1532 CURVE SMOOTH",
"643 1556 OFFCURVE",
"621 1573 OFFCURVE",
"580 1573 CURVE SMOOTH",
"432 1573 LINE"
);
},
{
closed = 1;
nodes = (
"682 1327 LINE",
"672 1309 OFFCURVE",
"662 1286 OFFCURVE",
"662 1270 CURVE SMOOTH",
"662 1255 OFFCURVE",
"672 1243 OFFCURVE",
"700 1243 CURVE SMOOTH",
"772 1243 LINE",
"772 1243 OFFCURVE",
"948 1425 OFFCURVE",
"997 1473 CURVE SMOOTH",
"1022 1495 OFFCURVE",
"1032 1516 OFFCURVE",
"1032 1532 CURVE SMOOTH",
"1032 1556 OFFCURVE",
"1010 1573 OFFCURVE",
"969 1573 CURVE SMOOTH",
"821 1573 LINE"
);
}
);
width = 1087;
}
);
unicode = 02DD;
},
{
glyphname = ogonek;
lastChange = "2017-11-18 12:19:14 +0000";
layers = (
{
layerId = UUID0;
paths = (
{
closed = 1;
nodes = (
"537 -135 OFFCURVE",
"588 -70 OFFCURVE",
"659 2 CURVE",
"641 43 LINE",
"569 -6 OFFCURVE",
"373 -104 OFFCURVE",
"373 -270 CURVE SMOOTH",
"373 -326 OFFCURVE",
"412 -389 OFFCURVE",
"510 -389 CURVE SMOOTH",
"631 -389 OFFCURVE",
"707 -336 OFFCURVE",
"756 -299 CURVE",
"750 -260 OFFCURVE",
"733 -250 OFFCURVE",
"717 -250 CURVE SMOOTH",
"680 -250 OFFCURVE",
"643 -281 OFFCURVE",
"608 -281 CURVE SMOOTH",
"567 -281 OFFCURVE",
"537 -254 OFFCURVE",
"537 -193 CURVE SMOOTH"
);
}
);
width = 1104;
}
);
unicode = 02DB;
},
{
glyphname = caron;
lastChange = "2017-11-18 12:19:14 +0000";
layers = (
{
layerId = UUID0;
paths = (
{
closed = 1;
nodes = (
"954 1577 LINE",
"954 1577 OFFCURVE",
"915 1602 OFFCURVE",
"874 1602 CURVE SMOOTH",
"858 1602 OFFCURVE",
"842 1597 OFFCURVE",
"827 1585 CURVE SMOOTH",
"580 1374 LINE",
"332 1585 LINE SMOOTH",
"317 1597 OFFCURVE",
"301 1602 OFFCURVE",
"283 1602 CURVE SMOOTH",
"244 1602 OFFCURVE",
"205 1577 OFFCURVE",
"205 1577 CURVE",
"498 1251 LINE SMOOTH",
"524 1221 OFFCURVE",
"553 1206 OFFCURVE",
"580 1206 CURVE SMOOTH",
"608 1206 OFFCURVE",
"635 1223 OFFCURVE",
"662 1251 CURVE SMOOTH"
);
}
);
width = 1159;
}
);
unicode = 02C7;
},
{
glyphname = foundryicon;
lastChange = "2017-11-18 12:19:24 +0000";
layers = (
{
layerId = UUID0;
paths = (
{
closed = 1;
nodes = (
"2062 578 LINE",
"2054 580 OFFCURVE",
"2050 582 OFFCURVE",
"2040 582 CURVE SMOOTH",
"2025 582 OFFCURVE",
"2011 573 OFFCURVE",
"2001 561 CURVE",
"1985 573 OFFCURVE",
"1962 582 OFFCURVE",
"1937 582 CURVE SMOOTH",
"1882 582 OFFCURVE",
"1849 549 OFFCURVE",
"1849 506 CURVE SMOOTH",
"1849 481 OFFCURVE",
"1858 461 OFFCURVE",
"1878 449 CURVE",
"1860 432 OFFCURVE",
"1849 412 OFFCURVE",
"1849 387 CURVE SMOOTH",
"1849 371 OFFCURVE",
"1855 352 OFFCURVE",
"1870 342 CURVE",
"1964 342 LINE",
"1964 283 LINE",
"2019 283 LINE",
"2023 293 OFFCURVE",
"2032 309 OFFCURVE",
"2032 330 CURVE SMOOTH",
"2032 381 OFFCURVE",
"2003 403 OFFCURVE",
"1952 403 CURVE SMOOTH",
"1915 403 LINE",
"1915 434 LINE",
"1921 432 OFFCURVE",
"1929 432 OFFCURVE",
"1939 432 CURVE SMOOTH",
"2003 432 OFFCURVE",
"2032 467 OFFCURVE",
"2032 504 CURVE SMOOTH",
"2032 506 OFFCURVE",
"2032 510 OFFCURVE",
"2030 514 CURVE",
"2062 514 LINE"
);
},
{
closed = 1;
nodes = (
"502 358 LINE",
"483 299 OFFCURVE",
"453 283 OFFCURVE",
"414 283 CURVE SMOOTH",
"391 283 OFFCURVE",
"369 289 OFFCURVE",
"360 297 CURVE",
"360 350 LINE",
"395 350 LINE SMOOTH",
"416 350 OFFCURVE",
"430 354 OFFCURVE",
"438 373 CURVE",
"410 373 LINE",
"360 514 LINE",
"340 514 LINE",
"340 578 LINE",
"418 578 LINE",
"446 477 LINE",
"457 428 LINE",
"479 514 LINE",
"461 514 LINE",
"461 578 LINE",
"549 578 LINE",
"549 514 LINE"
);
},
{
closed = 1;
nodes = (
"324 434 LINE",
"258 434 LINE SMOOTH",
"207 434 OFFCURVE",
"182 461 OFFCURVE",
"182 510 CURVE SMOOTH",
"182 553 OFFCURVE",
"203 584 OFFCURVE",
"242 584 CURVE SMOOTH",
"248 584 OFFCURVE",
"254 584 OFFCURVE",
"260 582 CURVE",
"260 551 LINE",
"324 551 LINE",
"324 633 LINE",
"297 641 OFFCURVE",
"268 647 OFFCURVE",
"244 647 CURVE SMOOTH",
"152 647 OFFCURVE",
"104 590 OFFCURVE",
"104 502 CURVE SMOOTH",
"104 418 OFFCURVE",
"156 367 OFFCURVE",
"240 367 CURVE SMOOTH",
"270 367 OFFCURVE",
"301 373 OFFCURVE",
"324 383 CURVE"
);
},
{
closed = 1;
nodes = (
"1597 367 OFFCURVE",
"1636 408 OFFCURVE",
"1636 475 CURVE SMOOTH",
"1636 543 OFFCURVE",
"1597 582 OFFCURVE",
"1534 582 CURVE SMOOTH",
"1470 582 OFFCURVE",
"1432 541 OFFCURVE",
"1432 473 CURVE SMOOTH",
"1432 406 OFFCURVE",
"1468 367 OFFCURVE",
"1532 367 CURVE SMOOTH"
);
},
{
closed = 1;
nodes = (
"991 514 LINE",
"1042 514 LINE SMOOTH",
"1077 514 OFFCURVE",
"1087 504 OFFCURVE",
"1087 494 CURVE",
"1055 492 LINE SMOOTH",
"997 487 OFFCURVE",
"975 469 OFFCURVE",
"975 430 CURVE SMOOTH",
"975 389 OFFCURVE",
"1006 367 OFFCURVE",
"1044 367 CURVE SMOOTH",
"1063 367 OFFCURVE",
"1081 371 OFFCURVE",
"1096 383 CURVE",
"1104 373 OFFCURVE",
"1118 369 OFFCURVE",
"1141 369 CURVE SMOOTH",
"1155 369 OFFCURVE",
"1169 371 OFFCURVE",
"1182 379 CURVE",
"1182 434 LINE",
"1159 434 LINE",
"1159 504 LINE SMOOTH",
"1159 553 OFFCURVE",
"1128 582 OFFCURVE",
"1065 582 CURVE SMOOTH",
"1038 582 OFFCURVE",
"1016 575 OFFCURVE",
"991 567 CURVE"
);
},
{
closed = 1;
nodes = (
"944 434 LINE",
"944 381 LINE",
"922 371 OFFCURVE",
"893 367 OFFCURVE",
"868 367 CURVE SMOOTH",
"797 367 OFFCURVE",
"760 406 OFFCURVE",
"760 471 CURVE SMOOTH",
"760 537 OFFCURVE",
"793 582 OFFCURVE",
"860 582 CURVE SMOOTH",
"915 582 OFFCURVE",
"950 545 OFFCURVE",
"950 496 CURVE SMOOTH",
"950 485 OFFCURVE",
"948 473 OFFCURVE",
"946 459 CURVE",
"834 459 LINE",
"840 440 OFFCURVE",
"858 434 OFFCURVE",
"885 434 CURVE SMOOTH"
);
},
{
closed = 1;
nodes = (
"1661 514 LINE",
"1661 578 LINE",
"1731 578 LINE",
"1751 545 LINE",
"1761 565 OFFCURVE",
"1778 582 OFFCURVE",
"1802 582 CURVE SMOOTH",
"1810 582 OFFCURVE",
"1821 580 OFFCURVE",
"1827 578 CURVE",
"1827 514 LINE",
"1757 514 LINE",
"1757 434 LINE",
"1792 434 LINE",
"1792 373 LINE",
"1665 373 LINE",
"1665 434 LINE",
"1683 434 LINE",
"1683 514 LINE"
);
},
{
closed = 1;
nodes = (
"578 514 LINE",
"578 514 LINE",
"647 578 LINE",
"668 545 LINE",
"678 565 OFFCURVE",
"694 582 OFFCURVE",
"719 582 CURVE SMOOTH",
"729 582 OFFCURVE",
"737 580 OFFCURVE",
"743 578 CURVE",
"743 514 LINE",
"674 514 LINE",
"674 434 LINE",
"709 434 LINE",
"709 373 LINE",
"582 373 LINE",
"582 434 LINE",
"602 434 LINE",
"602 514 LINE"
);
},
{
closed = 1;
nodes = (
"1206 426 LINE",
"1206 387 OFFCURVE",
"1225 369 OFFCURVE",
"1262 369 CURVE SMOOTH",
"1278 369 OFFCURVE",
"1292 371 OFFCURVE",
"1307 377 CURVE",
"1307 434 LINE",
"1278 434 LINE",
"1278 647 LINE",
"1182 647 LINE",
"1182 584 LINE",
"1206 584 LINE"
);
},
{
closed = 1;
nodes = (
"1333 387 OFFCURVE",
"1348 369 OFFCURVE",
"1374 369 CURVE SMOOTH",
"1403 369 OFFCURVE",
"1419 387 OFFCURVE",
"1419 408 CURVE SMOOTH",
"1419 430 OFFCURVE",
"1403 449 OFFCURVE",
"1374 449 CURVE SMOOTH",
"1348 449 OFFCURVE",
"1333 430 OFFCURVE",
"1333 408 CURVE SMOOTH"
);
},
{
closed = 1;
nodes = (
"1516 422 OFFCURVE",
"1505 436 OFFCURVE",
"1505 475 CURVE SMOOTH",
"1505 510 OFFCURVE",
"1516 524 OFFCURVE",
"1534 524 CURVE SMOOTH",
"1552 524 OFFCURVE",
"1563 510 OFFCURVE",
"1563 475 CURVE SMOOTH",
"1563 436 OFFCURVE",
"1552 422 OFFCURVE",
"1534 422 CURVE SMOOTH"
);
},
{
closed = 1;
nodes = (
"1917 526 OFFCURVE",
"1927 537 OFFCURVE",
"1942 537 CURVE SMOOTH",
"1954 537 OFFCURVE",
"1962 526 OFFCURVE",
"1962 506 CURVE SMOOTH",
"1962 485 OFFCURVE",
"1954 475 OFFCURVE",
"1942 475 CURVE SMOOTH",
"1927 475 OFFCURVE",
"1917 485 OFFCURVE",
"1917 506 CURVE SMOOTH"
);
},
{
closed = 1;
nodes = (
"1053 418 OFFCURVE",
"1044 424 OFFCURVE",
"1044 436 CURVE SMOOTH",
"1044 446 OFFCURVE",
"1053 455 OFFCURVE",
"1071 455 CURVE SMOOTH",
"1087 455 LINE",
"1087 424 LINE",
"1079 418 OFFCURVE",
"1073 418 OFFCURVE",
"1065 418 CURVE SMOOTH"
);
},
{
closed = 1;
nodes = (
"844 528 OFFCURVE",
"836 518 OFFCURVE",
"831 496 CURVE",
"883 496 LINE",
"883 516 OFFCURVE",
"877 528 OFFCURVE",
"858 528 CURVE SMOOTH"
);
}
);
width = 2163;
}
);
},
{
glyphname = oslash;
lastChange = "2017-11-18 12:19:14 +0000";
layers = (
{
layerId = UUID0;
paths = (
{
closed = 1;
nodes = (
"1045 1178 LINE SMOOTH",
"1050 1190 OFFCURVE",
"1052 1200 OFFCURVE",
"1052 1207 CURVE SMOOTH",
"1052 1238 OFFCURVE",
"1021 1246 OFFCURVE",
"979 1246 CURVE SMOOTH",
"922 1246 LINE",
"830 1032 LINE",
"778 1047 OFFCURVE",
"722 1055 OFFCURVE",
"664 1055 CURVE SMOOTH",
"356 1055 OFFCURVE",
"113 838 OFFCURVE",
"113 510 CURVE SMOOTH",
"113 288 OFFCURVE",
"227 116 OFFCURVE",
"398 30 CURVE",
"315 -163 LINE SMOOTH",
"310 -173 OFFCURVE",
"308 -181 OFFCURVE",
"308 -189 CURVE SMOOTH",
"308 -217 OFFCURVE",
"337 -231 OFFCURVE",
"380 -231 CURVE SMOOTH",
"438 -231 LINE",
"530 -16 LINE",
"573 -26 OFFCURVE",
"618 -31 OFFCURVE",
"664 -31 CURVE SMOOTH",
"969 -31 OFFCURVE",
"1212 184 OFFCURVE",
"1212 510 CURVE SMOOTH",
"1212 721 OFFCURVE",
"1112 886 OFFCURVE",
"958 977 CURVE"
);
},
{
closed = 1;
nodes = (
"360 739 OFFCURVE",
"420 948 OFFCURVE",
"664 948 CURVE SMOOTH",
"710 948 OFFCURVE",
"750 940 OFFCURVE",
"784 926 CURVE",
"454 161 LINE",
"382 243 OFFCURVE",
"360 374 OFFCURVE",
"360 512 CURVE SMOOTH"
);
},
{
closed = 1;
nodes = (
"965 285 OFFCURVE",
"907 76 OFFCURVE",
"664 76 CURVE SMOOTH",
"631 76 OFFCURVE",
"601 80 OFFCURVE",
"575 87 CURVE",
"895 831 LINE",
"948 749 OFFCURVE",
"965 633 OFFCURVE",
"965 512 CURVE SMOOTH"
);
}
);
width = 1325;
}
);
leftKerningGroup = o;
rightKerningGroup = o;
unicode = 00F8;
},
{
glyphname = Oslash;
lastChange = "2017-11-18 12:19:14 +0000";
layers = (
{
layerId = UUID0;
paths = (
{
closed = 1;
nodes = (
"1224 1459 LINE",
"1229 1473 OFFCURVE",
"1231 1485 OFFCURVE",
"1231 1492 CURVE SMOOTH",
"1231 1527 OFFCURVE",
"1196 1536 OFFCURVE",
"1148 1536 CURVE SMOOTH",
"1085 1536 LINE",
"1034 1417 LINE",
"965 1438 OFFCURVE",
"890 1450 OFFCURVE",
"809 1450 CURVE SMOOTH",
"387 1450 OFFCURVE",
"133 1145 OFFCURVE",
"133 705 CURVE SMOOTH",
"133 410 OFFCURVE",
"246 178 OFFCURVE",
"447 55 CURVE",
"397 -60 LINE",
"391 -71 OFFCURVE",
"389 -81 OFFCURVE",
"389 -89 CURVE SMOOTH",
"389 -121 OFFCURVE",
"422 -137 OFFCURVE",
"470 -137 CURVE SMOOTH",
"536 -137 LINE",
"591 -8 LINE",
"658 -28 OFFCURVE",
"730 -39 OFFCURVE",
"809 -39 CURVE SMOOTH",
"1231 -39 OFFCURVE",
"1483 264 OFFCURVE",
"1483 705 CURVE SMOOTH",
"1483 995 OFFCURVE",
"1373 1226 OFFCURVE",
"1177 1350 CURVE"
);
},
{
closed = 1;
nodes = (
"393 1034 OFFCURVE",
"504 1323 OFFCURVE",
"809 1323 CURVE SMOOTH",
"874 1323 OFFCURVE",
"930 1310 OFFCURVE",
"978 1287 CURVE",
"517 217 LINE",
"429 327 OFFCURVE",
"393 499 OFFCURVE",
"393 705 CURVE SMOOTH"
);
},
{
closed = 1;
nodes = (
"1223 346 OFFCURVE",
"1110 88 OFFCURVE",
"809 88 CURVE SMOOTH",
"747 88 OFFCURVE",
"692 98 OFFCURVE",
"646 118 CURVE",
"1104 1181 LINE",
"1188 1067 OFFCURVE",
"1223 895 OFFCURVE",
"1223 705 CURVE SMOOTH"
);
}
);
width = 1616;
}
);
leftKerningGroup = O;
rightKerningGroup = O;
unicode = 00D8;
},
{
glyphname = thorn;
lastChange = "2017-11-18 12:19:14 +0000";
layers = (
{
layerId = UUID0;
paths = (
{
closed = 1;
nodes = (
"268 -393 LINE",
"268 -467 OFFCURVE",
"317 -494 OFFCURVE",
"385 -494 CURVE SMOOTH",
"428 -494 OFFCURVE",
"492 -481 OFFCURVE",
"528 -461 CURVE",
"528 -457 LINE",
"528 -455 OFFCURVE",
"526 -451 OFFCURVE",
"526 -449 CURVE SMOOTH",
"526 -446 OFFCURVE",
"524 -444 OFFCURVE",
"524 -442 CURVE SMOOTH",
"516 -399 OFFCURVE",
"500 -317 OFFCURVE",
"500 -174 CURVE SMOOTH",
"500 -2 LINE",
"569 -18 OFFCURVE",
"649 -31 OFFCURVE",
"731 -31 CURVE SMOOTH",
"1063 -31 OFFCURVE",
"1290 205 OFFCURVE",
"1290 532 CURVE SMOOTH",
"1290 819 OFFCURVE",
"1161 1055 OFFCURVE",
"856 1055 CURVE SMOOTH",
"733 1055 OFFCURVE",
"598 997 OFFCURVE",
"500 932 CURVE",
"500 1483 LINE SMOOTH",
"500 1536 OFFCURVE",
"469 1536 OFFCURVE",
"414 1536 CURVE SMOOTH",
"309 1536 OFFCURVE",
"147 1520 OFFCURVE",
"92 1495 CURVE",
"92 1419 LINE",
"268 1419 LINE"
);
},
{
closed = 1;
nodes = (
"985 934 OFFCURVE",
"1042 778 OFFCURVE",
"1042 549 CURVE SMOOTH",
"1042 254 OFFCURVE",
"938 80 OFFCURVE",
"723 80 CURVE SMOOTH",
"616 80 OFFCURVE",
"500 111 OFFCURVE",
"500 113 CURVE",
"500 836 LINE",
"598 889 OFFCURVE",
"711 934 OFFCURVE",
"821 934 CURVE SMOOTH"
);
}
);
width = 1403;
}
);
leftKerningGroup = b;
rightKerningGroup = b;
unicode = 00FE;
},
{
glyphname = Eth;
lastChange = "2017-11-18 12:19:14 +0000";
layers = (
{
layerId = UUID0;
paths = (
{
closed = 1;
nodes = (
"113 1264 LINE",
"115 1264 OFFCURVE",
"307 1274 OFFCURVE",
"307 1274 CURVE",
"305 778 LINE",
"180 778 LINE SMOOTH",
"133 778 OFFCURVE",
"115 764 OFFCURVE",
"115 717 CURVE SMOOTH",
"115 668 LINE",
"305 668 LINE",
"305 82 LINE SMOOTH",
"305 25 OFFCURVE",
"324 0 OFFCURVE",
"383 0 CURVE SMOOTH",
"856 0 LINE SMOOTH",
"1253 0 OFFCURVE",
"1544 219 OFFCURVE",
"1544 702 CURVE SMOOTH",
"1544 1223 OFFCURVE",
"1307 1432 OFFCURVE",
"840 1432 CURVE SMOOTH",
"575 1432 OFFCURVE",
"266 1401 OFFCURVE",
"113 1350 CURVE"
);
},
{
closed = 1;
nodes = (
"788 668 LINE",
"836 668 OFFCURVE",
"854 684 OFFCURVE",
"854 729 CURVE SMOOTH",
"854 778 LINE",
"539 778 LINE",
"539 1292 LINE",
"539 1290 OFFCURVE",
"678 1303 OFFCURVE",
"819 1303 CURVE SMOOTH",
"1182 1303 OFFCURVE",
"1286 1087 OFFCURVE",
"1286 702 CURVE SMOOTH",
"1286 289 OFFCURVE",
"1104 127 OFFCURVE",
"772 127 CURVE SMOOTH",
"662 127 OFFCURVE",
"541 141 OFFCURVE",
"541 141 CURVE",
"539 668 LINE"
);
}
);
width = 1677;
}
);
leftKerningGroup = I;
rightKerningGroup = D;
unicode = 00D0;
},
{
glyphname = ae;
lastChange = "2017-11-18 12:19:14 +0000";
layers = (
{
layerId = UUID0;
paths = (
{
closed = 1;
nodes = (
"733 1040 OFFCURVE",
"655 1055 OFFCURVE",
"561 1055 CURVE SMOOTH",
"426 1055 OFFCURVE",
"139 1014 OFFCURVE",
"139 911 CURVE SMOOTH",
"139 899 OFFCURVE",
"143 887 OFFCURVE",
"154 874 CURVE SMOOTH",
"236 764 LINE",
"236 770 OFFCURVE",
"487 954 OFFCURVE",
"614 954 CURVE SMOOTH",
"756 954 OFFCURVE",
"772 813 OFFCURVE",
"772 657 CURVE SMOOTH",
"772 582 LINE",
"631 582 LINE SMOOTH",
"328 582 OFFCURVE",
"113 498 OFFCURVE",
"113 268 CURVE SMOOTH",
"113 57 OFFCURVE",
"268 -31 OFFCURVE",
"444 -31 CURVE SMOOTH",
"616 -31 OFFCURVE",
"780 68 OFFCURVE",
"877 137 CURVE",
"987 23 OFFCURVE",
"1145 -31 OFFCURVE",
"1311 -31 CURVE SMOOTH",
"1444 -31 OFFCURVE",
"1591 0 OFFCURVE",
"1700 74 CURVE",
"1667 141 LINE",
"1577 113 OFFCURVE",
"1491 98 OFFCURVE",
"1413 98 CURVE SMOOTH",
"1227 98 OFFCURVE",
"1081 174 OFFCURVE",
"1012 322 CURVE",
"1012 459 LINE",
"1569 457 LINE SMOOTH",
"1702 457 OFFCURVE",
"1726 569 OFFCURVE",
"1726 664 CURVE SMOOTH",
"1726 870 OFFCURVE",
"1567 1055 OFFCURVE",
"1300 1055 CURVE SMOOTH",
"1151 1055 OFFCURVE",
"1020 1006 OFFCURVE",
"920 924 CURVE",
"883 967 OFFCURVE",
"836 997 OFFCURVE",
"786 1018 CURVE SMOOTH"
);
},
{
closed = 1;
nodes = (
"1008 580 LINE",
"1008 799 LINE",
"1049 885 OFFCURVE",
"1126 944 OFFCURVE",
"1247 944 CURVE SMOOTH",
"1409 944 OFFCURVE",
"1497 795 OFFCURVE",
"1497 662 CURVE SMOOTH",
"1497 633 OFFCURVE",
"1495 606 OFFCURVE",
"1487 580 CURVE"
);
},
{
closed = 1;
nodes = (
"403 117 OFFCURVE",
"342 182 OFFCURVE",
"342 285 CURVE SMOOTH",
"342 428 OFFCURVE",
"502 459 OFFCURVE",
"604 459 CURVE SMOOTH",
"772 459 LINE",
"772 178 LINE",
"772 178 OFFCURVE",
"594 119 OFFCURVE",
"518 117 CURVE"
);
}
);
width = 1829;
}
);
leftKerningGroup = a;
rightKerningGroup = e;
unicode = 00E6;
},
{
glyphname = section;
lastChange = "2017-11-18 12:19:14 +0000";
layers = (
{
layerId = UUID0;
paths = (
{
closed = 1;
nodes = (
"850 1081 OFFCURVE",
"313 1071 OFFCURVE",
"313 1290 CURVE SMOOTH",
"313 1382 OFFCURVE",
"383 1423 OFFCURVE",
"459 1423 CURVE SMOOTH",
"569 1423 OFFCURVE",
"657 1362 OFFCURVE",
"739 1317 CURVE",
"793 1411 LINE SMOOTH",
"801 1423 OFFCURVE",
"803 1436 OFFCURVE",
"803 1446 CURVE SMOOTH",
"803 1534 OFFCURVE",
"610 1536 OFFCURVE",
"530 1536 CURVE SMOOTH",
"360 1536 OFFCURVE",
"156 1460 OFFCURVE",
"156 1253 CURVE SMOOTH",
"156 1167 OFFCURVE",
"184 1073 OFFCURVE",
"313 987 CURVE",
"217 944 OFFCURVE",
"145 862 OFFCURVE",
"145 737 CURVE SMOOTH",
"145 625 OFFCURVE",
"176 524 OFFCURVE",
"418 383 CURVE SMOOTH",
"535 313 OFFCURVE",
"682 268 OFFCURVE",
"682 172 CURVE SMOOTH",
"682 80 OFFCURVE",
"590 47 OFFCURVE",
"518 47 CURVE SMOOTH",
"371 47 OFFCURVE",
"203 217 OFFCURVE",
"203 217 CURVE",
"133 111 LINE SMOOTH",
"127 100 OFFCURVE",
"123 92 OFFCURVE",
"123 84 CURVE SMOOTH",
"123 61 OFFCURVE",
"145 43 OFFCURVE",
"166 29 CURVE SMOOTH",
"272 -43 OFFCURVE",
"393 -72 OFFCURVE",
"512 -72 CURVE SMOOTH",
"688 -72 OFFCURVE",
"840 31 OFFCURVE",
"840 221 CURVE SMOOTH",
"840 332 OFFCURVE",
"774 414 OFFCURVE",
"678 469 CURVE",
"782 518 OFFCURVE",
"850 614 OFFCURVE",
"850 752 CURVE SMOOTH"
);
},
{
closed = 1;
nodes = (
"692 623 OFFCURVE",
"627 567 OFFCURVE",
"543 537 CURVE",
"430 598 OFFCURVE",
"303 639 OFFCURVE",
"303 766 CURVE SMOOTH",
"303 846 OFFCURVE",
"358 897 OFFCURVE",
"434 924 CURVE",
"557 870 OFFCURVE",
"692 805 OFFCURVE",
"692 705 CURVE SMOOTH"
);
}
);
width = 973;
}
);
unicode = 00A7;
},
{
glyphname = eth;
lastChange = "2017-11-18 12:19:14 +0000";
layers = (
{
layerId = UUID0;
paths = (
{
closed = 1;
nodes = (
"1049 1421 LINE",
"1081 1440 OFFCURVE",
"1090 1456 OFFCURVE",
"1069 1497 CURVE SMOOTH",
"1051 1536 LINE",
"774 1380 LINE",
"651 1456 OFFCURVE",
"496 1505 OFFCURVE",
"305 1518 CURVE",
"291 1423 LINE",
"410 1405 OFFCURVE",
"526 1362 OFFCURVE",
"625 1296 CURVE",
"426 1184 LINE SMOOTH",
"391 1163 OFFCURVE",
"381 1143 OFFCURVE",
"403 1104 CURVE SMOOTH",
"426 1065 LINE",
"711 1227 LINE",
"803 1149 OFFCURVE",
"860 1024 OFFCURVE",
"891 887 CURVE",
"823 936 OFFCURVE",
"735 973 OFFCURVE",
"602 973 CURVE SMOOTH",
"319 973 OFFCURVE",
"92 780 OFFCURVE",
"92 489 CURVE SMOOTH",
"92 178 OFFCURVE",
"307 -31 OFFCURVE",
"602 -31 CURVE SMOOTH",
"1022 -31 OFFCURVE",
"1137 356 OFFCURVE",
"1137 618 CURVE SMOOTH",
"1137 866 OFFCURVE",
"1061 1133 OFFCURVE",
"864 1315 CURVE"
);
},
{
closed = 1;
nodes = (
"422 76 OFFCURVE",
"340 272 OFFCURVE",
"340 492 CURVE SMOOTH",
"340 668 OFFCURVE",
"408 866 OFFCURVE",
"602 866 CURVE SMOOTH",
"768 866 OFFCURVE",
"856 764 OFFCURVE",
"903 666 CURVE",
"926 354 OFFCURVE",
"840 76 OFFCURVE",
"616 76 CURVE SMOOTH"
);
}
);
width = 1239;
}
);
unicode = 00F0;
},
{
glyphname = yen;
lastChange = "2017-11-18 12:19:14 +0000";
layers = (
{
layerId = UUID0;
paths = (
{
closed = 1;
nodes = (
"1096 379 LINE",
"1139 379 OFFCURVE",
"1157 393 OFFCURVE",
"1157 440 CURVE SMOOTH",
"1157 467 LINE",
"899 467 LINE",
"899 563 LINE",
"1096 563 LINE SMOOTH",
"1139 563 OFFCURVE",
"1157 578 OFFCURVE",
"1157 623 CURVE SMOOTH",
"1157 651 LINE",
"924 651 LINE",
"1120 928 OFFCURVE",
"1284 1149 OFFCURVE",
"1284 1321 CURVE SMOOTH",
"1284 1389 OFFCURVE",
"1260 1432 OFFCURVE",
"1208 1432 CURVE SMOOTH",
"1186 1432 OFFCURVE",
"1137 1421 OFFCURVE",
"1004 1354 CURVE",
"1026 1286 OFFCURVE",
"1040 1231 OFFCURVE",
"1040 1178 CURVE SMOOTH",
"1040 1063 OFFCURVE",
"983 954 OFFCURVE",
"842 754 CURVE",
"838 754 LINE",
"414 1364 LINE SMOOTH",
"383 1409 OFFCURVE",
"356 1425 OFFCURVE",
"324 1425 CURVE SMOOTH",
"233 1425 OFFCURVE",
"63 1300 OFFCURVE",
"0 1241 CURVE",
"33 1169 LINE",
"209 1247 LINE",
"633 651 LINE",
"471 651 LINE SMOOTH",
"426 651 OFFCURVE",
"408 637 OFFCURVE",
"408 592 CURVE SMOOTH",
"408 563 LINE",
"657 563 LINE",
"657 467 LINE",
"471 467 LINE SMOOTH",
"426 467 OFFCURVE",
"408 453 OFFCURVE",
"408 408 CURVE SMOOTH",
"408 379 LINE",
"659 379 LINE",
"659 82 LINE SMOOTH",
"659 6 OFFCURVE",
"700 -18 OFFCURVE",
"784 -18 CURVE SMOOTH",
"829 -18 OFFCURVE",
"891 -6 OFFCURVE",
"930 16 CURVE",
"922 55 OFFCURVE",
"899 145 OFFCURVE",
"899 315 CURVE SMOOTH",
"899 379 LINE"
);
}
);
width = 1427;
}
);
unicode = 00A5;
},
{
glyphname = onequarter;
lastChange = "2017-11-18 12:19:14 +0000";
layers = (
{
layerId = UUID0;
paths = (
{
closed = 1;
nodes = (
"380 762 LINE",
"380 683 LINE",
"396 596 LINE",
"399 578 LINE",
"363 557 LINE",
"313 557 LINE",
"241 557 LINE",
"241 618 LINE",
"241 1337 LINE",
"81 1280 LINE",
"61 1354 LINE",
"140 1411 LINE",
"258 1440 LINE",
"296 1450 LINE",
"361 1450 LINE",
"380 1430 LINE",
"380 1405 LINE"
);
},
{
closed = 1;
nodes = (
"1082 1331 LINE",
"1096 1360 LINE",
"1096 1380 LINE",
"1096 1399 LINE",
"1065 1413 LINE",
"1031 1413 LINE",
"984 1413 LINE",
"369 82 LINE",
"351 44 LINE",
"351 27 LINE",
"351 13 LINE",
"374 0 LINE",
"402 0 LINE",
"468 0 LINE"
);
},
{
closed = 1;
nodes = (
"1486 271 LINE",
"1486 222 LINE",
"1434 222 LINE",
"1322 222 LINE",
"1322 86 LINE",
"1340 5 LINE",
"1307 -17 LINE",
"1180 -17 LINE",
"1180 44 LINE",
"1180 222 LINE",
"818 222 LINE",
"775 222 LINE",
"775 251 LINE",
"775 267 LINE",
"783 280 LINE",
"1130 783 LINE",
"1184 855 LINE",
"1206 884 LINE",
"1213 888 LINE",
"1223 890 LINE",
"1240 890 LINE",
"1271 890 LINE",
"1322 890 LINE",
"1322 847 LINE",
"1322 319 LINE",
"1486 319 LINE"
);
},
{
closed = 1;
nodes = (
"1178 319 LINE",
"1178 695 LINE",
"929 319 LINE"
);
}
);
width = 1548;
}
);
unicode = 00BC;
},
{
glyphname = threequarters;
lastChange = "2017-11-18 12:19:14 +0000";
layers = (
{
layerId = UUID0;
paths = (
{
closed = 1;
nodes = (
"1430 -18 OFFCURVE",
"1432 -18 OFFCURVE",
"1436 -18 CURVE SMOOTH",
"1464 -18 OFFCURVE",
"1497 -12 OFFCURVE",
"1522 4 CURVE",
"1518 29 OFFCURVE",
"1503 78 OFFCURVE",
"1503 184 CURVE SMOOTH",
"1503 221 LINE",
"1616 221 LINE SMOOTH",
"1651 221 OFFCURVE",
"1667 236 OFFCURVE",
"1667 270 CURVE SMOOTH",
"1667 317 LINE",
"1503 317 LINE",
"1503 846 LINE SMOOTH",
"1503 872 OFFCURVE",
"1489 889 OFFCURVE",
"1452 889 CURVE SMOOTH",
"1444 889 OFFCURVE",
"1407 889 OFFCURVE",
"1395 887 CURVE",
"1358 866 OFFCURVE",
"965 279 OFFCURVE",
"965 279 CURVE",
"961 272 OFFCURVE",
"956 262 OFFCURVE",
"956 250 CURVE SMOOTH",
"956 236 OFFCURVE",
"965 221 OFFCURVE",
"999 221 CURVE SMOOTH",
"1362 221 LINE",
"1362 43 LINE SMOOTH",
"1362 2 OFFCURVE",
"1389 -14 OFFCURVE",
"1425 -18 CURVE SMOOTH"
);
},
{
closed = 1;
nodes = (
"459 1352 LINE",
"440 1249 OFFCURVE",
"362 1149 OFFCURVE",
"256 1071 CURVE SMOOTH",
"252 1067 OFFCURVE",
"240 1065 OFFCURVE",
"240 1038 CURVE SMOOTH",
"240 973 LINE",
"285 975 LINE",
"436 975 OFFCURVE",
"526 932 OFFCURVE",
"526 809 CURVE SMOOTH",
"526 707 OFFCURVE",
"463 641 OFFCURVE",
"356 641 CURVE SMOOTH",
"266 641 OFFCURVE",
"195 711 OFFCURVE",
"117 764 CURVE",
"70 674 LINE SMOOTH",
"63 664 OFFCURVE",
"61 653 OFFCURVE",
"61 647 CURVE SMOOTH",
"61 584 OFFCURVE",
"240 539 OFFCURVE",
"354 539 CURVE SMOOTH",
"530 539 OFFCURVE",
"688 635 OFFCURVE",
"688 797 CURVE SMOOTH",
"688 961 OFFCURVE",
"571 1049 OFFCURVE",
"385 1061 CURVE",
"395 1067 OFFCURVE",
"588 1208 OFFCURVE",
"635 1372 CURVE",
"635 1397 LINE SMOOTH",
"635 1413 OFFCURVE",
"635 1436 OFFCURVE",
"569 1440 CURVE SMOOTH",
"489 1444 OFFCURVE",
"424 1450 OFFCURVE",
"350 1450 CURVE SMOOTH",
"238 1450 OFFCURVE",
"68 1440 OFFCURVE",
"68 1386 CURVE SMOOTH",
"68 1372 OFFCURVE",
"121 1282 OFFCURVE",
"131 1262 CURVE",
"135 1270 OFFCURVE",
"186 1352 OFFCURVE",
"356 1352 CURVE SMOOTH"
);
},
{
closed = 1;
nodes = (
"1270 1331 LINE",
"1280 1352 OFFCURVE",
"1284 1368 OFFCURVE",
"1284 1380 CURVE SMOOTH",
"1284 1405 OFFCURVE",
"1264 1413 OFFCURVE",
"1219 1413 CURVE SMOOTH",
"1171 1413 LINE",
"557 82 LINE SMOOTH",
"545 57 OFFCURVE",
"539 39 OFFCURVE",
"539 27 CURVE SMOOTH",
"539 8 OFFCURVE",
"553 0 OFFCURVE",
"590 0 CURVE SMOOTH",
"655 0 LINE"
);
},
{
closed = 1;
nodes = (
"1116 317 LINE",
"1112 319 LINE",
"1360 694 LINE",
"1360 317 LINE"
);
}
);
width = 1729;
}
);
unicode = 00BE;
},
{
glyphname = ordmasculine;
lastChange = "2017-11-18 12:19:14 +0000";
layers = (
{
hints = (
{
place = "{82, 137}";
},
{
place = "{553, 139}";
},
{
horizontal = 1;
place = "{702, 62}";
},
{
horizontal = 1;
place = "{1262, 59}";
}
);
layerId = UUID0;
paths = (
{
closed = 1;
nodes = (
"779 1335 OFFCURVE",
"625 1475 OFFCURVE",
"431 1475 CURVE SMOOTH",
"236 1475 OFFCURVE",
"82 1335 OFFCURVE",
"82 1125 CURVE SMOOTH",
"82 915 OFFCURVE",
"236 778 OFFCURVE",
"431 778 CURVE SMOOTH",
"623 778 OFFCURVE",
"779 915 OFFCURVE",
"779 1125 CURVE SMOOTH"
);
},
{
closed = 1;
nodes = (
"328 853 OFFCURVE",
"264 939 OFFCURVE",
"264 1127 CURVE SMOOTH",
"264 1328 OFFCURVE",
"334 1404 OFFCURVE",
"432 1404 CURVE SMOOTH",
"530 1404 OFFCURVE",
"598 1328 OFFCURVE",
"598 1127 CURVE SMOOTH",
"598 939 OFFCURVE",
"537 853 OFFCURVE",
"432 853 CURVE SMOOTH"
);
}
);
width = 774;
}
);
unicode = 00BA;
},
{
glyphname = cent;
lastChange = "2017-11-18 12:19:14 +0000";
layers = (
{
layerId = UUID0;
paths = (
{
closed = 1;
nodes = (
"559 342 LINE",
"414 406 OFFCURVE",
"346 551 OFFCURVE",
"346 723 CURVE SMOOTH",
"346 883 OFFCURVE",
"401 1073 OFFCURVE",
"559 1133 CURVE"
);
},
{
closed = 1;
nodes = (
"676 1368 LINE",
"676 1425 OFFCURVE",
"655 1450 OFFCURVE",
"596 1450 CURVE SMOOTH",
"559 1450 LINE",
"559 1235 LINE",
"303 1165 OFFCURVE",
"111 963 OFFCURVE",
"111 662 CURVE SMOOTH",
"111 381 OFFCURVE",
"313 211 OFFCURVE",
"559 182 CURVE",
"559 82 LINE SMOOTH",
"559 25 OFFCURVE",
"578 0 OFFCURVE",
"637 0 CURVE SMOOTH",
"676 0 LINE",
"676 178 LINE",
"799 184 OFFCURVE",
"932 215 OFFCURVE",
"1038 283 CURVE",
"1012 350 LINE",
"915 322 OFFCURVE",
"827 307 OFFCURVE",
"745 307 CURVE SMOOTH",
"721 307 OFFCURVE",
"698 309 OFFCURVE",
"676 311 CURVE",
"676 1141 LINE",
"778 1126 OFFCURVE",
"883 1065 OFFCURVE",
"956 1020 CURVE",
"1040 1153 LINE SMOOTH",
"1044 1161 OFFCURVE",
"1047 1169 OFFCURVE",
"1047 1176 CURVE SMOOTH",
"1047 1249 OFFCURVE",
"813 1264 OFFCURVE",
"772 1264 CURVE SMOOTH",
"739 1264 OFFCURVE",
"707 1262 OFFCURVE",
"676 1257 CURVE"
);
}
);
width = 1151;
}
);
unicode = 00A2;
},
{
glyphname = AE;
lastChange = "2017-11-18 12:19:14 +0000";
layers = (
{
layerId = UUID0;
paths = (
{
closed = 1;
nodes = (
"1135 -6 OFFCURVE",
"1317 -12 OFFCURVE",
"1491 -12 CURVE SMOOTH",
"1819 -12 OFFCURVE",
"1923 -14 OFFCURVE",
"1923 106 CURVE SMOOTH",
"1923 160 OFFCURVE",
"1905 219 OFFCURVE",
"1903 219 CURVE SMOOTH",
"1731 164 OFFCURVE",
"1546 141 OFFCURVE",
"1368 141 CURVE SMOOTH",
"1229 141 LINE",
"1229 659 LINE",
"1622 659 LINE SMOOTH",
"1688 659 OFFCURVE",
"1716 682 OFFCURVE",
"1716 752 CURVE SMOOTH",
"1716 801 LINE",
"1229 801 LINE",
"1229 1270 LINE",
"1409 1268 LINE SMOOTH",
"1694 1264 OFFCURVE",
"1835 1153 OFFCURVE",
"1835 1151 CURVE SMOOTH",
"1849 1167 OFFCURVE",
"1927 1298 OFFCURVE",
"1927 1325 CURVE SMOOTH",
"1927 1415 OFFCURVE",
"1620 1423 OFFCURVE",
"1440 1423 CURVE SMOOTH",
"1278 1423 OFFCURVE",
"1116 1411 OFFCURVE",
"993 1397 CURVE",
"993 1395 LINE",
"993 1397 OFFCURVE",
"229 457 OFFCURVE",
"86 55 CURVE",
"84 45 OFFCURVE",
"82 35 OFFCURVE",
"82 29 CURVE SMOOTH",
"82 -4 OFFCURVE",
"104 -16 OFFCURVE",
"147 -16 CURVE SMOOTH",
"158 -16 OFFCURVE",
"168 -16 OFFCURVE",
"178 -14 CURVE SMOOTH",
"377 4 LINE",
"375 16 OFFCURVE",
"375 31 OFFCURVE",
"375 45 CURVE SMOOTH",
"375 139 OFFCURVE",
"410 254 OFFCURVE",
"473 381 CURVE",
"993 381 LINE",
"993 86 LINE SMOOTH",
"993 29 OFFCURVE",
"1010 6 OFFCURVE",
"1071 0 CURVE SMOOTH"
);
},
{
closed = 1;
nodes = (
"989 1182 OFFCURVE",
"991 1180 OFFCURVE",
"993 1180 CURVE",
"993 518 LINE",
"547 518 LINE",
"664 721 OFFCURVE",
"827 950 OFFCURVE",
"989 1182 CURVE"
);
}
);
width = 2062;
}
);
rightKerningGroup = E;
unicode = 00C6;
},
{
glyphname = idotless;
lastChange = "2017-11-18 12:19:24 +0000";
layers = (
{
layerId = UUID0;
paths = (
{
closed = 1;
nodes = (
"442 985 LINE",
"442 1042 OFFCURVE",
"408 1038 OFFCURVE",
"356 1038 CURVE SMOOTH",
"252 1038 OFFCURVE",
"90 1022 OFFCURVE",
"35 997 CURVE",
"35 922 LINE",
"211 922 LINE",
"211 78 LINE SMOOTH",
"211 -4 OFFCURVE",
"272 -18 OFFCURVE",
"354 -18 CURVE SMOOTH",
"451 -18 OFFCURVE",
"571 0 OFFCURVE",
"616 25 CURVE",
"616 100 LINE",
"442 100 LINE"
);
}
);
width = 655;
}
);
leftKerningGroup = i;
rightKerningGroup = i;
unicode = 0131;
},
{
glyphname = foursuperior;
lastChange = "2017-11-18 12:19:24 +0000";
layers = (
{
layerId = UUID0;
paths = (
{
closed = 1;
nodes = (
"549 582 OFFCURVE",
"582 588 OFFCURVE",
"606 604 CURVE",
"602 629 OFFCURVE",
"588 678 OFFCURVE",
"588 784 CURVE SMOOTH",
"588 821 LINE",
"700 821 LINE SMOOTH",
"735 821 OFFCURVE",
"752 836 OFFCURVE",
"752 870 CURVE SMOOTH",
"752 918 LINE",
"588 918 LINE",
"588 1446 LINE SMOOTH",
"588 1473 OFFCURVE",
"573 1489 OFFCURVE",
"537 1489 CURVE SMOOTH",
"528 1489 OFFCURVE",
"492 1489 OFFCURVE",
"479 1487 CURVE",
"442 1466 OFFCURVE",
"49 879 OFFCURVE",
"49 879 CURVE",
"45 872 OFFCURVE",
"41 862 OFFCURVE",
"41 850 CURVE SMOOTH",
"41 836 OFFCURVE",
"49 821 OFFCURVE",
"84 821 CURVE SMOOTH",
"446 821 LINE",
"446 643 LINE SMOOTH",
"446 602 OFFCURVE",
"473 582 OFFCURVE",
"510 582 CURVE SMOOTH"
);
},
{
closed = 1;
nodes = (
"195 918 LINE",
"444 1294 LINE",
"444 918 LINE"
);
}
);
width = 793;
}
);
unicode = 2074;
},
{
glyphname = softhyphen;
lastChange = "2017-11-18 12:19:24 +0000";
layers = (
{
layerId = UUID0;
paths = (
{
closed = 1;
nodes = (
"510 471 LINE",
"567 471 OFFCURVE",
"592 492 OFFCURVE",
"592 551 CURVE SMOOTH",
"592 643 LINE",
"123 643 LINE SMOOTH",
"66 643 OFFCURVE",
"41 625 OFFCURVE",
"41 565 CURVE SMOOTH",
"41 471 LINE"
);
}
);
width = 633;
}
);
leftKerningGroup = hyphen;
rightKerningGroup = hyphen;
unicode = 00AD;
},
{
glyphname = guillemetleft;
lastChange = "2017-11-18 12:19:24 +0000";
layers = (
{
layerId = UUID0;
paths = (
{
closed = 1;
nodes = (
"655 233 LINE SMOOTH",
"666 219 OFFCURVE",
"678 213 OFFCURVE",
"688 213 CURVE SMOOTH",
"709 213 OFFCURVE",
"725 236 OFFCURVE",
"791 297 CURVE",
"584 555 LINE",
"791 817 LINE",
"721 877 OFFCURVE",
"700 891 OFFCURVE",
"684 891 CURVE SMOOTH",
"672 891 OFFCURVE",
"662 885 OFFCURVE",
"649 870 CURVE SMOOTH",
"446 618 LINE SMOOTH",
"412 575 OFFCURVE",
"410 553 OFFCURVE",
"410 526 CURVE"
);
},
{
closed = 1;
nodes = (
"365 176 LINE SMOOTH",
"377 162 OFFCURVE",
"387 156 OFFCURVE",
"397 156 CURVE SMOOTH",
"418 156 OFFCURVE",
"434 178 OFFCURVE",
"500 240 CURVE",
"246 555 LINE",
"502 877 LINE",
"432 936 OFFCURVE",
"412 950 OFFCURVE",
"395 950 CURVE SMOOTH",
"383 950 OFFCURVE",
"373 944 OFFCURVE",
"360 930 CURVE SMOOTH",
"109 618 LINE SMOOTH",
"74 575 OFFCURVE",
"72 553 OFFCURVE",
"72 526 CURVE"
);
}
);
width = 885;
}
);
leftKerningGroup = guilsinglleft;
rightKerningGroup = guilsinglleft;
unicode = 00AB;
},
{
glyphname = guillemetright;
lastChange = "2017-11-18 12:19:24 +0000";
layers = (
{
layerId = UUID0;
paths = (
{
closed = 1;
nodes = (
"229 233 LINE SMOOTH",
"219 219 OFFCURVE",
"207 213 OFFCURVE",
"197 213 CURVE SMOOTH",
"176 213 OFFCURVE",
"160 236 OFFCURVE",
"94 297 CURVE",
"301 555 LINE",
"94 817 LINE",
"164 877 OFFCURVE",
"184 891 OFFCURVE",
"201 891 CURVE SMOOTH",
"213 891 OFFCURVE",
"223 885 OFFCURVE",
"236 870 CURVE SMOOTH",
"438 618 LINE SMOOTH",
"473 575 OFFCURVE",
"475 553 OFFCURVE",
"475 526 CURVE"
);
},
{
closed = 1;
nodes = (
"520 176 LINE SMOOTH",
"508 162 OFFCURVE",
"498 156 OFFCURVE",
"487 156 CURVE SMOOTH",
"467 156 OFFCURVE",
"451 178 OFFCURVE",
"385 240 CURVE",
"639 555 LINE",
"383 877 LINE",
"453 936 OFFCURVE",
"473 950 OFFCURVE",
"489 950 CURVE SMOOTH",
"502 950 OFFCURVE",
"512 944 OFFCURVE",
"524 930 CURVE SMOOTH",
"776 618 LINE SMOOTH",
"811 575 OFFCURVE",
"813 553 OFFCURVE",
"813 526 CURVE"
);
}
);
width = 885;
}
);
leftKerningGroup = guilsinglright;
rightKerningGroup = guilsinglright;
unicode = 00BB;
},
{
glyphname = euro;
lastChange = "2017-11-18 12:19:24 +0000";
layers = (
{
layerId = UUID0;
paths = (
{
closed = 1;
nodes = (
"121 594 LINE",
"72 594 OFFCURVE",
"45 604 OFFCURVE",
"35 551 CURVE SMOOTH",
"20 471 LINE",
"262 471 LINE",
"336 150 OFFCURVE",
"573 -39 OFFCURVE",
"913 -39 CURVE SMOOTH",
"1079 -39 OFFCURVE",
"1249 4 OFFCURVE",
"1380 121 CURVE",
"1339 199 LINE",
"1339 199 OFFCURVE",
"1155 115 OFFCURVE",
"987 115 CURVE SMOOTH",
"750 115 OFFCURVE",
"598 264 OFFCURVE",
"532 471 CURVE",
"905 471 LINE SMOOTH",
"956 471 OFFCURVE",
"1001 461 OFFCURVE",
"1012 514 CURVE SMOOTH",
"1026 594 LINE",
"506 594 LINE",
"500 627 OFFCURVE",
"498 662 OFFCURVE",
"498 698 CURVE SMOOTH",
"498 748 LINE",
"946 748 LINE SMOOTH",
"997 748 OFFCURVE",
"1042 737 OFFCURVE",
"1053 791 CURVE SMOOTH",
"1067 870 LINE",
"508 870 LINE",
"539 1096 OFFCURVE",
"641 1300 OFFCURVE",
"860 1300 CURVE SMOOTH",
"1024 1300 OFFCURVE",
"1145 1200 OFFCURVE",
"1233 1110 CURVE",
"1311 1210 LINE SMOOTH",
"1331 1237 OFFCURVE",
"1341 1260 OFFCURVE",
"1341 1282 CURVE SMOOTH",
"1341 1391 OFFCURVE",
"1112 1450 OFFCURVE",
"901 1450 CURVE SMOOTH",
"571 1450 OFFCURVE",
"313 1237 OFFCURVE",
"252 870 CURVE",
"162 870 LINE SMOOTH",
"113 870 OFFCURVE",
"86 881 OFFCURVE",
"76 827 CURVE SMOOTH",
"61 748 LINE",
"238 748 LINE",
"238 698 LINE SMOOTH",
"238 662 OFFCURVE",
"240 627 OFFCURVE",
"242 594 CURVE"
);
}
);
width = 1421;
}
);
unicode = 20AC;
},
{
glyphname = micro;
lastChange = "2017-11-18 12:19:24 +0000";
layers = (
{
layerId = UUID0;
paths = (
{
closed = 1;
nodes = (
"543 -311 LINE",
"338 -311 OFFCURVE",
"244 -301 OFFCURVE",
"244 47 CURVE",
"281 0 OFFCURVE",
"348 -31 OFFCURVE",
"481 -31 CURVE SMOOTH",
"633 -31 OFFCURVE",
"813 90 OFFCURVE",
"813 86 CURVE SMOOTH",
"813 74 LINE SMOOTH",
"813 -8 OFFCURVE",
"874 -23 OFFCURVE",
"956 -23 CURVE SMOOTH",
"1053 -23 OFFCURVE",
"1174 -4 OFFCURVE",
"1219 20 CURVE",
"1219 96 LINE",
"1044 96 LINE",
"1044 991 LINE SMOOTH",
"1044 1044 OFFCURVE",
"1014 1044 OFFCURVE",
"958 1044 CURVE SMOOTH",
"918 1044 OFFCURVE",
"860 1040 OFFCURVE",
"811 1036 CURVE",
"811 176 LINE",
"727 135 OFFCURVE",
"629 115 OFFCURVE",
"537 115 CURVE SMOOTH",
"381 115 OFFCURVE",
"346 193 OFFCURVE",
"346 369 CURVE SMOOTH",
"346 991 LINE SMOOTH",
"346 1044 OFFCURVE",
"315 1044 OFFCURVE",
"260 1044 CURVE SMOOTH",
"217 1044 OFFCURVE",
"164 1040 OFFCURVE",
"113 1036 CURVE",
"113 -283 LINE SMOOTH",
"115 -440 OFFCURVE",
"190 -492 OFFCURVE",
"281 -492 CURVE SMOOTH",
"375 -492 OFFCURVE",
"485 -436 OFFCURVE",
"545 -395 CURVE"
);
}
